<svg width="80" height="40" viewBox="0 0 80 40" fill="none" xmlns="http://www.w3.org/2000/svg">
<path d="M65 27.7728C65 28.2741 64.5943 28.6803 64.0939 28.6803H14.906C14.4057 28.6803 14 28.274 14 27.7728V11.9075C14 11.4063 14.4057 11 14.906 11H64.0939C64.5943 11 65 11.4063 65 11.9075V27.7728Z" fill="#134785"/>
<path d="M23.8316 17.6271C23.7817 16.6608 23.0654 16.0797 22.2008 16.0797H22.168C21.1698 16.0797 20.616 16.8658 20.616 17.7589C20.616 18.7588 21.286 19.3908 22.164 19.3908C23.1431 19.3908 23.7871 18.6724 23.8336 17.8225L23.8316 17.6271ZM22.173 15.2153C22.8399 15.2153 23.467 15.5105 23.9274 15.9726V15.9742C23.9274 15.7524 24.0764 15.5853 24.2837 15.5853L24.3357 15.5847C24.6597 15.5847 24.7261 15.8917 24.7261 15.9889L24.728 19.4399C24.7048 19.6658 24.9607 19.7824 25.1025 19.6376C25.6555 19.0681 26.3173 16.71 24.7583 15.3437C23.305 14.0699 21.3554 14.2799 20.3186 14.9957C19.2167 15.7572 18.5113 17.4421 19.1965 19.0253C19.9435 20.7517 22.0806 21.2665 23.3505 20.7528C23.9937 20.4927 24.2908 21.3636 23.6228 21.6481C22.6137 22.0789 19.8042 22.0355 18.4917 19.7585C17.605 18.2212 17.6523 15.5162 20.0039 14.1146C21.803 13.0423 24.1749 13.339 25.605 14.8351C27.1 16.3991 27.0129 19.3275 25.5549 20.4665C24.8936 20.9836 23.9128 20.4799 23.9189 19.7261L23.9121 19.4798C23.4518 19.9371 22.8398 20.2037 22.1729 20.2037C20.8552 20.2037 19.6954 19.0427 19.6954 17.7229C19.6955 16.39 20.8553 15.2153 22.173 15.2153Z" fill="#F89C0E"/>
<path d="M47.2584 19.7914C46.5101 19.7912 45.8427 19.2146 45.8427 18.3647L45.8436 14.0538C45.8427 13.7285 45.578 13.501 45.2542 13.501C44.878 13.5025 44.6608 13.7798 44.6608 14.0538V18.3694C44.6564 19.8311 45.8636 20.9776 47.2378 20.9776C47.646 20.9776 47.8427 20.6461 47.8427 20.3652C47.8427 20.0968 47.6316 19.7916 47.2584 19.7914ZM38.6733 19.8431C37.6107 19.8431 36.7498 18.9811 36.7498 17.9178C36.7498 16.8538 37.6107 15.992 38.6733 15.992C39.7357 15.992 40.5972 16.8538 40.5972 17.9178C40.5972 18.9811 39.7357 19.8431 38.6733 19.8431ZM41.1586 14.8631C40.8268 14.8629 40.5919 15.1289 40.5919 15.3883V15.5905C40.0683 15.1436 39.3899 14.8663 38.6567 14.865C37.0447 14.8628 35.6171 16.223 35.6171 17.9243C35.6171 19.4845 36.9774 20.9746 38.6567 20.9746C39.3364 20.9746 40.067 20.713 40.5863 20.269L40.5879 20.4135C40.5879 20.6905 40.8067 20.9746 41.1669 20.9746C41.5754 20.9746 41.7582 20.6474 41.7582 20.3893V15.42C41.7628 15.1866 41.5069 14.8638 41.1586 14.8631ZM43.2109 14.862C42.8573 14.8631 42.6295 15.1534 42.6289 15.4479L42.6301 20.3988C42.6278 20.7279 42.8873 20.9725 43.2087 20.9725C43.5748 20.9725 43.8093 20.6858 43.8093 20.3734L43.8114 15.4561C43.8114 15.1652 43.5182 14.861 43.2109 14.862ZM33.1466 14.8651C32.4225 14.8546 31.8681 15.2756 31.5261 15.5557C31.1466 15.1484 30.6603 14.8998 30.1606 14.8689C29.634 14.836 29.1398 15.0138 28.8261 15.2692C28.7158 15.0138 28.5711 14.8631 28.3226 14.8631C28.0503 14.8631 27.7607 15.0965 27.7607 15.4765C27.7607 15.8564 27.7643 20.4049 27.7643 20.4049C27.7643 20.6879 28.0054 20.9746 28.3501 20.9746C28.7297 20.9746 28.9398 20.6839 28.9398 20.4028V16.7474C28.9398 16.3917 29.5468 15.9704 30.0605 15.9773C30.3883 15.9819 30.778 16.3052 30.778 16.8164L30.7811 20.4116C30.7811 20.7292 31.1003 20.9726 31.39 20.9726C31.7346 20.9726 31.9954 20.712 31.9954 20.4149V16.7819C31.9954 16.3364 32.6707 15.9635 33.1329 15.9876C33.4952 16.0067 33.8157 16.4022 33.8157 16.7819V20.4099C33.8157 20.7238 34.1102 20.9726 34.4279 20.9726C34.7067 20.9726 35.0294 20.7878 35.0294 20.4049V16.7922C35.0329 15.4662 33.7258 14.8479 33.1466 14.8651ZM43.8059 13.8911C43.8059 14.1375 43.5599 14.3395 43.2056 14.3395C42.8494 14.3395 42.627 14.0949 42.627 13.8644L42.6274 13.547C42.6315 13.3069 42.8407 13.0381 43.2024 13.0381C43.5985 13.0381 43.8059 13.2954 43.8059 13.547L43.8059 13.8911Z" fill="white"/>
<path d="M60.468 14.8618C60.1175 14.8618 59.892 15.149 59.892 15.4137L59.8924 17.9234C59.8924 18.8919 59.0781 19.8376 57.9454 19.8376C57.0199 19.8376 56.0388 19.0331 56.0388 17.9415V15.4276C56.0388 15.1638 55.8416 14.8618 55.4495 14.8618C55.1728 14.8618 54.89 15.0944 54.89 15.4164V17.9215C54.89 19.5437 56.3373 20.9724 57.9417 20.9724C59.6937 20.9724 61.0386 19.4679 61.0386 17.929V15.4154C61.0386 15.1336 60.806 14.8618 60.468 14.8618ZM53.6288 14.8618C51.9819 14.8688 50.5775 16.3222 50.5855 17.9219V20.4156C50.5855 20.7401 50.8508 20.9783 51.1305 20.9783C51.463 20.9783 51.7218 20.7322 51.7218 20.4328V17.9011C51.7207 16.9947 52.5115 15.9942 53.6216 15.9996C53.9826 16.001 54.22 15.7265 54.2179 15.4226C54.2167 15.1801 54.0428 14.8603 53.6288 14.8618ZM49.7653 20.5054C49.7624 20.739 49.5187 20.9782 49.1648 20.9782C48.8079 20.9782 48.5854 20.7171 48.5854 20.4862L48.586 20.0871C48.5903 19.847 48.8119 19.5978 49.1742 19.5978C49.5695 19.5978 49.7666 19.8649 49.7666 20.1164L49.7653 20.5054Z" fill="#F89C0E"/>
<path d="M49.7005 25.1261C49.2449 25.1261 48.8758 24.7563 48.8758 24.3004C48.8758 23.8443 49.2449 23.475 49.7005 23.475C50.156 23.475 50.5254 23.8443 50.5254 24.3004C50.5254 24.7563 50.156 25.1261 49.7005 25.1261ZM50.7662 22.9908C50.6238 22.9908 50.5233 23.1046 50.5233 23.216V23.3025C50.2986 23.111 50.0078 22.9924 49.6936 22.9917C49.0023 22.9908 48.3901 23.5739 48.3901 24.3035C48.3901 24.9723 48.9735 25.6113 49.6936 25.6113C49.9849 25.6113 50.2982 25.4991 50.5208 25.3086C50.5208 25.3086 50.5248 25.4088 50.5296 25.4277C50.4913 25.7305 50.2723 26.0077 49.896 26.1273C49.644 26.2074 48.9176 26.0355 48.8579 26.0251C48.6873 25.9951 48.6013 26.1422 48.6023 26.2722C48.6027 26.3763 48.6857 26.4593 48.8548 26.513C49.0708 26.5814 49.4481 26.6234 49.7773 26.6282C50.0252 26.6318 50.99 26.4362 51.0234 25.3786C51.0238 25.3724 51.0234 23.2295 51.0234 23.2295C51.0252 23.1294 50.9157 22.9912 50.7662 22.9908ZM59.7284 25.1261C59.3116 25.1261 58.9679 24.8163 58.9122 24.4145L58.9123 24.1857C58.9683 23.7841 59.3117 23.475 59.7283 23.475C60.1839 23.475 60.553 23.8443 60.553 24.3004C60.553 24.7564 60.1839 25.1261 59.7284 25.1261ZM59.7354 22.9917C59.421 22.9924 59.1301 23.1111 58.9058 23.3025V23.216C58.9058 23.1046 58.8051 22.9908 58.6626 22.9908C58.5135 22.9912 58.4039 23.1294 58.4057 23.2294L58.4063 26.3953C58.4051 26.5364 58.5165 26.6414 58.6543 26.6414C58.8112 26.6414 58.9115 26.5185 58.9115 26.3845L58.9117 25.3116C59.1343 25.5001 59.4455 25.6113 59.7354 25.6113C60.4554 25.6113 61.0386 24.9723 61.0386 24.3035C61.0386 23.5739 60.4267 22.9908 59.7354 22.9917H59.7354ZM57.9739 22.9908C57.8236 22.9908 57.727 23.1139 57.727 23.2276V24.3034C57.727 24.7186 57.378 25.1242 56.8923 25.1242C56.4954 25.1242 56.0747 24.7793 56.0747 24.311V23.2333C56.0747 23.1204 55.9903 22.9907 55.8221 22.9907C55.7035 22.9907 55.5823 23.0904 55.5823 23.2288V24.3027C55.5823 24.9982 56.2028 25.6107 56.8907 25.6107C57.6419 25.6107 58.2183 24.9659 58.2183 24.3061V23.2281C58.2184 23.1075 58.1188 22.9908 57.9739 22.9908ZM54.0876 25.1261C53.6352 25.1261 53.2686 24.7615 53.2634 24.3102V24.2904C53.2679 23.9254 53.5085 23.6174 53.8396 23.5129C53.919 23.4882 54.0017 23.4757 54.0848 23.4757C54.5371 23.4757 54.9039 23.8402 54.9092 24.292L54.9091 24.3117C54.9046 24.6767 54.6642 24.9846 54.3329 25.089C54.2534 25.1136 54.1708 25.1261 54.0876 25.1261ZM55.3952 24.2984C55.3952 23.6297 54.8121 22.9907 54.0917 22.9907C54.0838 22.9907 54.0756 22.9918 54.0673 22.9921C53.3816 22.9983 52.7774 23.5784 52.7774 24.3034C52.7774 24.9722 53.3604 25.6112 54.0807 25.6112C54.0885 25.6112 54.0969 25.61 54.105 25.61C54.791 25.6033 55.3952 25.0235 55.3952 24.2984ZM52.5247 22.9908C51.8185 22.9938 51.2164 23.617 51.22 24.303V25.372C51.22 25.5112 51.3337 25.6133 51.4535 25.6133C51.5963 25.6133 51.7071 25.5079 51.7071 25.3793V24.2938C51.7067 23.9053 52.0457 23.4765 52.5216 23.4787C52.6765 23.4793 52.7785 23.3617 52.7774 23.2314C52.7769 23.1274 52.7022 22.9901 52.5247 22.9908Z" fill="white"/>
</svg>
