<svg width="80" height="40" viewBox="0 0 80 40" fill="none" xmlns="http://www.w3.org/2000/svg">
<path d="M31.5932 21.1425C31.5932 21.059 31.5932 20.9892 31.5932 20.9406C31.5932 19.9183 31.0511 19.2446 30.1746 19.2446C29.2848 19.2446 28.7354 20.0092 28.7354 20.948C28.7354 21.8447 29.2288 22.6863 30.3347 22.6863C30.7172 22.6863 31.1552 22.568 31.4817 22.3318L31.2942 21.8589C31.0369 22.0053 30.7589 22.0888 30.4668 22.0888C29.8761 22.0888 29.4861 21.6851 29.4793 21.143H31.5927L31.5932 21.1425ZM30.8424 20.6073H29.4729C29.4729 20.1967 29.7302 19.8073 30.1614 19.8073C30.62 19.8073 30.8361 20.2247 30.8424 20.6073Z" fill="#676766"/>
<path d="M34.9526 21.1425C34.9526 21.059 34.9526 20.9892 34.9526 20.9406C34.9526 19.9183 34.4105 19.2446 33.534 19.2446C32.6437 19.2446 32.0947 20.0092 32.0947 20.948C32.0947 21.8447 32.5882 22.6863 33.6941 22.6863C34.0766 22.6863 34.5146 22.568 34.8411 22.3318L34.6535 21.8589C34.3962 22.0053 34.1178 22.0888 33.8261 22.0888C33.2354 22.0888 32.846 21.6851 32.8386 21.143H34.9521L34.9526 21.1425ZM34.2018 20.6073H32.8323C32.8323 20.1967 33.0896 19.8073 33.5208 19.8073C33.9794 19.8073 34.1955 20.2247 34.2018 20.6073Z" fill="#676766"/>
<path d="M38.3736 22.429V17.7832H37.6503V19.2858C37.525 19.2652 37.3861 19.2446 37.1911 19.2446C36.1693 19.2446 35.4116 19.9817 35.4116 21.004C35.4116 22.1231 36.2042 22.6863 37.1705 22.6863C37.692 22.6863 38.102 22.5748 38.3736 22.429ZM37.6503 22.019C37.553 22.0533 37.3929 22.0814 37.2466 22.0814C36.5307 22.0814 36.1344 21.6085 36.1344 20.9618C36.1344 20.2665 36.6073 19.8427 37.2191 19.8427C37.4278 19.8427 37.5319 19.8633 37.6503 19.8982V22.019Z" fill="#676766"/>
<path d="M23.463 23.8916C23.2194 24.2435 22.2023 23.9577 21.1931 23.2571C20.1845 22.5544 19.5637 21.7005 19.8089 21.3492C20.0535 20.9978 21.0695 21.2831 22.0787 21.9837C23.0884 22.687 23.7081 23.5403 23.4635 23.8916H23.463Z" fill="#F59D21"/>
<path d="M20.0905 23.092L19.4248 24.722L19.42 24.7262C15.3892 26.2664 11.3151 25.2841 10.2489 22.5473C10.0814 22.1172 10.0011 21.666 10 21.2058C9.99367 18.7188 12.2946 15.954 15.6423 14.7113C19.5156 13.2736 21.6259 14.2934 22.2166 15.3284C22.8459 16.4327 22.466 18.7051 17.4836 21.2872C17.0393 20.9797 16.765 20.7894 16.4523 20.5734C16.5516 20.2659 16.6377 20.0101 16.866 19.3291C23.5449 15.0964 19.3054 13.6424 16.0423 14.92C12.8008 16.1901 10.8443 18.8097 11.6247 20.8148C12.3982 22.8019 15.6037 23.4127 18.8092 22.1959L20.091 23.092H20.0905Z" fill="#273874"/>
<path d="M28.5865 22.6193C27.8552 21.3782 27.3581 20.5197 27.1663 20.4172V20.4098C27.628 20.219 28.047 19.7932 28.047 19.1327C28.047 18.3909 27.6 17.7817 26.4282 17.7817H25.2637V22.6193H26.0092V20.6486H26.4424C26.6274 20.7004 26.9893 21.3714 27.7205 22.6193H28.587H28.5865ZM27.2867 19.213C27.2867 19.6754 26.9317 20.0674 26.4488 20.0674H26.0086V18.4284H26.4345C27.0384 18.4284 27.2867 18.7946 27.2867 19.213Z" fill="#676766"/>
<path d="M46.0215 22.6161L45.1935 21.3792L44.3666 22.6161H43.5947L44.7767 20.9196L43.6851 19.3276H44.4987L45.2707 20.5096L46.0632 19.3276H46.8208L45.7013 20.9618L46.8277 22.6161H46.0215Z" fill="#676766"/>
<path d="M49.4514 22.616V20.6559C49.4514 20.2739 49.3816 19.8908 48.923 19.8908C48.5965 19.8908 48.2906 20.0995 48.0539 20.3008V22.616H47.3306V17.7832H48.0539V19.6964C48.3809 19.4391 48.7212 19.2441 49.1661 19.2441C49.6527 19.2441 50.1742 19.5083 50.1742 20.454V22.616H49.4508H49.4514Z" fill="#676766"/>
<path d="M51.0689 22.6161V19.3276H51.7922V22.6161H51.0689ZM51.8895 18.3058C51.8895 18.5488 51.6876 18.757 51.4309 18.757C51.1661 18.757 50.9648 18.5552 50.9648 18.3058C50.9648 18.0553 51.1667 17.8535 51.4309 17.8535C51.6876 17.8535 51.8895 18.0479 51.8895 18.3058Z" fill="#676766"/>
<path d="M55.6053 20.8503C55.6053 19.7725 54.8751 19.2441 54.0757 19.2441C53.8252 19.2441 53.6097 19.2933 53.4084 19.3625V17.7827H52.6851V22.4629C52.9075 22.5881 53.262 22.6853 53.7069 22.6853C54.743 22.6853 55.6053 22.0037 55.6053 20.8498V20.8503ZM54.8819 20.9063C54.8819 21.5668 54.4439 22.0809 53.8527 22.0809C53.6715 22.0809 53.5325 22.0677 53.4078 22.019V19.9955C53.5325 19.9395 53.6858 19.8771 53.9431 19.8771C54.5338 19.8771 54.8814 20.3362 54.8814 20.9063H54.8819Z" fill="#676766"/>
<path d="M56.2511 22.6161V19.3276H56.9744V22.6161H56.2511ZM57.0716 18.3058C57.0716 18.5488 56.8698 18.757 56.6125 18.757C56.3483 18.757 56.147 18.5552 56.147 18.3058C56.147 18.0553 56.3483 17.8535 56.6125 17.8535C56.8698 17.8535 57.0716 18.0479 57.0716 18.3058Z" fill="#676766"/>
<path d="M70.2931 22.6863C69.7716 22.6863 69.417 22.5611 69.1523 22.3947L69.3959 21.8589C69.6115 22.0053 69.9174 22.13 70.2582 22.13C70.6201 22.13 70.8631 21.9836 70.8631 21.7337C70.8631 21.0727 69.3547 21.3232 69.3547 20.1835C69.3547 19.6483 69.7716 19.2446 70.5435 19.2446C70.9392 19.2446 71.2182 19.3212 71.4612 19.4185V20.0303C71.2039 19.9188 70.926 19.8216 70.5715 19.8216C70.2725 19.8216 70.0569 19.9188 70.0569 20.1486C70.0569 20.7393 71.5933 20.5655 71.5933 21.6782C71.5933 22.4015 70.981 22.6863 70.2931 22.6863Z" fill="#676766"/>
<path d="M40.8169 22.6168V17.7808H43.2965L43.0708 18.4201H41.5566V19.8239H43.064V20.4637H41.5566V21.978H43.3033V22.6168H40.8169Z" fill="#676766"/>
<path d="M58.9519 22.6863C58.4098 22.6863 58.18 22.3736 58.18 21.9424V19.8919H57.6099V19.3281H58.18V18.5847L58.9033 18.3623V19.3287H59.9251L59.6958 19.8924H58.9033V21.6862C58.9033 21.9435 59.0079 22.0687 59.2229 22.0687C59.4385 22.0687 59.6472 21.9572 59.7793 21.8669L59.9811 22.3397C59.6683 22.5696 59.2652 22.6874 58.9524 22.6874L58.9519 22.6863Z" fill="#676766"/>
<path d="M60.587 22.6166V19.3276H61.3098V22.6166H60.587ZM61.4076 18.3058C61.4076 18.5488 61.2057 18.7575 60.9484 18.7575C60.6843 18.7575 60.4824 18.5562 60.4824 18.3058C60.4824 18.0553 60.6843 17.8535 60.9484 17.8535C61.2057 17.8535 61.4076 18.0485 61.4076 18.3058Z" fill="#676766"/>
<path d="M63.5432 19.2461C63.0909 19.2461 62.7015 19.4136 62.4236 19.7058C62.1246 20.0117 61.9502 20.4629 61.9502 20.9849C61.9502 21.5133 62.1246 21.9793 62.4447 22.2852C62.7158 22.5494 63.0909 22.6883 63.5432 22.6883C64.0087 22.6883 64.3981 22.5214 64.6834 22.2366C64.9829 21.9307 65.1494 21.4789 65.1494 20.9643C65.1494 20.4566 64.9893 20.0117 64.6971 19.7126C64.4187 19.4136 64.0224 19.2461 63.5432 19.2461ZM63.5358 19.8305C64.0853 19.8305 64.4049 20.2822 64.4049 20.9706C64.4049 21.6379 64.1053 22.1108 63.5495 22.1108C63.0143 22.1108 62.6878 21.6517 62.6878 20.9706C62.6878 20.2959 62.98 19.8305 63.5358 19.8305Z" fill="#676766"/>
<path d="M67.9168 22.6166V20.649C67.9168 20.2945 67.8476 19.8913 67.4022 19.8913C67.0757 19.8913 66.7629 20.0858 66.5051 20.2871V22.6166H65.7817V19.3276H66.3872L66.4702 19.6964C66.8384 19.4179 67.1866 19.2446 67.6384 19.2446C68.125 19.2446 68.6396 19.5643 68.6396 20.4197V22.6171H67.9163L67.9168 22.6166Z" fill="#676766"/>
<path fill-rule="evenodd" clip-rule="evenodd" d="M72.3237 17.7827C72.6973 17.7827 73 18.0855 73 18.459C73 18.8326 72.6973 19.1353 72.3237 19.1353C71.9502 19.1353 71.6475 18.8326 71.6475 18.459C71.6475 18.0855 71.9502 17.7827 72.3237 17.7827ZM72.3237 17.8879C72.6392 17.8879 72.8944 18.1436 72.8944 18.4585C72.8944 18.7739 72.6386 19.0291 72.3237 19.0291C72.0083 19.0291 71.7531 18.7734 71.7531 18.4585C71.7531 18.1431 72.0089 17.8879 72.3237 17.8879Z" fill="#676766"/>
<path d="M72.1737 18.4336H72.2603C72.3591 18.4336 72.4431 18.3971 72.4431 18.3041C72.4431 18.2386 72.3951 18.1726 72.2603 18.1726C72.2212 18.1726 72.1943 18.1752 72.1737 18.1784V18.4336ZM72.1737 18.8505H72.0532V18.0976C72.1161 18.0886 72.1763 18.0796 72.2667 18.0796C72.3808 18.0796 72.4548 18.1039 72.5002 18.1367C72.5446 18.1699 72.5689 18.2212 72.5689 18.2925C72.5689 18.3918 72.5034 18.4521 72.422 18.4759V18.4822C72.4881 18.4938 72.533 18.5535 72.5478 18.665C72.5657 18.7818 72.5842 18.8272 72.5958 18.851H72.4701C72.4521 18.8267 72.4336 18.758 72.4188 18.6587C72.4009 18.563 72.3528 18.5271 72.2572 18.5271H72.1737V18.851V18.8505Z" fill="#676766"/>
</svg>
