<svg width="88" height="32" viewBox="0 0 88 32" fill="none" xmlns="http://www.w3.org/2000/svg">
<path d="M78.6399 21.7785C73.5021 28.4682 68.98 31.2043 68.98 31.2043C68.98 31.2043 74.9232 30.1775 79.5122 26.2042C83.7894 22.5003 87.1766 17.3331 87.9073 10.7505C88.9193 1.63454 81.2805 2.72523 81.2805 2.72523C81.2805 2.72523 85.1535 2.87374 84.5379 8.84552C84.1445 12.6556 82.8531 16.2935 78.6408 21.7785H78.6399Z" fill="#EC1C24"/>
<path d="M70.4273 19.9551C68.5223 23.241 64.8155 25.9898 63.3383 25.1676C62.1286 24.4949 62.2151 21.9772 62.4679 20.619C62.9223 18.174 64.1959 13.3716 68.4102 8.69115C75.2474 1.09858 81.2693 1.17877e-05 81.2693 1.17877e-05C81.2693 1.17877e-05 77.775 -0.0265426 72.5103 2.44104C69.8461 3.69008 66.9074 5.94818 64.2549 8.93604C58.5841 15.3219 57.8986 21.4756 57.936 24.1704C57.9556 25.6505 58.1179 27.4601 58.7306 28.6669C59.66 30.4795 60.8973 31.1364 62.5289 31.1502C64.6355 31.166 67.1208 29.5894 69.5146 26.3645C71.4324 23.7789 73.3994 19.4899 75.5897 11.3771C76.6273 7.52866 78.9031 5.37284 78.9031 5.37284C78.9031 5.37284 76.3204 6.93168 74.4665 10.9158C73.0434 13.9725 72.3323 16.6702 70.4283 19.9561L70.4273 19.9551Z" fill="#EC1C24"/>
<path d="M73.9833 8.98139C73.9833 8.71093 73.8899 8.47981 73.7001 8.28901C73.5113 8.10018 73.2801 8.00478 73.0126 8.00478C72.7412 8.00478 72.513 8.10018 72.3222 8.28901C72.1354 8.47981 72.04 8.71093 72.04 8.98139C72.04 9.25087 72.1354 9.48002 72.3222 9.66787C72.513 9.8567 72.7412 9.95308 73.0126 9.95308C73.2811 9.95308 73.5113 9.85769 73.7001 9.66689C73.8889 9.47904 73.9833 9.2489 73.9833 8.98139ZM74.1771 8.98139C74.1771 9.30103 74.064 9.57542 73.8358 9.80556C73.6086 10.0308 73.3333 10.1459 73.0126 10.1459C72.6891 10.1459 72.4147 10.0327 72.1855 9.80654C71.9564 9.57936 71.8433 9.30496 71.8433 8.98139C71.8433 8.65782 71.9573 8.38146 72.1855 8.15428C72.4137 7.92512 72.6891 7.81104 73.0126 7.81104C73.3372 7.81104 73.6126 7.92512 73.8378 8.15428C74.064 8.38146 74.1761 8.65782 74.1761 8.98139H74.1771Z" fill="#2B2A29"/>
<path d="M72.7596 8.5466V8.96753H73.1107C73.2651 8.96753 73.333 8.87016 73.333 8.761C73.333 8.65576 73.2661 8.5466 73.1137 8.5466H72.7596ZM73.572 9.53501H73.3566L73.0045 9.13669H72.7586V9.53501H72.5747V8.37842C72.7547 8.37842 72.9327 8.3794 73.1127 8.3794C73.3802 8.3794 73.5218 8.56331 73.5218 8.75608C73.5218 8.92229 73.4353 9.08457 73.2071 9.11801L73.5523 9.50157L73.572 9.53501Z" fill="#2B2A29"/>
<path d="M5.04624 25.5627V25.2352H6.18808V25.424C6.18808 26.1075 5.83205 26.5589 5.13279 26.5589C4.43451 26.5589 3.9585 26.1085 3.9585 25.3404C3.9585 24.5733 4.43549 24.0854 5.13279 24.0854C5.55077 24.0854 5.87139 24.2231 6.08186 24.5329L5.76517 24.7906C5.61568 24.5615 5.41603 24.4523 5.13279 24.4523C4.73251 24.4523 4.3873 24.7287 4.3873 25.3217C4.3873 25.9403 4.73251 26.1911 5.13279 26.1911C5.55471 26.1911 5.76911 25.958 5.76911 25.5617H5.04526L5.04624 25.5627Z" fill="#2B2A29"/>
<path d="M8.32273 26.1926C8.78497 26.1926 9.06428 25.8582 9.06428 25.3232C9.06428 24.7852 8.78399 24.4538 8.32273 24.4538C7.86835 24.4538 7.57724 24.7852 7.57724 25.3232C7.57724 25.8582 7.86835 26.1926 8.32273 26.1926ZM8.32273 24.0869C9.04658 24.0869 9.49407 24.5855 9.49407 25.3232C9.49407 26.0647 9.04658 26.5604 8.32273 26.5604C7.59494 26.5604 7.14844 26.0657 7.14844 25.3232C7.14844 24.5846 7.59593 24.0869 8.32273 24.0869Z" fill="#2B2A29"/>
<path d="M10.5015 24.1411H10.9234V25.4216C10.9234 25.8907 11.065 26.1779 11.5125 26.1779C11.9708 26.1779 12.1055 25.8907 12.1055 25.4216V24.1411H12.5275V25.5337C12.5275 26.2281 12.1016 26.5595 11.5204 26.5595C10.9421 26.5595 10.5015 26.2291 10.5015 25.5337V24.1411Z" fill="#2B2A29"/>
<path d="M14.3391 25.3449C14.7315 25.3449 14.9537 25.2397 14.9537 24.9053C14.9537 24.567 14.703 24.4942 14.3391 24.4942H14.0411V25.3449H14.3391ZM14.0411 26.5054H13.6191V24.1411H14.4443C14.9714 24.1411 15.3757 24.3594 15.3757 24.9053C15.3757 25.2544 15.1937 25.4875 14.9429 25.6036L15.5143 26.5054H15.0049L14.5318 25.6872C14.4954 25.6911 14.4885 25.694 14.4443 25.694H14.0401V26.5054H14.0411Z" fill="#2B2A29"/>
<path d="M16.9248 25.0976V26.505H16.5029V24.0679H16.5216L17.7215 25.5234L18.9154 24.0679H18.9331V26.505H18.5152V25.0976L17.7333 26.0722H17.7038L16.9248 25.0976Z" fill="#2B2A29"/>
<path d="M20.0605 24.1411H21.6577V24.5011H20.4825V25.1266H21.4571V25.4728H20.4825V26.1455H21.6941V26.5054H20.0605V24.1411Z" fill="#2B2A29"/>
<path d="M24.5634 24.5011H23.8071V26.5054H23.3852V24.5011H22.6279V24.1411H24.5634V24.5011Z" fill="#2B2A29"/>
<path d="M28.2178 26.1926C28.5011 26.1926 28.7086 26.0795 28.861 25.8474L29.1669 26.0696C28.9564 26.4119 28.6329 26.5604 28.21 26.5604C27.5117 26.5604 27.0317 26.11 27.0317 25.3419C27.0317 24.5747 27.5077 24.0869 28.206 24.0869C28.624 24.0869 28.923 24.2364 29.1374 24.5521L28.8355 24.7881C28.6683 24.5413 28.4903 24.4538 28.206 24.4538C27.8057 24.4538 27.4605 24.7301 27.4605 25.3232C27.4605 25.9418 27.8166 26.1926 28.2169 26.1926H28.2178Z" fill="#2B2A29"/>
<path d="M31.2524 26.1926C31.7147 26.1926 31.994 25.8582 31.994 25.3232C31.994 24.7852 31.7137 24.4538 31.2524 24.4538C30.798 24.4538 30.5069 24.7852 30.5069 25.3232C30.5069 25.8582 30.798 26.1926 31.2524 26.1926ZM31.2524 24.0869C31.9763 24.0869 32.4238 24.5855 32.4238 25.3232C32.4238 26.0647 31.9763 26.5604 31.2524 26.5604C30.5246 26.5604 30.0781 26.0657 30.0781 25.3232C30.0781 24.5846 30.5256 24.0869 31.2524 24.0869Z" fill="#2B2A29"/>
<path d="M33.4673 24.1411H35.0458V24.5011H33.8892V25.1413H34.7547V25.4865H33.8892V26.5054H33.4673V24.1411Z" fill="#2B2A29"/>
<path d="M36.0635 24.1411H37.643V24.5011H36.4864V25.1413H37.3519V25.4865H36.4864V26.5054H36.0635V24.1411Z" fill="#2B2A29"/>
<path d="M38.6616 24.1411H40.2588V24.5011H39.0835V25.1266H40.0582V25.4728H39.0835V26.1455H40.2942V26.5054H38.6616V24.1411Z" fill="#2B2A29"/>
<path d="M41.3384 24.1411H42.9346V24.5011H41.7603V25.1266H42.7349V25.4728H41.7603V26.1455H42.972V26.5054H41.3384V24.1411Z" fill="#2B2A29"/>
<path d="M46.6524 26.1926C46.9366 26.1926 47.1432 26.0795 47.2966 25.8474L47.6015 26.0696C47.39 26.4119 47.0674 26.5604 46.6455 26.5604C45.9472 26.5604 45.4663 26.11 45.4663 25.3419C45.4663 24.5747 45.9433 24.0869 46.6416 24.0869C47.0596 24.0869 47.3576 24.2364 47.573 24.5521L47.271 24.7881C47.1038 24.5413 46.9258 24.4538 46.6426 24.4538C46.2423 24.4538 45.8971 24.7301 45.8971 25.3232C45.8971 25.9418 46.2531 26.1926 46.6534 26.1926H46.6524Z" fill="#2B2A29"/>
<path d="M49.685 26.1926C50.1473 26.1926 50.4276 25.8582 50.4276 25.3232C50.4276 24.7852 50.1473 24.4538 49.685 24.4538C49.2307 24.4538 48.9395 24.7852 48.9395 25.3232C48.9395 25.8582 49.2307 26.1926 49.685 26.1926ZM49.685 24.0869C50.4089 24.0869 50.8564 24.5855 50.8564 25.3232C50.8564 26.0647 50.4089 26.5604 49.685 26.5604C48.9582 26.5604 48.5107 26.0657 48.5107 25.3232C48.5107 24.5846 48.9582 24.0869 49.685 24.0869Z" fill="#2B2A29"/>
<path d="M51.9009 26.5054V24.1411H52.3228V26.1238H53.4863V26.5054H51.9009Z" fill="#2B2A29"/>
<path d="M54.5054 26.5054V24.1411H54.9273V26.1238H56.0908V26.5054H54.5054Z" fill="#2B2A29"/>
<path d="M57.1084 24.1411H58.7056V24.5011H57.5303V25.1266H58.5059V25.4728H57.5303V26.1455H58.742V26.5054H57.1084V24.1411Z" fill="#2B2A29"/>
<path d="M60.8223 26.1926C61.1065 26.1926 61.3141 26.0795 61.4665 25.8474L61.7724 26.0696C61.5609 26.4119 61.2373 26.5604 60.8154 26.5604C60.1172 26.5604 59.6372 26.11 59.6372 25.3419C59.6372 24.5747 60.1132 24.0869 60.8115 24.0869C61.2295 24.0869 61.5275 24.2364 61.7429 24.5521L61.4409 24.7881C61.2737 24.5413 61.0957 24.4538 60.8115 24.4538C60.4112 24.4538 60.066 24.7301 60.066 25.3232C60.066 25.9418 60.422 26.1926 60.8223 26.1926Z" fill="#2B2A29"/>
<path d="M64.6455 24.5011H63.8892V26.5054H63.4673V24.5011H62.71V24.1411H64.6455V24.5011Z" fill="#2B2A29"/>
<path d="M66.0855 26.5054H65.6636V24.1411H66.0855V26.5054Z" fill="#2B2A29"/>
<path d="M68.3047 26.1926C68.7669 26.1926 69.0472 25.8582 69.0472 25.3232C69.0472 24.7852 68.7669 24.4538 68.3047 24.4538C67.8503 24.4538 67.5592 24.7852 67.5592 25.3232C67.5592 25.8582 67.8503 26.1926 68.3047 26.1926ZM68.3047 24.0869C69.0285 24.0869 69.476 24.5855 69.476 25.3232C69.476 26.0647 69.0285 26.5604 68.3047 26.5604C67.5779 26.5604 67.1304 26.0657 67.1304 25.3232C67.1304 24.5846 67.5779 24.0869 68.3047 24.0869Z" fill="#2B2A29"/>
<path d="M70.9419 24.9992V26.505H70.52V24.0679H70.5377L72.1379 25.6434V24.1407H72.5598V26.5777H72.5421L70.9419 24.9992Z" fill="#2B2A29"/>
<path d="M4.07757 13.7612C4.10805 16.1324 5.23022 16.928 6.36714 16.9103C7.38014 16.8956 8.30266 16.0055 8.30266 14.37V7.82677H4.07757V3.93213H12.812V14.3473C12.812 18.0876 10.4034 20.7902 6.4291 20.8217C2.7528 20.8502 0 18.4219 0 13.7612H4.07757Z" fill="#2B2A29"/>
<path d="M18.4859 15.0136C18.4859 16.5852 19.4871 17.4733 20.7391 17.4733C22.1524 17.4733 23.0621 16.3344 23.0621 15.0136C23.0621 13.5108 22.2193 12.5313 20.7391 12.5313C19.4861 12.5313 18.4859 13.441 18.4859 15.0136ZM23.0838 9.38702H27.2321V20.6402H23.1772V19.4334C22.2203 20.5261 20.7175 20.9136 19.4655 20.8447C16.1619 20.6402 14.3169 18.2935 14.3169 15.0136C14.3169 11.6884 16.5032 9.13623 19.7822 9.13623C21.3764 9.13623 22.4946 9.68305 23.0867 10.5938L23.0838 9.38604V9.38702Z" fill="#2B2A29"/>
<path d="M33.4276 9.3867L33.4286 10.617C34.0217 9.56963 35.0701 9.1123 36.1637 9.1123C37.2013 9.1123 38.2546 9.44276 38.9706 10.1637L37.5062 13.3276C36.8974 12.8594 36.3585 12.6676 35.672 12.6676C34.6226 12.6676 33.6125 13.3049 33.6125 14.7871V20.6398H29.4219V9.3867H33.4276Z" fill="#2B2A29"/>
<path d="M43.4234 14.9905C43.4234 16.5621 44.4266 17.4502 45.6786 17.4502C47.0919 17.4502 47.9337 16.2887 47.9337 15.1046C47.9337 13.7365 47.1587 12.5072 45.6786 12.5072C44.4266 12.5072 43.4234 13.4179 43.4234 14.9895V14.9905ZM47.8423 3.93896H52.0329V20.6161H48.1167V19.4093C47.1587 20.503 45.655 20.8895 44.403 20.8216C41.1004 20.6161 39.2544 18.5438 39.2544 14.9905C39.2544 11.5512 41.4407 9.11313 44.7207 9.11313C46.1556 9.11313 47.2266 9.56848 47.8413 10.3209V3.93995L47.8423 3.93896Z" fill="#2B2A29"/>
<path d="M58.4389 9.38184H54.2236V20.6399H58.4389V9.38184Z" fill="#2B2A29"/>
<path d="M68.3098 20.6402V14.5897C68.3098 13.2 67.4778 12.5549 66.6044 12.5549C65.6013 12.5549 64.8017 13.2364 64.8017 14.7176V20.6402H60.6562V9.38702H64.547L64.5519 10.6174C65.5098 9.50012 66.8228 9.09099 68.0069 9.11263C70.3771 9.13623 72.5024 10.3892 72.5024 14.3989V20.6392H68.3098V20.6402Z" fill="#2B2A29"/>
<path d="M58.4657 5.86346C58.4657 6.94825 57.5107 7.82651 56.3315 7.82651C55.1503 7.82651 54.1934 6.94825 54.1934 5.86346C54.1934 4.77866 55.1503 3.89844 56.3315 3.89844C57.5107 3.89844 58.4657 4.77866 58.4657 5.86346Z" fill="#2B2A29"/>
</svg>
