<svg width="80" height="40" viewBox="0 0 80 40" fill="none" xmlns="http://www.w3.org/2000/svg">
<path d="M37.2215 23.5587H38.9855V19.9163C38.9855 17.989 37.7605 16.9682 36.2823 16.9682C35.3023 16.9682 34.5673 17.3928 34.0365 17.9808H33.7997C33.3995 17.4582 32.7053 16.9682 31.6682 16.9682C30.729 16.9682 29.9858 17.3847 29.5938 17.8583H29.357V17.1478H27.7155V23.5505H29.4632V20.2022C29.4632 19.0588 29.798 18.6668 30.974 18.6668C32.15 18.6668 32.4685 19.0588 32.4685 20.2022V23.5505H34.2325V20.2022C34.2325 19.0588 34.5592 18.6668 35.727 18.6668C36.903 18.6668 37.2215 19.0588 37.2215 20.2022V23.5587ZM20.7003 22.644C20.39 22.4153 20.243 22.0805 20.243 21.566C20.243 20.9208 20.439 20.1368 20.7657 19.7938C20.9943 19.5652 21.321 19.459 21.762 19.459C22.3908 19.459 23.1667 19.6223 23.4852 19.9572C23.7057 20.1777 23.8037 20.4798 23.8037 20.9045C23.8037 21.517 23.6322 22.3745 23.2483 22.7338C23.0278 22.9298 22.742 23.0197 22.3255 23.0197C21.762 23.0115 21.0515 22.8808 20.7003 22.644ZM23.4688 23.9915L23.3953 24.5795L25.0368 24.7837L25.8127 18.4382L24.1712 18.234L24.0977 18.8465H23.9017C23.6567 18.4137 23.0033 17.8257 21.762 17.8257C20.0388 17.8257 18.7648 19.0997 18.5362 20.8392C18.5117 21.0107 18.5035 21.1822 18.5035 21.3537C18.5035 23.0197 19.6305 24.3835 21.3945 24.5795C21.4925 24.5877 21.5905 24.5958 21.6885 24.5877C22.4235 24.5877 22.9788 24.2692 23.2647 23.9915H23.4688ZM60.5373 22.1132C59.2225 22.1132 58.7897 21.6803 58.7897 20.3655C58.7897 19.0507 59.2225 18.6015 60.5373 18.6015C61.8522 18.6015 62.285 19.0507 62.285 20.3655C62.285 21.6803 61.8522 22.1132 60.5373 22.1132ZM52.1093 22.1132C50.7945 22.1132 50.3617 21.6803 50.3617 20.3655C50.3617 19.0507 50.7945 18.6015 52.1093 18.6015C53.4242 18.6015 53.857 19.0507 53.857 20.3655C53.857 21.6803 53.4242 22.1132 52.1093 22.1132ZM43.9018 22.1132C42.587 22.1132 42.1542 21.6803 42.1542 20.3655C42.1542 19.0507 42.587 18.6015 43.9018 18.6015C45.2167 18.6015 45.6495 19.0507 45.6495 20.3655C45.6495 21.6803 45.2167 22.1132 43.9018 22.1132ZM16.0698 15L15 23.5505L16.7395 23.7628L17.793 15.2123L16.0698 15ZM62.3585 22.9462V23.5668H64V17.1642H62.3585V17.7848H62.1217C61.8603 17.4337 61.1988 16.9763 60.3087 16.9763C58.3568 16.9763 57.0175 18.4627 57.0175 20.3655C57.0175 22.2683 58.3568 23.7465 60.3087 23.7465C61.1988 23.7465 61.8603 23.2892 62.1217 22.938L62.3585 22.9462ZM43.9018 16.9763C41.7295 16.9763 40.382 18.4627 40.382 20.3655C40.382 22.2683 41.7295 23.7465 43.9018 23.7465C46.0742 23.7465 47.4217 22.2683 47.4217 20.3655C47.4217 18.4627 46.0742 16.9763 43.9018 16.9763ZM53.955 22.9462V23.5668H55.5965V15.0735H53.857V17.7767H53.6202C53.3588 17.4255 52.7708 16.9682 51.8807 16.9682C49.9288 16.9682 48.5895 18.4545 48.5895 20.3573C48.5895 22.2602 49.9288 23.7383 51.8807 23.7383C52.7708 23.7383 53.465 23.281 53.7182 22.9298C53.7182 22.9462 53.955 22.9462 53.955 22.9462Z" fill="black"/>
</svg>
