<svg width="60" height="40" viewBox="0 0 60 40" fill="none" xmlns="http://www.w3.org/2000/svg">
<path d="M14 23.7045C14.2616 23.6768 14.423 23.6328 14.4851 23.5708C14.5471 23.5087 14.5777 23.4295 14.5777 23.333V13.7349C14.5777 13.6385 14.5471 13.5593 14.4851 13.4981C14.423 13.437 14.2616 13.3922 14 13.3645V13.1162H18.251V13.3645C17.9893 13.3922 17.828 13.437 17.7659 13.4981C17.7038 13.5602 17.6733 13.6385 17.6733 13.7349V23.333C17.6733 23.4295 17.7048 23.5087 17.7659 23.5708C17.828 23.6328 17.9893 23.6768 18.251 23.7045V23.9518H14V23.7045Z" fill="#808285"/>
<path d="M24.9743 18.4423C24.7614 18.2494 24.5895 18.0298 24.4606 17.7835H22.7104V15.4269H26.7618C27.3395 15.4269 27.7615 15.5157 28.0298 15.6924C28.1912 15.8003 28.3029 15.9473 28.3679 16.1335C28.534 16.187 28.7345 16.2309 28.9704 16.2633C29.3552 16.3168 29.8001 16.3607 30.2899 16.3932C30.6098 16.4152 30.9392 16.4448 31.2725 16.4801C31.2629 16.0542 31.1827 15.6437 31.0261 15.2484C30.8609 14.8301 30.6136 14.4635 30.2842 14.1465C29.9538 13.8304 29.5414 13.5802 29.0477 13.3931C28.5531 13.2079 27.9821 13.1152 27.3366 13.1152H19.0381V13.3635C19.2988 13.3912 19.4611 13.4361 19.5231 13.4972C19.5852 13.5592 19.6158 13.6375 19.6158 13.734V23.333C19.6158 23.4294 19.5852 23.5087 19.5231 23.5698C19.4611 23.6319 19.2988 23.6758 19.0381 23.7035V23.9508H23.2881V23.7035C23.0274 23.6767 22.866 23.6319 22.8049 23.5698C22.7429 23.5087 22.7123 23.4294 22.7123 23.334V19.9777H27.3395C27.814 19.9777 28.2475 19.9271 28.64 19.8268C27.9745 19.7437 27.3404 19.6082 26.7532 19.4229C26.0485 19.2004 25.4518 18.871 24.9762 18.4423H24.9743Z" fill="#808285"/>
<path d="M31.5082 15.0472C31.5225 15.0844 31.5588 15.179 31.5569 15.179C32.0572 15.2467 32.4258 15.3155 32.8316 15.4177C33.2441 15.5198 33.584 15.6363 33.8523 15.7681C34.1207 15.8989 34.2543 16.0249 34.2543 16.15V16.3754L34.5016 16.4985L35.9234 13.6378L35.6961 13.5548C35.6274 13.6378 35.551 13.7094 35.4698 13.7706C35.3877 13.8326 35.2779 13.8632 35.1395 13.8632C35.0029 13.8632 34.7766 13.8193 34.4596 13.7295C34.1436 13.6407 33.7521 13.5414 33.2852 13.4316C32.8183 13.3218 32.2826 13.2225 31.6782 13.1337C31.0738 13.0449 30.4216 13 29.7198 13C29.6482 13 29.5785 13.001 29.5078 13.0029C29.9432 13.1986 30.3213 13.4488 30.6345 13.7486C31.0203 14.1181 31.3144 14.5545 31.5082 15.0462V15.0472Z" fill="#D71920"/>
<path d="M35.7097 18.8798C35.4624 18.4873 35.1396 18.1722 34.7414 17.9316C34.3433 17.691 33.8907 17.5096 33.3827 17.3864C32.8747 17.2623 32.3534 17.1658 31.8177 17.0971C31.2811 17.0283 30.7607 16.9768 30.2527 16.9424C29.7448 16.908 29.2912 16.8641 28.894 16.8087C28.4958 16.7543 28.1721 16.6684 27.9258 16.5519C27.7004 16.4449 27.5792 16.2893 27.5591 16.0859C27.4121 16.0305 27.1571 15.9771 26.7303 15.9771H24.7538C24.728 16.1394 24.7137 16.3065 24.7137 16.4803C24.7137 17.1391 24.9228 17.6566 25.341 18.0338C25.7592 18.4119 26.2844 18.7003 26.9146 18.8989C27.5458 19.0984 28.2246 19.235 28.9522 19.3114C29.6789 19.3858 30.3587 19.4546 30.9899 19.5167C31.621 19.5787 32.1452 19.6608 32.5644 19.764C32.9826 19.8671 33.1917 20.0418 33.1917 20.2891C33.1917 20.7427 32.9521 21.0893 32.4708 21.3289C31.9896 21.5696 31.2353 21.6899 30.205 21.6899C29.6693 21.6899 29.1403 21.6383 28.618 21.5352C28.0957 21.4321 27.6326 21.306 27.2278 21.1542C26.8229 21.0033 26.4935 20.842 26.2386 20.6701C25.9846 20.4982 25.8576 20.3445 25.8576 20.206C25.8576 20.0008 25.871 19.8556 25.8987 19.7725L25.6934 19.6704L24.1694 23.3408L24.4167 23.4029C24.4855 23.3341 24.5504 23.272 24.6125 23.2167C24.6736 23.1622 24.7462 23.1345 24.8283 23.1345C24.9514 23.1345 25.1405 23.1832 25.3945 23.2787C25.6485 23.3752 25.9951 23.4831 26.4353 23.5996C26.8755 23.716 27.4073 23.8163 28.0327 23.8984C28.6581 23.9815 29.4029 24.0226 30.268 24.0226C31.3804 24.0226 32.3123 23.9194 33.06 23.7132C33.8086 23.506 34.4063 23.2281 34.8532 22.8787C35.3 22.5292 35.6161 22.1339 35.8013 21.6946C35.9875 21.2554 36.0801 20.8086 36.0801 20.355C36.0801 19.7649 35.955 19.2732 35.7087 18.8817L35.7097 18.8798Z" fill="#D71920"/>
<path d="M46.7013 23.5803C46.6258 23.4982 46.5323 23.333 46.4234 23.0857C46.2028 22.5634 45.9593 21.9733 45.691 21.3135C45.4237 20.6546 45.1449 19.9786 44.8575 19.2854C44.5681 18.5912 44.2903 17.9114 44.022 17.2459C43.7537 16.5794 43.5169 15.9826 43.3106 15.4527C43.1053 14.9246 42.9363 14.495 42.8055 14.1655C42.6747 13.8361 42.6098 13.6576 42.6098 13.6289C42.6098 13.5201 42.6432 13.4504 42.7129 13.4236C42.7816 13.3959 42.8695 13.3759 42.9802 13.3625V13.1143H37.6016V13.3625C37.698 13.3759 37.7907 13.3969 37.8795 13.4236C37.9692 13.4513 38.0141 13.4991 38.0141 13.5678C38.0141 13.5812 37.9625 13.7254 37.8585 14.0004C37.7553 14.2753 37.6207 14.6325 37.4565 15.0707C37.2913 15.5109 37.1022 16.0084 36.8903 16.5651C36.6764 17.1217 36.4606 17.6908 36.241 18.2752C36.2075 18.363 36.1741 18.4499 36.1417 18.5368C36.1522 18.553 36.1636 18.5683 36.1732 18.5845V18.5855C36.4749 19.0648 36.6286 19.6597 36.6286 20.3529C36.6286 20.8771 36.5198 21.4004 36.3068 21.9064C36.0853 22.4307 35.7101 22.9033 35.1916 23.3101C34.8774 23.5555 34.5003 23.7703 34.062 23.9517H37.4555V23.7035C37.3037 23.7035 37.2054 23.6863 37.1567 23.6519C37.1089 23.6175 37.085 23.566 37.085 23.4972C37.085 23.4686 37.0955 23.4256 37.1166 23.3626C37.1366 23.3005 37.171 23.2012 37.2197 23.0637C37.2684 22.9253 37.3333 22.7391 37.4154 22.5051C37.4975 22.2702 37.6073 21.9676 37.7448 21.5952H42.6289C42.6422 21.6649 42.6881 21.7947 42.7635 21.9886C42.8389 22.1814 42.9182 22.3848 43.0003 22.5987C43.0834 22.8126 43.1588 23.0045 43.2275 23.1764C43.2963 23.3492 43.3307 23.4418 43.3307 23.4562C43.3307 23.608 43.1998 23.6901 42.9392 23.7044V23.9527H46.9982V23.7054C46.875 23.7054 46.7748 23.6643 46.6993 23.5822L46.7013 23.5803ZM38.2624 19.9538L40.0966 15.0497L42.0961 19.9538H38.2633H38.2624Z" fill="#808285"/>
<path d="M14 27.3989H14.3246V26.9912H14.7677C15.0713 26.9912 15.2442 26.8184 15.2442 26.5434C15.2442 26.2703 15.0713 26.1023 14.7677 26.1023H14V27.398V27.3989ZM14.3246 26.3687H14.6445C14.8364 26.3687 14.9195 26.4011 14.9195 26.5482C14.9195 26.6914 14.825 26.7258 14.6235 26.7258H14.3246V26.3687ZM16.9915 26.0688C16.5151 26.0688 16.2152 26.34 16.2152 26.7506C16.2152 27.1612 16.5151 27.4324 16.9915 27.4324C17.468 27.4324 17.7659 27.1612 17.7659 26.7506C17.7659 26.34 17.468 26.0688 16.9915 26.0688ZM16.9915 26.3352C17.2503 26.3352 17.4097 26.4899 17.4097 26.7506C17.4097 27.0103 17.2503 27.1669 16.9915 27.1669C16.7328 27.1669 16.5714 27.0103 16.5714 26.7506C16.5714 26.4918 16.7318 26.3352 16.9915 26.3352ZM18.6128 26.1023L19.0253 27.3989H19.3443L19.6699 26.4546L19.9802 27.3989H20.3106L20.7307 26.1023H20.3936L20.1272 26.9759L19.8331 26.1023H19.5152L19.2106 26.9759L18.9518 26.1023H18.6148H18.6128ZM21.6893 26.1032V27.3989H22.8409V27.1335H22.014V26.8509H22.7502V26.5854H22.014V26.3696H22.8409V26.1042H21.6893V26.1032ZM23.9151 27.3989H24.2407V26.9225H24.6159C24.8079 26.9225 24.8422 26.9903 24.8422 27.2099V27.2996C24.8422 27.3369 24.8518 27.3703 24.8699 27.3989H25.2337C25.1707 27.3273 25.1707 27.2108 25.164 27.0552C25.1573 26.9072 25.1411 26.8365 25.0007 26.7793C25.1363 26.7267 25.2146 26.6036 25.2146 26.4508C25.2146 26.2063 25.0485 26.1032 24.7114 26.1032H23.9151V27.3989ZM24.2407 26.3687H24.594C24.7811 26.3687 24.8728 26.3782 24.8728 26.5023C24.8728 26.6236 24.783 26.6561 24.6083 26.6561H24.2407V26.3687ZM26.284 26.1032V27.3989H27.4346V27.1335H26.6077V26.8509H27.3439V26.5854H26.6077V26.3696H27.4346V26.1042H26.284V26.1032ZM28.5098 27.3989H29.0951C29.5486 27.3989 29.8962 27.2519 29.8962 26.7506C29.8962 26.2808 29.5735 26.1032 29.1715 26.1032H28.5088V27.3989H28.5098ZM28.8344 26.3687H29.0884C29.3882 26.3687 29.541 26.4957 29.541 26.7449C29.541 26.995 29.3873 27.1325 29.0884 27.1325H28.8344V26.3687ZM32.3778 27.3989H33.2811C33.5485 27.3989 33.7003 27.2519 33.7003 27.0294C33.7003 26.8661 33.6249 26.7582 33.475 26.7095C33.5905 26.6503 33.6516 26.551 33.6516 26.425C33.6516 26.2092 33.5065 26.1023 33.2152 26.1023H32.3778V27.398V27.3989ZM32.7025 26.849H33.1341C33.2897 26.849 33.3613 26.8881 33.3613 26.9989C33.3613 27.1163 33.2878 27.1335 33.1341 27.1335H32.7025V26.8499V26.849ZM32.7025 26.3687H33.0863C33.242 26.3687 33.3136 26.3878 33.3136 26.489C33.3136 26.5988 33.2401 26.6227 33.0863 26.6227H32.7025V26.3696V26.3687ZM34.5329 26.1023L35.0982 26.8451V27.3989H35.4228V26.8451L35.9996 26.1023H35.589L35.2682 26.5654L34.9454 26.1023H34.5329Z" fill="#BCBEC0"/>
<path d="M41.4641 27.1344H41.2263V28.0892H40.4644V25.4214H41.4307C42.1831 25.4214 42.6261 25.642 42.6261 26.2492C42.6261 26.6417 42.4342 27.1344 41.4641 27.1344ZM41.2645 25.9819V26.592H41.486C41.7247 26.592 41.8355 26.5347 41.8355 26.2445C41.8355 26.0229 41.7123 25.9809 41.529 25.9809H41.2655L41.2645 25.9819Z" fill="#00A1E4"/>
<path d="M44.1494 28.1254C43.7016 28.1254 43.3531 28.0261 43.0562 27.8848L43.3245 27.351C43.5374 27.4618 43.8563 27.564 44.158 27.564C44.456 27.564 44.5753 27.4647 44.5753 27.3205C44.5753 27.2021 44.4808 27.1524 44.2774 27.1028L43.9289 27.0226C43.4982 26.9194 43.2051 26.7103 43.2051 26.252C43.2051 25.7259 43.6902 25.3745 44.3538 25.3745C44.7663 25.3745 45.1492 25.4643 45.4137 25.6295L45.048 26.1088C44.8484 25.9904 44.5849 25.9321 44.3796 25.9321C44.1848 25.9321 44.0778 26.0162 44.0778 26.1231C44.0778 26.211 44.1456 26.2988 44.3672 26.3485L44.6689 26.4172C44.9878 26.4898 45.448 26.6187 45.448 27.1534C45.448 27.7903 44.92 28.1264 44.1504 28.1264L44.1494 28.1254Z" fill="#00A1E4"/>
<path d="M37.6058 28.093H37.9323L39.0428 26.7811L37.876 25.4204H37.5752C37.7423 25.8472 37.9724 26.3103 37.9724 26.7963C37.9724 27.2518 37.7528 27.6882 37.6058 28.093Z" fill="#00A1E4"/>
<path d="M46.7166 25.4355L46.1733 26.1078V28.0891H47.0002V25.4355H46.7166Z" fill="#00A1E4"/>
</svg>
