<svg width="60" height="40" viewBox="0 0 60 40" fill="none" xmlns="http://www.w3.org/2000/svg">
<path d="M29.4776 32.9099C36.35 32.9099 41.9211 27.3387 41.9211 20.4664C41.9211 13.5941 36.35 8.02295 29.4776 8.02295C22.6053 8.02295 17.0342 13.5941 17.0342 20.4664C17.0342 27.3387 22.6053 32.9099 29.4776 32.9099Z" fill="white"/>
<path d="M30.7335 13.3667C30.3185 13.2949 29.8981 13.2585 29.477 13.2579C29.0558 13.259 28.6355 13.2954 28.2205 13.3667C28.1576 13.3667 28.1367 13.3165 28.1828 13.2788L29.4812 12.2945L30.7753 13.2788C30.8214 13.3165 30.7963 13.3793 30.7335 13.3667ZM28.5681 19.5613C28.5491 19.5674 28.5317 19.5778 28.5172 19.5916C28.5027 19.6053 28.4915 19.6222 28.4843 19.6408C28.7482 19.8419 28.9283 20.3026 29.477 20.3026C30.0256 20.3026 30.2057 19.8419 30.4654 19.6408C30.4583 19.6222 30.447 19.6053 30.4325 19.5916C30.418 19.5778 30.4007 19.5674 30.3816 19.5613C30.0836 19.6188 29.7805 19.6455 29.477 19.6408C29.1721 19.6456 28.8675 19.619 28.5681 19.5613ZM29.477 18.7864C29.322 18.7864 29.2885 18.7278 29.188 18.7278C29.0612 18.737 28.9421 18.7921 28.8529 18.8827C28.857 18.9183 28.8716 18.9518 28.8948 18.9791C29.1168 19.0126 29.2173 19.1382 29.477 19.1382C29.7366 19.1382 29.833 19.0126 30.0549 18.9791C30.0782 18.9518 30.0928 18.9183 30.0968 18.8827C30.0087 18.793 29.8913 18.738 29.766 18.7278C29.6613 18.7278 29.6277 18.7864 29.477 18.7864ZM41.9623 21.1528C41.9623 21.4502 41.9204 21.7476 41.8827 22.0407C40.4671 22.2753 39.9603 21.0146 38.5111 21.0774C38.5982 21.386 38.6681 21.6993 38.7206 22.0156C39.9184 22.0156 40.3959 23.1339 41.7319 22.9705C41.6607 23.3098 41.577 23.649 41.4806 23.9799C40.4294 24.0846 40.0566 23.0375 38.842 23.0669C38.842 23.2428 38.842 23.4145 38.842 23.5904C38.842 23.6909 38.842 23.7873 38.842 23.8836C39.8807 23.8836 40.2158 24.8301 41.2084 24.7883C41.0828 25.1233 40.9445 25.45 40.7896 25.7725C40.0776 25.7348 39.8346 24.8218 38.7499 24.8972C38.7206 25.1275 38.6787 25.3621 38.6284 25.5882C39.5666 25.5212 39.7718 26.3882 40.4419 26.4552C40.2716 26.7707 40.0873 27.0765 39.8891 27.3724C39.4912 27.1588 39.1561 26.5138 38.4022 26.472C38.4818 26.2332 38.5488 25.9903 38.6075 25.7432C37.8297 25.7332 37.0834 25.4347 36.5133 24.9055C36.7227 23.7202 34.8799 22.514 34.8799 21.6428C34.8799 20.7005 35.3573 20.1769 35.3573 18.9037C35.3242 17.9016 34.9144 16.9489 34.2097 16.2357C34.0845 16.1048 33.9438 15.9895 33.7909 15.8923C34.4799 16.6658 34.8783 17.655 34.9176 18.6901C34.9176 19.8879 34.3563 20.5204 34.3563 21.6219C34.3563 22.7234 35.973 23.6825 35.973 24.8218C35.973 25.2741 35.8306 25.7097 35.3573 26.5725C35.9604 27.2056 36.7701 27.6023 37.64 27.6908C37.7176 27.7023 37.7969 27.6876 37.8652 27.6489C37.9335 27.6102 37.9869 27.5497 38.0169 27.4772C38.0756 27.3431 38.1342 27.2049 38.1886 27.0583C38.8462 27.0835 39.1478 27.6782 39.5121 27.9169C39.3111 28.1961 39.1017 28.4558 38.8839 28.6959C38.6215 28.3213 38.2564 28.0304 37.8326 27.8583C37.7447 28.0258 37.6567 28.1892 37.5604 28.3525C37.9399 28.5187 38.2588 28.7981 38.4734 29.1525C38.2389 29.3996 37.9918 29.6341 37.7363 29.8561C37.561 29.5665 37.327 29.3169 37.0494 29.1232C36.9489 29.2614 36.84 29.3996 36.7311 29.542C36.9698 29.729 37.1679 29.9627 37.3133 30.2289C37.0159 30.4634 36.7102 30.6896 36.396 30.899C36.2411 29.6425 34.5071 28.7588 34.972 27.2845C34.7748 27.5738 34.6591 27.9109 34.637 28.2604C34.637 29.3284 35.772 30.1744 35.8641 31.2341C35.6296 31.3765 35.3867 31.5063 35.1437 31.632C35.1019 30.4676 33.8872 29.1944 33.8872 28.2352C33.8872 27.1672 35.282 26.095 35.282 24.8343C35.282 23.5737 33.6695 22.7025 33.6695 21.5968C33.6695 20.4911 34.3563 19.8544 34.3563 18.4346C34.3494 17.9126 34.2342 17.3977 34.0179 16.9226C33.8016 16.4475 33.489 16.0225 33.0998 15.6745C32.9736 15.5578 32.8328 15.4579 32.681 15.3771C33.4112 16.1386 33.8181 17.1534 33.816 18.2084C33.816 19.5403 33.0328 20.2816 33.0328 21.5884C33.0328 22.8951 34.616 23.6197 34.616 24.8343C34.616 26.0489 33.1417 27.0793 33.1417 28.3316C33.1417 29.4666 34.4401 30.6016 34.4569 31.9545C34.1776 32.0773 33.8886 32.1904 33.5899 32.2937C33.7574 30.9283 32.2957 29.521 32.2957 28.4111C32.2957 27.1923 33.8244 26.1495 33.8244 24.8343C33.8244 23.5192 32.2706 22.9161 32.2706 21.5675C32.2706 20.2188 33.2213 19.4733 33.2213 17.9906C33.2188 17.4401 33.0908 16.8975 32.8469 16.4039C32.603 15.9104 32.2498 15.479 31.814 15.1426L31.7596 15.1007C31.6842 15.0421 31.6172 15.1007 31.6716 15.1845C32.2871 15.9052 32.6112 16.8298 32.5805 17.777C32.5805 19.1382 31.4874 20.2398 31.4874 21.5465C31.4874 23.1046 32.9574 23.5485 32.9574 24.8218C32.9574 26.095 31.3826 27.117 31.3826 28.4823C31.3826 29.7388 32.8779 31.1335 32.6391 32.5869C32.3376 32.6623 32.036 32.7293 31.7261 32.7837C32.0067 30.9786 30.545 29.6802 30.545 28.5033C30.545 27.2217 32.1742 26.0824 32.1742 24.8301C32.1742 23.6532 31.0057 23.2679 30.8507 22.0617C30.8473 22.0222 30.8356 21.9838 30.8165 21.949C30.7974 21.9143 30.7712 21.8839 30.7397 21.8598C30.7081 21.8358 30.6719 21.8186 30.6333 21.8094C30.5948 21.8001 30.5547 21.799 30.5157 21.8062C30.1851 21.9169 29.8416 21.9844 29.4937 22.0072C29.1376 21.9781 28.787 21.9021 28.4508 21.7811C28.4118 21.7739 28.3717 21.775 28.3332 21.7842C28.2946 21.7935 28.2584 21.8107 28.2268 21.8347C28.1953 21.8588 28.1691 21.8891 28.15 21.9239C28.1308 21.9587 28.1192 21.997 28.1158 22.0365C27.965 23.2428 26.7923 23.6281 26.7923 24.805C26.7923 26.0615 28.4257 27.1965 28.4257 28.4782C28.4257 29.6551 26.9598 30.9534 27.2404 32.7586C26.9347 32.7042 26.6289 32.6371 26.3315 32.5618C26.0719 31.1084 27.588 29.7137 27.588 28.4572C27.588 27.1044 26.009 26.0824 26.009 24.805C26.009 23.5276 27.4791 23.0878 27.4791 21.5298C27.4791 20.2104 26.386 19.1089 26.386 17.7603C26.3553 16.813 26.6794 15.8885 27.2949 15.1677C27.3493 15.0965 27.2949 15.0253 27.2069 15.084L27.1525 15.1258C26.7174 15.4629 26.3646 15.8944 26.1209 16.3878C25.8771 16.8812 25.7486 17.4236 25.7452 17.9739C25.7452 19.4607 26.7001 20.2063 26.7001 21.5507C26.7001 22.8951 25.1463 23.5066 25.1463 24.8176C25.1463 26.1285 26.6708 27.1756 26.6708 28.3944C26.6708 29.5043 25.2091 30.9074 25.3766 32.277C25.0974 32.1736 24.8084 32.0606 24.5096 31.9377C24.5096 30.5849 25.8248 29.4498 25.8248 28.3148C25.8248 27.0583 24.3547 26.0364 24.3547 24.8176C24.3547 23.5988 25.9378 22.8784 25.9378 21.5716C25.9378 20.2649 25.1504 19.5236 25.1504 18.1917C25.1484 17.1366 25.5552 16.1219 26.2855 15.3604C26.1337 15.4411 25.9929 15.5411 25.8666 15.6578C25.4775 16.0057 25.1649 16.4307 24.9486 16.9059C24.7323 17.381 24.617 17.8959 24.6102 18.4178C24.6102 19.8377 25.297 20.4743 25.297 21.58C25.297 22.6857 23.6845 23.5569 23.6845 24.8176C23.6845 26.0783 25.0834 27.1505 25.0834 28.2185C25.0834 29.1776 23.8772 30.4508 23.8269 31.6152C23.5798 31.4895 23.3411 31.3597 23.1024 31.2173C23.1945 30.1577 24.3295 29.3116 24.3295 28.2436C24.3074 27.8942 24.1917 27.5571 23.9945 27.2677C24.4594 28.742 22.738 29.6132 22.5704 30.8822C22.2563 30.6728 21.9506 30.4634 21.6532 30.2121C21.7986 29.946 21.9967 29.7123 22.2354 29.5252C22.1265 29.3954 22.0176 29.2572 21.9171 29.1064C21.6395 29.3001 21.4055 29.5498 21.2302 29.8394C20.9747 29.6174 20.7276 29.3828 20.493 29.1357C20.7077 28.7814 21.0266 28.502 21.4061 28.3358C21.314 28.1724 21.2218 28.0091 21.138 27.8415C20.7131 28.0136 20.3467 28.3044 20.0826 28.6792C19.8648 28.4279 19.6554 28.1682 19.4543 27.9002C19.8187 27.6614 20.1203 27.0625 20.7779 27.0416C20.8323 27.1756 20.8909 27.3138 20.9496 27.4604C20.9802 27.5325 21.0337 27.5925 21.1018 27.6311C21.17 27.6698 21.2489 27.6848 21.3265 27.674C22.1831 27.5819 22.9796 27.1903 23.5756 26.5683C23.1024 25.7055 22.96 25.2699 22.96 24.8176C22.96 23.6784 24.5766 22.7234 24.5766 21.6177C24.5766 20.512 24.0196 19.8796 24.0196 18.6859C24.0574 17.6512 24.4543 16.662 25.1421 15.8881C24.989 15.9851 24.8484 16.1005 24.7232 16.2316C24.0185 16.943 23.6086 17.8944 23.5756 18.8953C23.5756 20.1518 24.0531 20.6921 24.0531 21.6345C24.0531 22.5056 22.2103 23.7286 22.4197 24.8972C21.8505 25.4277 21.1036 25.7265 20.3255 25.7348C20.38 25.9819 20.4512 26.2248 20.5266 26.4636C19.7727 26.5055 19.425 27.1505 19.0271 27.3641C18.8289 27.0653 18.6446 26.7596 18.4743 26.4468C19.1695 26.3882 19.3873 25.5212 20.3088 25.5882C20.2585 25.3621 20.2208 25.1275 20.1873 24.8972C19.1067 24.8218 18.8596 25.7348 18.1476 25.7725C17.9968 25.45 17.8586 25.1233 17.7288 24.7883C18.7256 24.8343 19.0606 23.8752 20.0993 23.8752C20.0993 23.7789 20.0993 23.6825 20.0993 23.582C20.0993 23.4061 20.0993 23.2344 20.0993 23.0585C18.8931 23.0375 18.5245 24.0846 17.4691 23.9799C17.3728 23.649 17.289 23.3098 17.222 22.9705C18.5497 23.1339 19.0313 22.0156 20.225 22.0156C20.2775 21.6993 20.3474 21.386 20.4344 21.0774C18.9853 21.0146 18.4785 22.2753 17.0838 22.0407C17.0461 21.7476 17.0209 21.4502 17.0042 21.1528C18.6502 21.3371 19.2659 19.9843 20.7737 20.1476C20.9157 19.7917 21.0793 19.4448 21.2637 19.1089C19.3873 18.7822 18.7507 20.3654 17 20.1099C17.1029 16.8633 18.465 13.7841 20.798 11.524C23.131 9.2638 26.2518 8 29.5 8C32.7482 8 35.869 9.2638 38.202 11.524C40.535 13.7841 41.8971 16.8633 42 20.1099C40.2535 20.3487 39.6169 18.7822 37.7363 19.1089C37.9223 19.444 38.0861 19.791 38.2263 20.1476C39.7006 19.9843 40.3289 21.3371 41.9623 21.1528ZM24.0992 15.9174C23.6122 15.727 23.0864 15.6569 22.5666 15.713C22.0467 15.7692 21.548 15.9499 21.1129 16.2399C21.0498 15.8115 20.9017 15.3999 20.6773 15.0295C20.4529 14.6591 20.1567 14.3373 19.8062 14.083C19.7885 14.0681 19.7667 14.0591 19.7437 14.057C19.7208 14.0549 19.6977 14.0599 19.6776 14.0713C19.6576 14.0827 19.6415 14.0999 19.6315 14.1207C19.6216 14.1415 19.6182 14.1649 19.6219 14.1877C19.7685 16.0598 18.6753 17.6849 17.3267 19.1131C18.713 19.5319 19.8941 17.7435 21.6951 18.3676C22.3398 17.4107 23.1547 16.5802 24.0992 15.9174ZM29.477 14.7866C28.3126 14.7866 27.3409 15.4441 27.0854 16.2902C27.0854 16.3572 27.0854 16.3991 27.1692 16.3656C27.3916 16.2712 27.6313 16.2241 27.8728 16.2274C28.0862 16.215 28.2997 16.2499 28.4981 16.3296C28.6964 16.4092 28.8748 16.5316 29.0204 16.6881C29.1359 17.0733 29.1359 17.4839 29.0204 17.8692C28.8236 17.8273 28.7524 17.6723 28.5639 17.6723C28.3754 17.6723 28.2247 17.8105 27.9022 17.8105C27.5797 17.8105 27.542 17.6556 27.3326 17.6556C27.1231 17.6556 27.0352 17.9152 27.0352 18.2042C27.0352 19.4984 28.2247 21.2785 29.4895 21.2785C30.7544 21.2785 31.9397 19.4984 31.9397 18.2042C31.9397 17.9152 31.8811 17.664 31.6214 17.6304C31.4673 17.7567 31.2716 17.8209 31.0727 17.8105C30.7502 17.8105 30.6539 17.6723 30.4696 17.6723C30.2853 17.6723 30.2644 18.1582 29.9921 18.1875C29.8103 17.7065 29.7956 17.1784 29.9502 16.6881C30.0938 16.5305 30.2703 16.4064 30.4671 16.3246C30.664 16.2428 30.8765 16.2053 31.0895 16.2148C31.3311 16.2108 31.5709 16.2579 31.7931 16.353C31.8685 16.3865 31.8936 16.353 31.8769 16.2776C31.6088 15.4316 30.6371 14.774 29.477 14.774V14.7866ZM31.324 16.6294C31.1744 16.6245 31.0254 16.6498 30.8858 16.7038C30.7462 16.7578 30.6189 16.8393 30.5115 16.9436C30.4843 17.0136 30.4843 17.0913 30.5115 17.1614C31.0141 16.9896 31.4622 16.9813 31.6758 17.22C31.7225 17.1838 31.7603 17.1375 31.7864 17.0845C31.8126 17.0315 31.8263 16.9733 31.8266 16.9142C31.8392 16.7551 31.6674 16.6294 31.324 16.6294ZM27.2655 17.22C27.5085 16.9771 28.0194 16.9896 28.5513 17.1865C28.5765 16.9184 28.1032 16.6294 27.6257 16.6294C27.2823 16.6294 27.1106 16.7467 27.1106 16.9142C27.1111 16.9737 27.1253 17.0323 27.1522 17.0853C27.1791 17.1383 27.2179 17.1844 27.2655 17.22ZM35.2652 12.8432C34.4039 12.8908 33.5793 13.2072 32.9072 13.7479C33.1697 13.0075 33.5258 12.3038 33.9668 11.6537C32.897 11.7237 31.8865 12.1703 31.1146 12.9144L30.5575 11.4569L31.7931 10.3637L30.1178 10.2465L29.477 8.70516L28.8152 10.2465L27.1399 10.3637L28.3964 11.4569L27.8393 12.9144C27.0689 12.1633 26.0564 11.7105 24.9829 11.637C25.4239 12.287 25.78 12.9908 26.0426 13.7311C25.3725 13.1898 24.5489 12.8733 23.6887 12.8265C24.2428 13.5246 24.711 14.2867 25.0834 15.0965C25.0917 15.1177 25.1045 15.1369 25.121 15.1525C25.1375 15.1682 25.1572 15.1801 25.1788 15.1873C25.2004 15.1945 25.2233 15.1968 25.2459 15.1942C25.2685 15.1915 25.2903 15.1839 25.3096 15.1719C26.605 14.53 28.0312 14.196 29.477 14.196C30.9227 14.196 32.3489 14.53 33.6443 15.1719C33.6633 15.1839 33.6848 15.1915 33.7071 15.1941C33.7294 15.1968 33.752 15.1944 33.7733 15.1872C33.7946 15.18 33.814 15.1681 33.8301 15.1524C33.8462 15.1367 33.8585 15.1176 33.8663 15.0965C34.2398 14.2916 34.7095 13.535 35.2652 12.8432ZM37.263 18.3676C39.064 17.7435 40.2451 19.5277 41.6314 19.1131C40.287 17.6849 39.1896 16.0598 39.3362 14.1877C39.3399 14.1649 39.3365 14.1415 39.3266 14.1207C39.3166 14.0999 39.3005 14.0827 39.2805 14.0713C39.2604 14.0599 39.2374 14.0549 39.2144 14.057C39.1914 14.0591 39.1696 14.0681 39.152 14.083C38.8019 14.3357 38.5054 14.6554 38.2797 15.0235C38.054 15.3916 37.9034 15.8007 37.8368 16.2274C37.4007 15.9394 36.9015 15.7609 36.3816 15.7069C35.8618 15.653 35.3366 15.7252 34.8506 15.9174C35.798 16.5794 36.6158 17.4099 37.263 18.3676Z" fill="#006241"/>
</svg>
