<svg width="96" height="40" viewBox="0 0 96 40" fill="none" xmlns="http://www.w3.org/2000/svg">
<g filter="url(#filter0_d)">
<path d="M82.6399 21.7785C77.5021 28.4682 72.98 31.2043 72.98 31.2043C72.98 31.2043 78.9232 30.1775 83.5122 26.2042C87.7894 22.5003 91.1766 17.3331 91.9073 10.7505C92.9193 1.63454 85.2805 2.72523 85.2805 2.72523C85.2805 2.72523 89.1535 2.87374 88.5379 8.84552C88.1445 12.6556 86.8531 16.2935 82.6408 21.7785H82.6399Z" fill="#EC1C24"/>
<path d="M74.4273 19.9551C72.5223 23.241 68.8155 25.9898 67.3383 25.1676C66.1286 24.4949 66.2151 21.9772 66.4679 20.619C66.9223 18.174 68.1959 13.3716 72.4102 8.69115C79.2474 1.09858 85.2693 1.17877e-05 85.2693 1.17877e-05C85.2693 1.17877e-05 81.775 -0.0265426 76.5103 2.44104C73.8461 3.69008 70.9074 5.94818 68.2549 8.93604C62.5841 15.3219 61.8986 21.4756 61.936 24.1704C61.9556 25.6505 62.1179 27.4601 62.7306 28.6669C63.66 30.4795 64.8973 31.1364 66.5289 31.1502C68.6355 31.166 71.1208 29.5894 73.5146 26.3645C75.4324 23.7789 77.3994 19.4899 79.5897 11.3771C80.6273 7.52866 82.9031 5.37284 82.9031 5.37284C82.9031 5.37284 80.3204 6.93168 78.4665 10.9158C77.0434 13.9725 76.3323 16.6702 74.4283 19.9561L74.4273 19.9551Z" fill="#EC1C24"/>
<path d="M77.9833 8.98139C77.9833 8.71093 77.8899 8.47981 77.7001 8.28901C77.5113 8.10018 77.2801 8.00478 77.0126 8.00478C76.7412 8.00478 76.513 8.10018 76.3222 8.28901C76.1354 8.47981 76.04 8.71093 76.04 8.98139C76.04 9.25087 76.1354 9.48002 76.3222 9.66787C76.513 9.8567 76.7412 9.95308 77.0126 9.95308C77.2811 9.95308 77.5113 9.85769 77.7001 9.66689C77.8889 9.47904 77.9833 9.2489 77.9833 8.98139ZM78.1771 8.98139C78.1771 9.30103 78.064 9.57542 77.8358 9.80556C77.6086 10.0308 77.3333 10.1459 77.0126 10.1459C76.6891 10.1459 76.4147 10.0327 76.1855 9.80654C75.9564 9.57936 75.8433 9.30496 75.8433 8.98139C75.8433 8.65782 75.9573 8.38146 76.1855 8.15428C76.4137 7.92512 76.6891 7.81104 77.0126 7.81104C77.3372 7.81104 77.6126 7.92512 77.8378 8.15428C78.064 8.38146 78.1761 8.65782 78.1761 8.98139H78.1771Z" fill="#2B2A29"/>
<path d="M76.7596 8.5466V8.96753H77.1107C77.2651 8.96753 77.333 8.87016 77.333 8.761C77.333 8.65576 77.2661 8.5466 77.1137 8.5466H76.7596ZM77.572 9.53501H77.3566L77.0045 9.13669H76.7586V9.53501H76.5747V8.37842C76.7547 8.37842 76.9327 8.3794 77.1127 8.3794C77.3802 8.3794 77.5218 8.56331 77.5218 8.75608C77.5218 8.92229 77.4353 9.08457 77.2071 9.11801L77.5523 9.50157L77.572 9.53501Z" fill="#2B2A29"/>
<path d="M9.04624 25.5627V25.2352H10.1881V25.424C10.1881 26.1075 9.83205 26.5589 9.13279 26.5589C8.43451 26.5589 7.9585 26.1085 7.9585 25.3404C7.9585 24.5733 8.43549 24.0854 9.13279 24.0854C9.55077 24.0854 9.87139 24.2231 10.0819 24.5329L9.76517 24.7906C9.61568 24.5615 9.41603 24.4523 9.13279 24.4523C8.73251 24.4523 8.3873 24.7287 8.3873 25.3217C8.3873 25.9403 8.73251 26.1911 9.13279 26.1911C9.55471 26.1911 9.76911 25.958 9.76911 25.5617H9.04526L9.04624 25.5627Z" fill="#2B2A29"/>
<path d="M12.3227 26.1926C12.785 26.1926 13.0643 25.8582 13.0643 25.3232C13.0643 24.7852 12.784 24.4538 12.3227 24.4538C11.8684 24.4538 11.5772 24.7852 11.5772 25.3232C11.5772 25.8582 11.8684 26.1926 12.3227 26.1926ZM12.3227 24.0869C13.0466 24.0869 13.4941 24.5855 13.4941 25.3232C13.4941 26.0647 13.0466 26.5604 12.3227 26.5604C11.5949 26.5604 11.1484 26.0657 11.1484 25.3232C11.1484 24.5846 11.5959 24.0869 12.3227 24.0869Z" fill="#2B2A29"/>
<path d="M14.5015 24.1411H14.9234V25.4216C14.9234 25.8907 15.065 26.1779 15.5125 26.1779C15.9708 26.1779 16.1055 25.8907 16.1055 25.4216V24.1411H16.5275V25.5337C16.5275 26.2281 16.1016 26.5595 15.5204 26.5595C14.9421 26.5595 14.5015 26.2291 14.5015 25.5337V24.1411Z" fill="#2B2A29"/>
<path d="M18.3391 25.3449C18.7315 25.3449 18.9537 25.2397 18.9537 24.9053C18.9537 24.567 18.703 24.4942 18.3391 24.4942H18.0411V25.3449H18.3391ZM18.0411 26.5054H17.6191V24.1411H18.4443C18.9714 24.1411 19.3757 24.3594 19.3757 24.9053C19.3757 25.2544 19.1937 25.4875 18.9429 25.6036L19.5143 26.5054H19.0049L18.5318 25.6872C18.4954 25.6911 18.4885 25.694 18.4443 25.694H18.0401V26.5054H18.0411Z" fill="#2B2A29"/>
<path d="M20.9248 25.0976V26.505H20.5029V24.0679H20.5216L21.7215 25.5234L22.9154 24.0679H22.9331V26.505H22.5152V25.0976L21.7333 26.0722H21.7038L20.9248 25.0976Z" fill="#2B2A29"/>
<path d="M24.0605 24.1411H25.6577V24.5011H24.4825V25.1266H25.4571V25.4728H24.4825V26.1455H25.6941V26.5054H24.0605V24.1411Z" fill="#2B2A29"/>
<path d="M28.5634 24.5011H27.8071V26.5054H27.3852V24.5011H26.6279V24.1411H28.5634V24.5011Z" fill="#2B2A29"/>
<path d="M32.2178 26.1926C32.5011 26.1926 32.7086 26.0795 32.861 25.8474L33.1669 26.0696C32.9564 26.4119 32.6329 26.5604 32.21 26.5604C31.5117 26.5604 31.0317 26.11 31.0317 25.3419C31.0317 24.5747 31.5077 24.0869 32.206 24.0869C32.624 24.0869 32.923 24.2364 33.1374 24.5521L32.8355 24.7881C32.6683 24.5413 32.4903 24.4538 32.206 24.4538C31.8057 24.4538 31.4605 24.7301 31.4605 25.3232C31.4605 25.9418 31.8166 26.1926 32.2169 26.1926H32.2178Z" fill="#2B2A29"/>
<path d="M35.2524 26.1926C35.7147 26.1926 35.994 25.8582 35.994 25.3232C35.994 24.7852 35.7137 24.4538 35.2524 24.4538C34.798 24.4538 34.5069 24.7852 34.5069 25.3232C34.5069 25.8582 34.798 26.1926 35.2524 26.1926ZM35.2524 24.0869C35.9763 24.0869 36.4238 24.5855 36.4238 25.3232C36.4238 26.0647 35.9763 26.5604 35.2524 26.5604C34.5246 26.5604 34.0781 26.0657 34.0781 25.3232C34.0781 24.5846 34.5256 24.0869 35.2524 24.0869Z" fill="#2B2A29"/>
<path d="M37.4673 24.1411H39.0458V24.5011H37.8892V25.1413H38.7547V25.4865H37.8892V26.5054H37.4673V24.1411Z" fill="#2B2A29"/>
<path d="M40.0635 24.1411H41.643V24.5011H40.4864V25.1413H41.3519V25.4865H40.4864V26.5054H40.0635V24.1411Z" fill="#2B2A29"/>
<path d="M42.6616 24.1411H44.2588V24.5011H43.0835V25.1266H44.0582V25.4728H43.0835V26.1455H44.2942V26.5054H42.6616V24.1411Z" fill="#2B2A29"/>
<path d="M45.3384 24.1411H46.9346V24.5011H45.7603V25.1266H46.7349V25.4728H45.7603V26.1455H46.972V26.5054H45.3384V24.1411Z" fill="#2B2A29"/>
<path d="M50.6524 26.1926C50.9366 26.1926 51.1432 26.0795 51.2966 25.8474L51.6015 26.0696C51.39 26.4119 51.0674 26.5604 50.6455 26.5604C49.9472 26.5604 49.4663 26.11 49.4663 25.3419C49.4663 24.5747 49.9433 24.0869 50.6416 24.0869C51.0596 24.0869 51.3576 24.2364 51.573 24.5521L51.271 24.7881C51.1038 24.5413 50.9258 24.4538 50.6426 24.4538C50.2423 24.4538 49.8971 24.7301 49.8971 25.3232C49.8971 25.9418 50.2531 26.1926 50.6534 26.1926H50.6524Z" fill="#2B2A29"/>
<path d="M53.685 26.1926C54.1473 26.1926 54.4276 25.8582 54.4276 25.3232C54.4276 24.7852 54.1473 24.4538 53.685 24.4538C53.2307 24.4538 52.9395 24.7852 52.9395 25.3232C52.9395 25.8582 53.2307 26.1926 53.685 26.1926ZM53.685 24.0869C54.4089 24.0869 54.8564 24.5855 54.8564 25.3232C54.8564 26.0647 54.4089 26.5604 53.685 26.5604C52.9582 26.5604 52.5107 26.0657 52.5107 25.3232C52.5107 24.5846 52.9582 24.0869 53.685 24.0869Z" fill="#2B2A29"/>
<path d="M55.9009 26.5054V24.1411H56.3228V26.1238H57.4863V26.5054H55.9009Z" fill="#2B2A29"/>
<path d="M58.5054 26.5054V24.1411H58.9273V26.1238H60.0908V26.5054H58.5054Z" fill="#2B2A29"/>
<path d="M61.1084 24.1411H62.7056V24.5011H61.5303V25.1266H62.5059V25.4728H61.5303V26.1455H62.742V26.5054H61.1084V24.1411Z" fill="#2B2A29"/>
<path d="M64.8223 26.1926C65.1065 26.1926 65.3141 26.0795 65.4665 25.8474L65.7724 26.0696C65.5609 26.4119 65.2373 26.5604 64.8154 26.5604C64.1172 26.5604 63.6372 26.11 63.6372 25.3419C63.6372 24.5747 64.1132 24.0869 64.8115 24.0869C65.2295 24.0869 65.5275 24.2364 65.7429 24.5521L65.4409 24.7881C65.2737 24.5413 65.0957 24.4538 64.8115 24.4538C64.4112 24.4538 64.066 24.7301 64.066 25.3232C64.066 25.9418 64.422 26.1926 64.8223 26.1926Z" fill="#2B2A29"/>
<path d="M68.6455 24.5011H67.8892V26.5054H67.4673V24.5011H66.71V24.1411H68.6455V24.5011Z" fill="#2B2A29"/>
<path d="M70.0855 26.5054H69.6636V24.1411H70.0855V26.5054Z" fill="#2B2A29"/>
<path d="M72.3047 26.1926C72.7669 26.1926 73.0472 25.8582 73.0472 25.3232C73.0472 24.7852 72.7669 24.4538 72.3047 24.4538C71.8503 24.4538 71.5592 24.7852 71.5592 25.3232C71.5592 25.8582 71.8503 26.1926 72.3047 26.1926ZM72.3047 24.0869C73.0285 24.0869 73.476 24.5855 73.476 25.3232C73.476 26.0647 73.0285 26.5604 72.3047 26.5604C71.5779 26.5604 71.1304 26.0657 71.1304 25.3232C71.1304 24.5846 71.5779 24.0869 72.3047 24.0869Z" fill="#2B2A29"/>
<path d="M74.9419 24.9992V26.505H74.52V24.0679H74.5377L76.1379 25.6434V24.1407H76.5598V26.5777H76.5421L74.9419 24.9992Z" fill="#2B2A29"/>
<path d="M8.07757 13.7612C8.10805 16.1324 9.23022 16.928 10.3671 16.9103C11.3801 16.8956 12.3027 16.0055 12.3027 14.37V7.82677H8.07757V3.93213H16.812V14.3473C16.812 18.0876 14.4034 20.7902 10.4291 20.8217C6.7528 20.8502 4 18.4219 4 13.7612H8.07757Z" fill="#2B2A29"/>
<path d="M22.4859 15.0136C22.4859 16.5852 23.4871 17.4733 24.7391 17.4733C26.1524 17.4733 27.0621 16.3344 27.0621 15.0136C27.0621 13.5108 26.2193 12.5313 24.7391 12.5313C23.4861 12.5313 22.4859 13.441 22.4859 15.0136ZM27.0838 9.38702H31.2321V20.6402H27.1772V19.4334C26.2203 20.5261 24.7175 20.9136 23.4655 20.8447C20.1619 20.6402 18.3169 18.2935 18.3169 15.0136C18.3169 11.6884 20.5032 9.13623 23.7822 9.13623C25.3764 9.13623 26.4946 9.68305 27.0867 10.5938L27.0838 9.38604V9.38702Z" fill="#2B2A29"/>
<path d="M37.4276 9.3867L37.4286 10.617C38.0217 9.56963 39.0701 9.1123 40.1637 9.1123C41.2013 9.1123 42.2546 9.44276 42.9706 10.1637L41.5062 13.3276C40.8974 12.8594 40.3585 12.6676 39.672 12.6676C38.6226 12.6676 37.6125 13.3049 37.6125 14.7871V20.6398H33.4219V9.3867H37.4276Z" fill="#2B2A29"/>
<path d="M47.4234 14.9905C47.4234 16.5621 48.4266 17.4502 49.6786 17.4502C51.0919 17.4502 51.9337 16.2887 51.9337 15.1046C51.9337 13.7365 51.1587 12.5072 49.6786 12.5072C48.4266 12.5072 47.4234 13.4179 47.4234 14.9895V14.9905ZM51.8423 3.93896H56.0329V20.6161H52.1167V19.4093C51.1587 20.503 49.655 20.8895 48.403 20.8216C45.1004 20.6161 43.2544 18.5438 43.2544 14.9905C43.2544 11.5512 45.4407 9.11313 48.7207 9.11313C50.1556 9.11313 51.2266 9.56848 51.8413 10.3209V3.93995L51.8423 3.93896Z" fill="#2B2A29"/>
<path d="M62.4389 9.38184H58.2236V20.6399H62.4389V9.38184Z" fill="#2B2A29"/>
<path d="M72.3098 20.6402V14.5897C72.3098 13.2 71.4778 12.5549 70.6044 12.5549C69.6013 12.5549 68.8017 13.2364 68.8017 14.7176V20.6402H64.6562V9.38702H68.547L68.5519 10.6174C69.5098 9.50012 70.8228 9.09099 72.0069 9.11263C74.3771 9.13623 76.5024 10.3892 76.5024 14.3989V20.6392H72.3098V20.6402Z" fill="#2B2A29"/>
<path d="M62.4657 5.86346C62.4657 6.94825 61.5107 7.82651 60.3315 7.82651C59.1503 7.82651 58.1934 6.94825 58.1934 5.86346C58.1934 4.77866 59.1503 3.89844 60.3315 3.89844C61.5107 3.89844 62.4657 4.77866 62.4657 5.86346Z" fill="#2B2A29"/>
</g>
<defs>
<filter id="filter0_d" x="0" y="0" width="95.9997" height="39.2043" filterUnits="userSpaceOnUse" color-interpolation-filters="sRGB">
<feFlood flood-opacity="0" result="BackgroundImageFix"/>
<feColorMatrix in="SourceAlpha" type="matrix" values="0 0 0 0 0 0 0 0 0 0 0 0 0 0 0 0 0 0 127 0"/>
<feOffset dy="4"/>
<feGaussianBlur stdDeviation="2"/>
<feColorMatrix type="matrix" values="0 0 0 0 0 0 0 0 0 0 0 0 0 0 0 0 0 0 0.25 0"/>
<feBlend mode="normal" in2="BackgroundImageFix" result="effect1_dropShadow"/>
<feBlend mode="normal" in="SourceGraphic" in2="effect1_dropShadow" result="shape"/>
</filter>
</defs>
</svg>
