<svg width="61" height="28" viewBox="0 0 61 28" fill="none" xmlns="http://www.w3.org/2000/svg">
<path d="M0 19.7874C0.483609 19.7362 0.781893 19.655 0.896618 19.5403C1.01134 19.4255 1.06782 19.279 1.06782 19.1008V1.35905C1.06782 1.18078 1.01134 1.03429 0.896618 0.92133C0.781893 0.808371 0.483609 0.725416 0 0.674231V0.215332H7.85776V0.674231C7.37415 0.725416 7.07587 0.808371 6.96114 0.92133C6.84642 1.03605 6.78994 1.18078 6.78994 1.35905V19.1008C6.78994 19.279 6.84818 19.4255 6.96114 19.5403C7.07587 19.655 7.37415 19.7362 7.85776 19.7874V20.2445H0V19.7874Z" fill="#808285"/>
<path d="M20.2855 10.0603C19.8919 9.70376 19.5742 9.29781 19.3359 8.84244H16.1007V4.48643H23.5895C24.6574 4.48643 25.4375 4.65058 25.9335 4.9771C26.2317 5.17655 26.4383 5.44836 26.5583 5.79253C26.8654 5.89137 27.236 5.97256 27.672 6.03257C28.3833 6.13141 29.2058 6.2126 30.1112 6.27261C30.7025 6.3132 31.3114 6.36792 31.9274 6.43322C31.9097 5.64603 31.7615 4.88709 31.472 4.15638C31.1667 3.38331 30.7095 2.70555 30.1006 2.11957C29.4899 1.53536 28.7274 1.07293 27.8149 0.726993C26.9007 0.384583 25.8452 0.213379 24.6521 0.213379H9.3125V0.672278C9.79434 0.723463 10.0944 0.806417 10.2091 0.919377C10.3238 1.0341 10.3803 1.17883 10.3803 1.3571V19.1006C10.3803 19.2789 10.3238 19.4254 10.2091 19.5383C10.0944 19.653 9.79434 19.7342 9.3125 19.7854V20.2425H17.1685V19.7854C16.6867 19.736 16.3884 19.653 16.2754 19.5383C16.1607 19.4254 16.1042 19.2789 16.1042 19.1024V12.8984H24.6574C25.5346 12.8984 26.3359 12.8049 27.0613 12.6195C25.8311 12.466 24.6591 12.2153 23.5737 11.8729C22.2711 11.4617 21.168 10.8528 20.289 10.0603H20.2855Z" fill="#808285"/>
<path d="M32.3632 3.78415C32.3897 3.85299 32.4567 4.02772 32.4532 4.02772C33.3781 4.15303 34.0594 4.28011 34.8095 4.46897C35.572 4.65782 36.2003 4.87315 36.6963 5.11672C37.1922 5.35853 37.4393 5.59151 37.4393 5.82272V6.23926L37.8965 6.46694L40.5245 1.17902L40.1045 1.02546C39.9774 1.17902 39.8362 1.31139 39.6862 1.42435C39.5344 1.53908 39.3314 1.59556 39.0755 1.59556C38.8231 1.59556 38.4048 1.51437 37.8188 1.34846C37.2346 1.18431 36.5109 1.00075 35.6478 0.797778C34.7848 0.594804 33.7946 0.411244 32.6774 0.247099C31.5601 0.0829548 30.3546 0 29.0574 0C28.925 0 28.7961 0.001765 28.6655 0.00529499C29.4704 0.367119 30.1693 0.829548 30.7482 1.38376C31.4613 2.06681 32.0049 2.87341 32.3632 3.78239V3.78415Z" fill="#D71920"/>
<path d="M40.1301 10.869C39.6729 10.1436 39.0764 9.56114 38.3404 9.11636C37.6044 8.67158 36.7678 8.33624 35.8288 8.10855C34.8898 7.8791 33.9261 7.70084 32.936 7.57376C31.944 7.44668 30.9821 7.35137 30.0431 7.28783C29.1041 7.22429 28.2658 7.1431 27.5315 7.04073C26.7955 6.94012 26.1972 6.78127 25.7418 6.56595C25.3253 6.36827 25.1011 6.08057 25.0641 5.70463C24.7923 5.60226 24.321 5.50342 23.5321 5.50342H19.8785C19.8309 5.80347 19.8044 6.11234 19.8044 6.43357C19.8044 7.65142 20.1909 8.60804 20.964 9.30522C21.7371 10.0042 22.7078 10.5372 23.8727 10.9043C25.0394 11.2732 26.2943 11.5256 27.6392 11.6668C28.9824 11.8045 30.239 11.9315 31.4057 12.0463C32.5724 12.161 33.5413 12.3128 34.3162 12.5034C35.0892 12.694 35.4758 13.017 35.4758 13.4741C35.4758 14.3125 35.0328 14.9532 34.1432 15.3962C33.2537 15.841 31.8593 16.0634 29.9549 16.0634C28.9647 16.0634 27.9869 15.9681 27.0215 15.7775C26.056 15.5868 25.2 15.3539 24.4516 15.0732C23.7033 14.7944 23.0943 14.4961 22.6231 14.1784C22.1536 13.8607 21.9189 13.5765 21.9189 13.3206C21.9189 12.9411 21.9436 12.6728 21.9947 12.5193L21.6153 12.3304L18.7983 19.1151L19.2555 19.2298C19.3826 19.1027 19.5026 18.988 19.6173 18.8856C19.7303 18.785 19.8644 18.7338 20.0162 18.7338C20.2439 18.7338 20.5933 18.8238 21.0628 19.0003C21.5323 19.1786 22.173 19.378 22.9867 19.5934C23.8003 19.8087 24.7834 19.994 25.9395 20.1458C27.0956 20.2994 28.4723 20.3753 30.0714 20.3753C32.1276 20.3753 33.8502 20.1847 35.2322 19.8034C36.616 19.4204 37.7209 18.9068 38.5469 18.2608C39.3729 17.6148 39.9571 16.8841 40.2995 16.0722C40.6437 15.2603 40.8149 14.4343 40.8149 13.5959C40.8149 12.5052 40.5837 11.5962 40.1283 10.8725L40.1301 10.869Z" fill="#D71920"/>
<path d="M60.4472 19.558C60.3078 19.4062 60.1348 19.1009 59.9336 18.6438C59.5259 17.6783 59.0758 16.5875 58.5799 15.3679C58.0857 14.1501 57.5703 12.9005 57.039 11.6191C56.5042 10.3359 55.9906 9.07925 55.4947 7.84905C54.9987 6.61708 54.561 5.51396 54.1797 4.53439C53.8003 3.55835 53.4879 2.7641 53.246 2.15517C53.0042 1.54625 52.8842 1.2162 52.8842 1.16325C52.8842 0.962037 52.946 0.833192 53.0748 0.783773C53.2019 0.732588 53.3643 0.695523 53.569 0.670813V0.211914H43.6268V0.670813C43.8051 0.695523 43.9763 0.734353 44.1404 0.783773C44.3063 0.834957 44.3893 0.923207 44.3893 1.05029C44.3893 1.075 44.294 1.34151 44.1016 1.84983C43.911 2.35815 43.6621 3.01826 43.3585 3.82839C43.0532 4.64205 42.7037 5.56162 42.3119 6.59061C41.9165 7.6196 41.5177 8.67154 41.1117 9.75171C41.0499 9.91409 40.9882 10.0747 40.9281 10.2353C40.9476 10.2653 40.9687 10.2936 40.9864 10.3236V10.3253C41.5441 11.2114 41.8283 12.311 41.8283 13.5923C41.8283 14.5613 41.6271 15.5285 41.2335 16.464C40.824 17.433 40.1304 18.3066 39.172 19.0585C38.5913 19.5121 37.8941 19.9093 37.084 20.2446H43.3568V19.7857C43.0761 19.7857 42.8944 19.7539 42.8043 19.6904C42.7161 19.6269 42.672 19.5316 42.672 19.4045C42.672 19.3515 42.6914 19.2721 42.7302 19.1556C42.7673 19.0409 42.8308 18.8573 42.9208 18.6032C43.0108 18.3472 43.1309 18.0031 43.2826 17.5706C43.4344 17.1365 43.6374 16.577 43.8916 15.8886H52.9195C52.9442 16.0174 53.029 16.2575 53.1684 16.6158C53.3078 16.9723 53.4543 17.3483 53.6061 17.7436C53.7597 18.139 53.8991 18.4937 54.0262 18.8114C54.1533 19.1309 54.2168 19.3021 54.2168 19.3286C54.2168 19.6092 53.975 19.761 53.4931 19.7875V20.2464H60.9961V19.7892C60.7685 19.7892 60.5831 19.7133 60.4437 19.5616L60.4472 19.558ZM44.8482 12.8546L48.2388 3.78956L51.9347 12.8546H44.85H44.8482Z" fill="#808285"/>
<path d="M0 26.6159H0.600098V25.8622H1.41906C1.98032 25.8622 2.29979 25.5427 2.29979 25.0344C2.29979 24.5296 1.98032 24.219 1.41906 24.219H0V26.6141V26.6159ZM0.600098 24.7114H1.19137C1.54614 24.7114 1.69969 24.7714 1.69969 25.0433C1.69969 25.308 1.52496 25.3715 1.15254 25.3715H0.600098V24.7114ZM5.52973 24.1572C4.649 24.1572 4.09479 24.6585 4.09479 25.4174C4.09479 26.1764 4.649 26.6776 5.52973 26.6776C6.41046 26.6776 6.96114 26.1764 6.96114 25.4174C6.96114 24.6585 6.41046 24.1572 5.52973 24.1572ZM5.52973 24.6497C6.00804 24.6497 6.3028 24.9356 6.3028 25.4174C6.3028 25.8975 6.00804 26.187 5.52973 26.187C5.05142 26.187 4.75313 25.8975 4.75313 25.4174C4.75313 24.9391 5.04965 24.6497 5.52973 24.6497ZM8.52669 24.219L9.28917 26.6159H9.87868L10.4805 24.8703L11.0542 26.6159H11.6649L12.4415 24.219H11.8184L11.326 25.834L10.7824 24.219H10.1946L9.63158 25.834L9.15327 24.219H8.53022H8.52669ZM14.2135 24.2208V26.6159H16.3421V26.1252H14.8136V25.6028H16.1744V25.1121H14.8136V24.7132H16.3421V24.2225H14.2135V24.2208ZM18.3277 26.6159H18.9296V25.7351H19.6232C19.978 25.7351 20.0415 25.8604 20.0415 26.2664V26.4323C20.0415 26.5011 20.0592 26.5629 20.0927 26.6159H20.7652C20.6487 26.4835 20.6487 26.2682 20.6363 25.9805C20.624 25.7069 20.594 25.5763 20.3345 25.4704C20.5851 25.3733 20.7299 25.1456 20.7299 24.8632C20.7299 24.4114 20.4228 24.2208 19.7997 24.2208H18.3277V26.6159ZM18.9296 24.7114H19.5826C19.9286 24.7114 20.098 24.7291 20.098 24.9585C20.098 25.1827 19.9321 25.2427 19.6091 25.2427H18.9296V24.7114ZM22.7067 24.2208V26.6159H24.8335V26.1252H23.305V25.6028H24.6658V25.1121H23.305V24.7132H24.8335V24.2225H22.7067V24.2208ZM26.8209 26.6159H27.9028C28.7412 26.6159 29.3836 26.3441 29.3836 25.4174C29.3836 24.5491 28.7871 24.2208 28.044 24.2208H26.8191V26.6159H26.8209ZM27.421 24.7114H27.8905C28.4447 24.7114 28.7271 24.9462 28.7271 25.4068C28.7271 25.8693 28.4429 26.1234 27.8905 26.1234H27.421V24.7114ZM33.9709 26.6159H35.6406C36.1348 26.6159 36.4154 26.3441 36.4154 25.9328C36.4154 25.631 36.276 25.4316 35.9988 25.3415C36.2124 25.2321 36.3254 25.0485 36.3254 24.8156C36.3254 24.4167 36.0571 24.219 35.5188 24.219H33.9709V26.6141V26.6159ZM34.571 25.5992H35.3687C35.6564 25.5992 35.7888 25.6716 35.7888 25.8763C35.7888 26.0934 35.6529 26.1252 35.3687 26.1252H34.571V25.601V25.5992ZM34.571 24.7114H35.2805C35.5682 24.7114 35.7006 24.7467 35.7006 24.9338C35.7006 25.1368 35.5647 25.1809 35.2805 25.1809H34.571V24.7132V24.7114ZM37.9545 24.219L38.9993 25.5922V26.6159H39.5994V25.5922L40.6655 24.219H39.9065L39.3135 25.075L38.7169 24.219H37.9545Z" fill="#BCBEC0"/>
<path d="M50.7664 26.1273H50.3269V27.8923H48.9185V22.9609H50.7046C52.0954 22.9609 52.9144 23.3687 52.9144 24.4912C52.9144 25.2166 52.5596 26.1273 50.7664 26.1273ZM50.3975 23.997V25.1248H50.807C51.2482 25.1248 51.453 25.0189 51.453 24.4824C51.453 24.0729 51.2253 23.9952 50.8864 23.9952H50.3993L50.3975 23.997Z" fill="#00A1E4"/>
<path d="M55.7299 27.959C54.9021 27.959 54.2579 27.7754 53.709 27.5142L54.2049 26.5276C54.5985 26.7323 55.1881 26.9212 55.7458 26.9212C56.2965 26.9212 56.5171 26.7376 56.5171 26.4711C56.5171 26.2522 56.3424 26.1604 55.9664 26.0687L55.3222 25.9204C54.5262 25.7298 53.9843 25.3433 53.9843 24.4961C53.9843 23.5235 54.8809 22.874 56.1076 22.874C56.8701 22.874 57.5779 23.0399 58.0668 23.3453L57.3908 24.2313C57.0219 24.0124 56.5347 23.9048 56.1553 23.9048C55.7952 23.9048 55.5975 24.0601 55.5975 24.2578C55.5975 24.4202 55.7228 24.5825 56.1323 24.6743L56.6901 24.8014C57.2796 24.9355 58.1303 25.1738 58.1303 26.1622C58.1303 27.3395 57.1543 27.9607 55.7317 27.9607L55.7299 27.959Z" fill="#00A1E4"/>
<path d="M43.6341 27.8997H44.2377L46.2904 25.4746L44.1336 22.9595H43.5776C43.8865 23.7484 44.3119 24.6044 44.3119 25.5028C44.3119 26.3447 43.9059 27.1513 43.6341 27.8997Z" fill="#00A1E4"/>
<path d="M60.4755 22.9873L59.4712 24.2299V27.8922H60.9997V22.9873H60.4755Z" fill="#00A1E4"/>
</svg>
