<svg width="109" height="27" viewBox="0 0 109 27" fill="none" xmlns="http://www.w3.org/2000/svg">
<path fill-rule="evenodd" clip-rule="evenodd" d="M33.473 15.6626C35.566 15.6626 37.2634 17.3601 37.2634 19.453V22.6496C37.2634 22.9005 37.0551 23.1047 36.6435 23.1047C36.2319 23.1047 36.0236 22.9009 36.0236 22.6496V21.9096C35.5241 22.6864 34.3862 23.2434 33.4039 23.2434C31.2418 23.2434 29.6826 21.546 29.6826 19.453C29.6826 17.3601 31.3801 15.6626 33.473 15.6626ZM68.2928 23.1047C68.7135 23.1047 69.0461 22.9026 69.0883 22.6496L69.8905 17.8102L69.8793 17.2015C69.8785 17.1542 69.9095 17.1141 69.9567 17.112C70.0048 17.1095 70.0433 17.1484 70.0511 17.1932L70.1306 17.6321L72.2609 22.6496C72.4004 22.978 72.6365 23.1039 72.9943 23.1039C73.3521 23.1039 73.5877 22.978 73.7268 22.6496L75.8571 17.6321L75.9366 17.1932C75.9448 17.1468 75.9834 17.1095 76.031 17.112C76.0786 17.1145 76.1092 17.1563 76.1084 17.2015L76.0977 17.8102L76.8998 22.6496C76.9416 22.9022 77.2746 23.1047 77.6953 23.1047C78.1161 23.1047 78.3293 22.9009 78.2796 22.6496L77.0431 16.4121C76.9656 16.0212 76.7308 15.8026 76.166 15.7997C75.6011 15.7972 75.3216 16.0477 75.1589 16.4121L73.1164 20.9894L73.0804 21.4325C73.0767 21.4797 73.0419 21.5182 72.9947 21.5182C72.9462 21.5182 72.9123 21.478 72.909 21.4325L72.8729 20.9894L70.8305 16.4121C70.6678 16.0477 70.3882 15.7972 69.8234 15.7997C69.2585 15.8022 69.0237 16.0212 68.9463 16.4121L67.7101 22.6496C67.6604 22.9009 67.8733 23.1047 68.294 23.1047H68.2928ZM65.8773 18.7573H60.9431C61.1563 17.6491 62.1755 16.8345 63.4066 16.8345C64.7583 16.8345 65.6201 17.6491 65.8773 18.7573ZM66.5734 19.9292C66.9535 19.9292 67.2074 19.6563 67.1929 19.2845C67.1146 17.2694 65.5812 15.6626 63.4062 15.6626C61.3133 15.6626 59.6158 17.3601 59.6158 19.453C59.6158 21.546 61.3626 23.2434 63.4062 23.2434C64.9678 23.2434 66.2574 22.5307 66.9092 21.411C67.0173 21.1948 66.9212 20.8892 66.4313 20.8892C65.9936 20.8892 65.7837 20.9277 65.483 21.2586C65.0151 21.7737 64.3603 22.0719 63.4062 22.0719C62.1539 22.0719 61.047 21.148 60.8983 19.9301H66.573L66.5734 19.9292ZM57.344 21.9327H53.4885C54.6029 20.9186 54.9686 19.0898 55.0303 16.9733H57.344V21.9327ZM52.3095 24.8779C52.6988 24.8779 52.8955 24.6742 52.8955 24.4228V23.1051H58.0007V24.4228C58.0007 24.6738 58.1975 24.8779 58.5867 24.8779C58.976 24.8779 59.1727 24.6742 59.1727 24.4228V22.5191C59.1727 22.1299 58.9089 21.9332 58.5838 21.9332V16.408C58.5838 16.0734 58.3755 15.8017 57.9639 15.8017H54.5946C54.0894 15.8017 53.8057 16.1749 53.795 16.6639C53.79 18.9225 53.4923 20.6303 52.2946 21.7232C51.9443 22.0429 51.724 22.2723 51.724 22.7626V24.4232C51.724 24.6742 51.9211 24.8784 52.31 24.8784L52.3095 24.8779ZM80.3585 16.9733V22.6496C80.3585 22.9005 80.1502 23.1047 79.7386 23.1047C79.3269 23.1047 79.1186 22.9009 79.1186 22.6496V16.4076C79.1186 16.073 79.3269 15.8013 79.7386 15.8013H84.5974C85.009 15.8013 85.2173 16.073 85.2173 16.4076V22.6496C85.2173 22.9005 85.009 23.1047 84.5974 23.1047C84.1858 23.1047 83.9775 22.9009 83.9775 22.6496V16.9733H80.3585ZM96.1181 21.9791V26.5448C96.1181 26.7957 95.9098 26.9999 95.4982 26.9999C95.0866 26.9999 94.8783 26.7961 94.8783 26.5448V19.453C94.8783 17.4292 96.5062 15.6626 98.6687 15.6626C100.831 15.6626 102.39 17.2905 102.39 19.453C102.39 21.546 100.97 23.2434 98.6687 23.2434C97.7945 23.2434 96.772 22.8985 96.1185 21.9791H96.1181ZM98.6683 16.835C97.1907 16.835 96.1181 18.0073 96.1181 19.4534C96.1181 20.9687 97.1215 22.0719 98.5991 22.0719C100.285 22.0719 101.15 20.8299 101.15 19.4534C101.15 18.0077 100.215 16.835 98.6683 16.835ZM103.7 23.1051C104.111 23.1051 104.32 22.9014 104.32 22.65V16.2569C104.32 16.0055 104.111 15.8017 103.7 15.8017C103.288 15.8017 103.08 16.0055 103.08 16.2569V22.65C103.08 22.9009 103.288 23.1051 103.7 23.1051ZM105.984 19.1085L108.27 16.6378C108.44 16.4531 108.408 16.1566 108.096 15.8887C107.783 15.6208 107.491 15.6386 107.329 15.8303L104.525 19.142L107.744 23.0612C107.904 23.2554 108.199 23.2712 108.511 23.0028C108.824 22.7349 108.921 22.4421 108.754 22.2537L105.984 19.1085ZM38.7261 23.1051C39.1377 23.1051 39.346 22.9014 39.346 22.65V16.2569C39.346 16.0055 39.1377 15.8017 38.7261 15.8017C38.3145 15.8017 38.1062 16.0055 38.1062 16.2569V22.65C38.1062 22.9009 38.3145 23.1051 38.7261 23.1051ZM41.0108 19.1085L43.2959 16.6378C43.4665 16.4531 43.4346 16.1566 43.122 15.8887C42.8097 15.6208 42.5173 15.6386 42.3554 15.8303L39.5514 19.142L42.7712 23.0612C42.9306 23.2554 43.2259 23.2712 43.5381 23.0028C43.8504 22.7349 43.9473 22.4421 43.7812 22.2537L41.0108 19.1085ZM90.1296 15.6626C92.2225 15.6626 93.92 17.3601 93.92 19.453V22.6496C93.92 22.9005 93.7117 23.1047 93.3001 23.1047C92.8884 23.1047 92.6801 22.9009 92.6801 22.6496V21.9096C92.1807 22.6864 91.0427 23.2434 90.0604 23.2434C87.8983 23.2434 86.3396 21.546 86.3396 19.453C86.3396 17.3601 88.0371 15.6626 90.1296 15.6626ZM90.1296 16.8345C91.6072 16.8345 92.6801 17.9378 92.6801 19.453C92.6801 20.9683 91.6072 22.0715 90.0604 22.0715C88.5137 22.0715 87.5795 20.8991 87.5795 19.453C87.5795 18.0073 88.6524 16.8345 90.1296 16.8345ZM47.5286 15.6626C49.6215 15.6626 51.319 17.3601 51.319 19.453V22.6496C51.319 22.9005 51.1107 23.1047 50.699 23.1047C50.2874 23.1047 50.0791 22.9009 50.0791 22.6496V21.9096C49.5797 22.6864 48.4417 23.2434 47.4594 23.2434C45.2973 23.2434 43.7386 21.546 43.7386 19.453C43.7386 17.3601 45.436 15.6626 47.529 15.6626H47.5286ZM47.5286 16.8345C49.0061 16.8345 50.0791 17.9378 50.0791 19.453C50.0791 20.9683 49.0061 22.0715 47.4594 22.0715C45.9127 22.0715 44.9784 20.8991 44.9784 19.453C44.9784 18.0073 46.0514 16.8345 47.529 16.8345H47.5286ZM33.4722 16.8345C34.9498 16.8345 36.0227 17.9378 36.0227 19.453C36.0227 20.9683 34.9498 22.0715 33.403 22.0715C31.8563 22.0715 30.9217 20.8991 30.9217 19.453C30.9217 18.0073 31.9946 16.8345 33.4722 16.8345Z" fill="#54AF3B"/>
<path fill-rule="evenodd" clip-rule="evenodd" d="M17.1573 19.3591V21.7697C17.1573 22.4919 17.7511 23.0655 18.4729 23.0655C19.1947 23.0655 19.7886 22.4899 19.7886 21.7697V13.4037C19.7886 9.91271 17.8998 6.3393 14.6552 4.79009C13.5122 4.24428 12.4869 4.6613 12.3013 5.2833C12.0827 6.01836 12.5349 6.68674 13.1801 7.0375C15.4619 8.23678 17.0976 10.6457 17.0976 13.4037C17.0976 17.4178 13.9081 20.553 9.89408 20.553C5.79018 20.553 2.69052 17.3817 2.69052 13.4037C2.69052 10.6457 4.236 8.2372 6.5182 7.0375C7.16339 6.68633 7.61561 6.01836 7.39695 5.2833C7.21184 4.6613 6.18649 4.2447 5.04311 4.79009C2.03414 6.22666 0 9.71021 0 13.4037C0 18.8672 4.04965 23.2435 9.78392 23.2435C12.8347 23.2435 15.4565 21.6753 17.1569 19.3591H17.1573ZM9.85888 0C9.12051 0 8.53163 0.590531 8.53163 1.32517V10.6395C8.53163 11.3774 9.12051 11.9647 9.85888 11.9647C10.5968 11.9647 11.1861 11.3762 11.1861 10.6395V1.32517C11.1861 0.585561 10.5972 0 9.85888 0V0Z" fill="#54AF3B"/>
</svg>
