<svg width="54" height="45" viewBox="0 0 54 45" fill="none" xmlns="http://www.w3.org/2000/svg">
<path d="M16.4868 14.2261H18.0853V19.6602C18.0853 19.9691 18.341 20.246 18.671 20.246C19.0014 20.246 19.2572 19.9691 19.2572 19.6602V14.2261H20.8552V19.6602C20.8552 20.2675 20.6421 20.7791 20.216 21.2052C19.7898 21.6314 19.2783 21.8444 18.671 21.8444C18.0637 21.8444 17.5522 21.6314 17.126 21.2052C16.6999 20.7791 16.4868 20.2675 16.4868 19.6602V14.2261Z" fill="#0E4176"/>
<path d="M22.8794 15.8241V17.6887H23.6251C24.1367 17.6887 24.5628 17.2733 24.5628 16.7618C24.5628 16.2503 24.1367 15.8241 23.6251 15.8241H22.8794ZM22.8794 18.9675V21.6844H22.3467V14.2261H23.6255C24.3393 14.2261 24.9466 14.4603 25.4263 14.9399C25.9166 15.4087 26.1616 16.016 26.1616 16.7622C26.1616 17.6999 25.6609 18.531 24.8832 18.9572L27.1209 21.6848H25.0536L22.8798 18.9679L22.8794 18.9675Z" fill="#0E4176"/>
<path d="M28.6112 18.6475V20.086H29.1439C29.5597 20.086 29.8685 19.7664 29.8685 19.3721C29.8685 18.9564 29.5381 18.6475 29.1439 18.6475H28.6112ZM29.1439 17.0495C29.4846 17.0495 29.762 16.7829 29.762 16.4422C29.762 16.101 29.4846 15.8241 29.1439 15.8241H28.6112V17.0495H29.1439ZM28.0781 21.6844V14.2261H29.1439C29.7727 14.2261 30.3054 14.4176 30.7208 14.8014C31.1469 15.1745 31.36 15.6857 31.36 16.3357C31.36 16.8895 31.0512 17.5183 30.6143 17.8272C31.115 18.1683 31.4669 18.8502 31.4669 19.4787C31.4669 20.1498 31.2431 20.6933 30.7954 21.0879C30.3585 21.4821 29.8047 21.6844 29.1439 21.6844H28.0781Z" fill="#0E4176"/>
<path d="M36.3571 16.9322L35.4302 18.541H37.2737L36.3575 16.9322H36.3571ZM40.3102 21.6844L39.4255 20.1394H33.2883L32.4037 21.6844H31.7856L36.0479 14.2261H36.666L40.9278 21.6844H40.3098H40.3102Z" fill="#0E4176"/>
<path d="M41.8862 14.2261H42.4508L45.5835 18.8291V14.2261H46.1162V21.6844H45.5516L42.4189 17.071V21.6844H41.8862V14.2261Z" fill="#0E4176"/>
<path d="M17.0195 27.476V28.9144H17.5522C17.968 28.9144 18.2768 28.5948 18.2768 28.2006C18.2768 27.7848 17.9464 27.476 17.5522 27.476H17.0195ZM17.5522 25.8775C17.8933 25.8775 18.1703 25.611 18.1703 25.2702C18.1703 24.9291 17.8933 24.6522 17.5522 24.6522H17.0195V25.8775H17.5522ZM16.4868 30.5125V23.0537H17.5522C18.181 23.0537 18.7137 23.2456 19.1291 23.6291C19.5552 24.0022 19.7683 24.5137 19.7683 25.1633C19.7683 25.7175 19.4595 26.346 19.0225 26.6552C19.5233 26.9964 19.8748 27.6779 19.8748 28.3067C19.8748 28.9779 19.651 29.5213 19.2037 29.9155C18.7668 30.3098 18.2125 30.5125 17.5522 30.5125H16.4868Z" fill="#0E4176"/>
<path d="M24.4034 23.0537V24.6522H22.7519V26.5167H24.2968V27.0498H22.7519V28.9144H24.4034V30.5125H21.1538V23.0537H24.4034Z" fill="#0E4176"/>
<path d="M29.9329 25.7602L29.006 27.369H30.8494L29.9333 25.7602H29.9329ZM33.8859 30.5125L33.0013 28.9675H26.8641L25.9795 30.5125H25.3618L29.6241 23.0537H30.2421L34.504 30.5125H33.8859Z" fill="#0E4176"/>
<path d="M35.4619 23.0537H37.0604V28.4879C37.0604 28.7967 37.3161 29.0736 37.6465 29.0736C37.9769 29.0736 38.2327 28.7967 38.2327 28.4879V23.0537H39.8311V28.4879C39.8311 29.0952 39.618 29.6067 39.1919 30.0328C38.7657 30.4594 38.2542 30.6721 37.6469 30.6721C37.0396 30.6721 36.5281 30.459 36.1019 30.0328C35.6758 29.6067 35.4627 29.0952 35.4627 28.4879V23.0537H35.4619Z" fill="#0E4176"/>
<path d="M41.002 24.6522V23.0537H45.0511V24.6522H43.2931V30.5125H42.7604V24.6522H41.002Z" fill="#0E4176"/>
<path d="M50.0051 23.0537H51.8697L49.0993 27.8383V30.5125H48.5662V27.8383L45.7959 23.0537H47.6609L48.8328 25.1848L50.0051 23.0537Z" fill="#0E4176"/>
<path d="M16.061 31.8813H17.7022L18.6291 36.0051L19.8652 31.8813H20.3552L21.6233 36.0051L22.4544 31.8813H22.9979L21.506 39.3401H20.9944L19.556 34.7582L18.1818 39.3401H17.6703L16.061 31.8813Z" fill="#0E4176"/>
<path d="M27.312 31.8813V33.4798H25.6605V35.3444H27.2054V35.8771H25.6605V37.742H27.312V39.3401H24.062V31.8813H27.312Z" fill="#0E4176"/>
<path d="M32.0532 31.8813V33.4798H30.4013V35.3444H31.9466V35.8771H30.4013V37.742H32.0532V39.3401H28.8032V31.8813H32.0532Z" fill="#0E4176"/>
<path d="M36.1223 39.3401L34.0761 35.8451V39.3401H33.5435V31.8813H34.0761V35.3871L36.1331 31.8813H37.9442L35.7281 35.6105L37.9338 39.3401H36.1223Z" fill="#0E4176"/>
<path d="M42.3662 31.8813V33.4798H40.7147V35.3444H42.2596V35.8771H40.7147V37.742H42.3662V39.3401H39.1162V31.8813H42.3662Z" fill="#0E4176"/>
<path d="M43.8564 31.8813H44.4214L47.5541 36.4844V31.8813H48.0868V39.3401H47.5222L44.3895 34.7263V39.3401H43.8564V31.8813Z" fill="#0E4176"/>
<path d="M50.1107 33.4798V37.742H50.2707C50.8672 37.742 51.3684 37.5397 51.7838 37.1451C52.1992 36.7509 52.4015 36.2394 52.4015 35.6109C52.4015 34.9825 52.1992 34.4709 51.7838 34.0767C51.368 33.6825 50.8672 33.4802 50.2707 33.4802H50.1107V33.4798ZM49.5776 39.3401V31.8813H50.2703C51.3145 31.8813 52.1988 32.2329 52.9126 32.9467C53.6372 33.6502 53.9999 34.5344 53.9999 35.6105C53.9999 36.6867 53.6376 37.5713 52.9126 38.2851C52.1988 38.9882 51.3141 39.3401 50.2703 39.3401H49.5776Z" fill="#0E4176"/>
<path d="M17.8668 43.5035V43.9552H17.9678C18.0966 43.9552 18.1948 43.8542 18.1948 43.7305C18.1948 43.6092 18.0962 43.5111 17.9753 43.5035H17.8668ZM17.8668 43.2007H17.9678C18.0815 43.2007 18.1697 43.1097 18.1697 42.996C18.1697 42.8822 18.0815 42.7941 17.9678 42.7941H17.8668V43.2007ZM18.2834 43.3495C18.427 43.4528 18.4981 43.5893 18.4981 43.7633C18.4981 43.9073 18.4474 44.0258 18.344 44.1192C18.2407 44.2125 18.117 44.258 17.9678 44.258H17.564V42.4912H17.9678C18.1118 42.4912 18.2303 42.5367 18.3261 42.6249C18.4242 42.7131 18.4725 42.8268 18.4725 42.9656C18.4725 43.1244 18.4095 43.2533 18.2834 43.3495Z" fill="#0E4176"/>
<path d="M19.8467 42.4912H20.1822L20.4955 43.15L20.8083 42.4912H21.1439L20.6467 43.5338V44.258H20.3438V43.5362L19.8467 42.4912Z" fill="#0E4176"/>
<path d="M24.8525 42.7941V42.4912H25.6853V42.7941H25.4203V43.9552H25.6853V44.258H24.8525V43.9552H25.1175V42.7941H24.8525Z" fill="#0E4176"/>
<path d="M27.5148 44.258H27.2119V42.4912H27.502L27.9058 43.4656V42.4912H28.2086V44.258H27.9186L27.5148 43.2836V44.258Z" fill="#0E4176"/>
<path d="M29.709 42.7941V42.4912H30.7185V42.7941H30.3654V44.258H30.0625V42.7941H29.709Z" fill="#0E4176"/>
<path d="M33.052 42.4912V42.7941H32.5221V43.2234H33.0268V43.5262H32.5221V43.9552H33.052V44.258H32.2192V42.4912H33.052Z" fill="#0E4176"/>
<path d="M34.9063 42.7941V43.324H34.9566C35.1209 43.324 35.2466 43.213 35.2466 43.059C35.2466 42.905 35.1205 42.7941 34.9566 42.7941H34.9063ZM35.757 44.258H35.3731L34.9059 43.6571V44.258H34.603V42.4912H34.9562C35.1225 42.4912 35.2642 42.5443 35.3775 42.6528C35.4912 42.7589 35.5491 42.895 35.5491 43.059C35.5491 43.2912 35.4206 43.4804 35.2211 43.5713L35.7562 44.258H35.757Z" fill="#0E4176"/>
<path d="M38.6841 42.7842L38.4774 42.9913C38.3386 42.8348 38.1718 42.7566 37.9775 42.7566C37.7983 42.7566 37.6495 42.8173 37.5334 42.9358C37.4173 43.0543 37.3594 43.2007 37.3594 43.3751C37.3594 43.5495 37.4177 43.6955 37.5334 43.8144C37.6495 43.9329 37.7987 43.9936 37.9775 43.9936C38.1718 43.9936 38.3386 43.9154 38.4774 43.759L38.6841 43.9661C38.5125 44.1779 38.26 44.2968 37.9775 44.2968C37.7125 44.2968 37.4931 44.2082 37.3187 44.0295C37.1447 43.8503 37.0562 43.6333 37.0562 43.3755C37.0562 43.1181 37.1447 42.9011 37.3187 42.7219C37.4927 42.5428 37.7125 42.4546 37.9775 42.4546C38.2604 42.4546 38.5125 42.5731 38.6841 42.785V42.7842Z" fill="#0E4176"/>
<path d="M41.9517 44.258H41.6488V43.5262H40.5128V44.258H40.21V42.4912H40.5128V43.2234H41.6488V42.4912H41.9517V44.258Z" fill="#0E4176"/>
<path d="M44.4549 42.8344L44.0839 43.5765H44.826L44.4549 42.8344ZM43.7431 44.258H43.4023L44.2834 42.4912H44.6241L45.5075 44.258H45.1692L44.9772 43.8794H43.9322L43.7427 44.258H43.7431Z" fill="#0E4176"/>
<path d="M47.2613 42.7941V43.324H47.3119C47.4763 43.324 47.602 43.213 47.602 43.059C47.602 42.905 47.4759 42.7941 47.3119 42.7941H47.2613ZM48.112 44.258H47.7281L47.2609 43.6571V44.258H46.958V42.4912H47.3115C47.4779 42.4912 47.6196 42.5443 47.7329 42.6528C47.8466 42.7589 47.9045 42.895 47.9045 43.059C47.9045 43.2912 47.776 43.4804 47.5765 43.5713L48.1116 44.258H48.112Z" fill="#0E4176"/>
<path d="M49.8903 44.258H49.5874V42.4912H49.8879L50.5973 43.2258L51.3063 42.4912H51.6068V44.258H51.304V42.9178L50.5973 43.6499L49.8903 42.9178V44.258Z" fill="#0E4176"/>
<path d="M0.907268 13.0253C1.11994 13.0257 1.27276 13.1255 1.32503 13.2855C1.3378 13.3254 1.34459 13.3657 1.34578 13.4072C1.34698 13.489 1.33341 13.5249 1.30947 13.6067C1.28673 13.6857 1.28074 13.7447 1.29232 13.7806C1.31147 13.8397 1.38249 13.8756 1.48105 13.8752L1.48304 14.1146C1.27077 14.1162 1.11555 14.0153 1.06328 13.8548C1.05051 13.8149 1.04373 13.775 1.04533 13.7343C1.04612 13.6917 1.04812 13.6597 1.05371 13.637C1.05889 13.6142 1.06727 13.5819 1.08004 13.5376C1.10358 13.4602 1.10957 13.4016 1.096 13.3597C1.07685 13.3006 1.00662 13.2667 0.905273 13.2659L0.906869 13.0249L0.907268 13.0253Z" fill="#ECAF0B"/>
<path d="M0 10.5508L0.00598519 10.3102L1.16871 10.3397L1.17988 9.89844L1.42049 9.90482L1.40333 10.5859L0 10.5508Z" fill="#ECAF0B"/>
<path d="M0.361615 8.90864L0.125 8.86475L0.245502 8.21436L0.482116 8.25825L0.443811 8.46494L1.35037 8.63292L1.38867 8.42623L1.62489 8.47012L1.50479 9.12011L1.26817 9.07622L1.30648 8.86953L0.39992 8.70155L0.361615 8.90864Z" fill="#ECAF0B"/>
<path d="M0.744533 6.57031L0.970773 6.65171L0.828724 7.04753L1.14953 7.16285L1.2848 6.78538L1.51144 6.86678L1.37577 7.24385L1.92322 7.44016L1.84182 7.6668L0.521484 7.19277L0.744533 6.57031Z" fill="#ECAF0B"/>
<path d="M1.50422 5.02979L1.7145 5.1471L1.50941 5.51459L1.80747 5.68057L2.00219 5.33024L2.21247 5.44715L2.01735 5.79749L2.31502 5.96308L2.51971 5.59558L2.72999 5.7121L2.40838 6.29027L1.18262 5.60795L1.50422 5.02979Z" fill="#ECAF0B"/>
<path d="M2.91666 3.78784L2.76624 3.97578L2.71955 3.93827C2.65531 3.8868 2.56074 3.89597 2.50688 3.96301C2.45301 4.03004 2.46299 4.12062 2.53042 4.17448C2.56952 4.20561 2.61182 4.21678 2.66768 4.20202C2.72155 4.18606 2.74429 4.17329 2.80933 4.14097C2.92943 4.08072 2.99806 4.05279 3.103 4.03722C3.20675 4.02007 3.30171 4.05239 3.39707 4.129C3.49084 4.20441 3.54431 4.29818 3.55788 4.4123C3.57304 4.52482 3.54032 4.62936 3.46132 4.72831C3.38231 4.82647 3.28695 4.88154 3.17403 4.89111C3.06111 4.90069 2.95776 4.86917 2.86399 4.79375L2.81731 4.75625L2.96774 4.56831L3.01442 4.60582C3.09422 4.66966 3.20994 4.65729 3.27378 4.57709C3.33882 4.49569 3.32605 4.38038 3.24625 4.31613C3.20076 4.27982 3.15527 4.26626 3.09143 4.28461C3.05951 4.29259 3.03357 4.30257 3.01322 4.31175C2.99407 4.31933 2.96135 4.33449 2.91826 4.35643C2.71157 4.46018 2.54239 4.4917 2.37959 4.36162C2.29341 4.29259 2.24273 4.20521 2.22996 4.10266C2.21719 3.99972 2.24632 3.90236 2.31934 3.81178C2.46977 3.62385 2.68404 3.6007 2.87038 3.74954L2.91746 3.78704L2.91666 3.78784Z" fill="#ECAF0B"/>
<path d="M3.46389 2.95412L3.30469 2.77376L3.9056 2.24268L4.06481 2.42303L3.85453 2.60897L4.62422 3.48041L4.44387 3.63962L3.67417 2.76818L3.46389 2.95412Z" fill="#ECAF0B"/>
<path d="M4.69482 1.6504L4.92266 1.51194L5.40666 1.82996L5.34761 1.25378L5.57545 1.11572L5.66762 2.02787L5.96608 2.51985L5.76059 2.64434L5.46292 2.15475L4.69482 1.6504Z" fill="#ECAF0B"/>
<path d="M6.50195 0.676739L6.7262 0.589355L7.14795 1.67268L7.55854 1.51227L7.64592 1.73692L7.01109 1.98391L6.50195 0.676739Z" fill="#ECAF0B"/>
<path d="M8.78001 0L8.82949 0.235418L8.41771 0.322003L8.48793 0.655578L8.88016 0.572982L8.92964 0.8084L8.53741 0.890996L8.60764 1.22457L9.01942 1.13759L9.0689 1.373L8.4217 1.50907L8.13281 0.136462L8.78001 0Z" fill="#ECAF0B"/>
<path d="M12.5819 0.604895C12.4902 0.79682 12.3342 0.891386 12.1674 0.86944C12.1255 0.864253 12.0868 0.853081 12.0485 0.835524C11.9738 0.801608 11.9471 0.773677 11.8841 0.717017C11.8222 0.662353 11.7719 0.631629 11.734 0.626442C11.6726 0.618461 11.6095 0.666742 11.5676 0.756121L11.3506 0.654772C11.4404 0.462447 11.5988 0.365886 11.7656 0.387832C11.8075 0.393418 11.8462 0.40459 11.8821 0.423344C11.92 0.442497 11.9483 0.458457 11.9667 0.472822C11.985 0.487585 12.0106 0.509132 12.0445 0.539457C12.1043 0.593723 12.1546 0.624846 12.1985 0.630432C12.2599 0.638811 12.321 0.590131 12.3653 0.498758L12.5819 0.604097V0.604895Z" fill="#ECAF0B"/>
<path d="M15.7971 1.15584L15.6878 1.37011L15.3123 1.17858L15.1575 1.48223L15.515 1.66498L15.4053 1.87925L15.0482 1.6969L14.784 2.21482L14.5693 2.10549L15.2078 0.85498L15.7971 1.15584Z" fill="#ECAF0B"/>
<path d="M16.5352 1.89558L16.6773 1.70166L17.2104 2.09229L17.0683 2.28621L16.8987 2.16172L16.3541 2.90508L16.5237 3.02957L16.3816 3.2235L15.8481 2.83246L15.9906 2.63854L16.1602 2.76303L16.7048 2.01967L16.5352 1.89558Z" fill="#ECAF0B"/>
<path d="M17.8091 2.91985L17.9806 2.75146L18.5416 3.32485L18.3697 3.49323L18.1734 3.29213L17.3422 4.10571L17.1738 3.93374L18.005 3.12055L17.8091 2.91985Z" fill="#ECAF0B"/>
<path d="M18.1873 5.12702L18.0513 4.92911L19.2064 4.13428L19.3373 4.32421L18.8816 5.02647L19.5188 4.58835L19.6549 4.78626L18.4998 5.5811L18.3689 5.39117L18.8246 4.68891L18.1873 5.12702Z" fill="#ECAF0B"/>
<path d="M20.4629 6.32512L20.2446 6.42607L20.0675 6.04422L19.7582 6.18746L19.9266 6.55096L19.7084 6.65231L19.54 6.28841L19.2307 6.43166L19.4075 6.81391L19.1892 6.91486L18.9111 6.31435L20.1848 5.72461L20.4629 6.32512Z" fill="#ECAF0B"/>
<path d="M20.6332 8.20348L20.5706 7.97125L20.6288 7.95569C20.7082 7.93414 20.7569 7.85275 20.7346 7.76935C20.7122 7.68596 20.6332 7.64087 20.5502 7.66321C20.5019 7.67638 20.468 7.70431 20.4469 7.75778C20.4281 7.81045 20.4245 7.83639 20.4126 7.90821C20.3902 8.04108 20.3719 8.1125 20.3228 8.20667C20.2753 8.30044 20.1931 8.3579 20.075 8.38982C19.9589 8.42094 19.8516 8.40857 19.7514 8.35231C19.6517 8.29844 19.5862 8.20986 19.5535 8.08816C19.5208 7.96607 19.5327 7.85713 19.5918 7.76017C19.6509 7.66321 19.7374 7.59857 19.8536 7.56745L19.9114 7.55189L19.9741 7.78412L19.9162 7.79968C19.8176 7.82601 19.7594 7.92696 19.7861 8.02592C19.8133 8.12647 19.9142 8.18472 20.0128 8.15799C20.0686 8.14283 20.1069 8.1141 20.1293 8.05185C20.142 8.02113 20.1492 7.9944 20.1536 7.97245C20.1588 7.9525 20.1656 7.91699 20.1736 7.8695C20.2115 7.64127 20.2865 7.48605 20.4876 7.43179C20.5941 7.40306 20.6947 7.41343 20.7848 7.46411C20.875 7.51438 20.9365 7.59538 20.9668 7.7079C21.0294 7.94013 20.9217 8.12687 20.6915 8.18911L20.6336 8.20467L20.6332 8.20348Z" fill="#ECAF0B"/>
<path d="M20.8767 9.97004L20.856 9.73023L20.9158 9.72504C20.9976 9.71786 21.0599 9.64604 21.0523 9.55985C21.0447 9.47406 20.9753 9.41581 20.8891 9.42339C20.8392 9.42778 20.8009 9.44932 20.771 9.498C20.7431 9.54668 20.7351 9.57142 20.7112 9.64005C20.6657 9.76694 20.6357 9.83397 20.5707 9.91816C20.5077 10.002 20.4167 10.0443 20.295 10.055C20.1753 10.0658 20.0719 10.0343 19.983 9.96166C19.8944 9.89103 19.8453 9.79248 19.8341 9.66679C19.8233 9.5407 19.8541 9.43576 19.9295 9.35077C20.0045 9.26578 20.1007 9.2171 20.2204 9.20633L20.2802 9.20114L20.3014 9.44095L20.2415 9.44613C20.1398 9.45491 20.0648 9.54429 20.0739 9.64604C20.0831 9.74978 20.1721 9.8244 20.2742 9.81562C20.3321 9.81043 20.3744 9.78849 20.4075 9.73143C20.4251 9.70389 20.437 9.67876 20.4454 9.65801C20.4538 9.63925 20.467 9.60574 20.4829 9.55985C20.5603 9.34159 20.6609 9.20234 20.8684 9.18398C20.9781 9.1744 21.0755 9.20194 21.1553 9.26737C21.2355 9.33281 21.2817 9.42339 21.2917 9.5395C21.3129 9.77891 21.1744 9.9441 20.9366 9.96525L20.8767 9.97044V9.97004Z" fill="#ECAF0B"/>
<path d="M2.64734 16.1572L2.69442 16.2223C2.74749 16.2953 2.84725 16.3097 2.91987 16.2566C2.99289 16.2035 3.00845 16.1058 2.95538 16.0324L2.90829 15.9673L2.64734 16.1572ZM2.45262 16.2989L2.16214 16.51L2.20922 16.575C2.26948 16.6576 2.3804 16.6736 2.4598 16.6161C2.53761 16.5595 2.55477 16.4501 2.5029 16.3687L2.45222 16.2989H2.45262ZM2.7459 16.4944C2.74669 16.6353 2.69203 16.7442 2.58031 16.8256C2.48774 16.893 2.38798 16.9158 2.27985 16.893C2.17172 16.8699 2.08433 16.8116 2.01491 16.7163L1.82617 16.4565L2.96136 15.6313L3.1501 15.8907C3.21713 15.9833 3.24347 16.0806 3.2315 16.1836C3.22072 16.2881 3.17005 16.3719 3.08107 16.437C2.97892 16.5112 2.8668 16.5307 2.7463 16.4944H2.7459Z" fill="#ECAF0B"/>
<path d="M4.41147 17.3176L4.24269 17.4891L3.94224 17.1939L3.70323 17.4369L3.98932 17.7182L3.82054 17.8898L3.53444 17.6084L3.29544 17.8514L3.59589 18.1467L3.42711 18.3183L2.95508 17.8542L3.93944 16.8535L4.41147 17.3176Z" fill="#ECAF0B"/>
<path d="M5.51397 18.502L4.94737 18.8387L5.44334 19.1576L5.51397 18.502ZM4.42706 19.148L4.19922 19.0015L5.54668 18.1987L5.77452 18.3452L5.60614 19.9057L5.3799 19.7605L5.41421 19.4249L4.71594 18.976L4.42666 19.1476L4.42706 19.148Z" fill="#ECAF0B"/>
<path d="M7.04238 19.0131L7.26742 19.0973L6.90233 20.0737C6.8724 20.1543 6.9135 20.2381 6.99051 20.2672C7.06752 20.2959 7.1537 20.2596 7.18403 20.179L7.54952 19.203L7.77457 19.2872L7.40947 20.2632C7.37077 20.3665 7.30413 20.442 7.21036 20.4862C7.1166 20.5305 7.01525 20.5333 6.90632 20.4922C6.79739 20.4515 6.72277 20.3829 6.68087 20.2879C6.63938 20.1934 6.63858 20.0924 6.67688 19.9891L7.04198 19.0127L7.04238 19.0131Z" fill="#ECAF0B"/>
<path d="M8.50146 19.7391L8.54575 19.5024L9.3338 19.6497L9.28952 19.8863L9.0138 19.8348L8.80072 20.9772L8.56411 20.9333L8.77718 19.7905L8.50146 19.7391Z" fill="#ECAF0B"/>
<path d="M10.0703 19.7314L10.3365 19.7338L10.581 20.2589L10.8336 19.7378L11.1002 19.7398L10.6988 20.5646L10.694 21.1396L10.4534 21.1376L10.4582 20.5646L10.0703 19.7314Z" fill="#ECAF0B"/>
<path d="M14.0556 7.39898C13.1291 6.47247 11.6276 6.47247 10.7007 7.39898L10.6456 7.45365L10.6369 7.44487L10.5958 7.40337C9.66926 6.47726 8.16778 6.47726 7.24127 7.40337C6.31476 8.32948 6.31476 9.83176 7.24127 10.7583L7.28237 10.7994L7.30671 10.8237L10.6369 14.1539L13.9762 10.8149L13.985 10.8237L14.0556 10.7531C14.9817 9.82658 14.9817 8.32509 14.0556 7.39858V7.39898Z" fill="#ECAF0B"/>
</svg>
