<svg width="60" height="40" viewBox="0 0 60 40" fill="none" xmlns="http://www.w3.org/2000/svg">
<path d="M35.8556 11.3811C35.9113 11.2438 35.7979 11.1091 35.7979 11.1091C35.7979 11.1091 34.9071 9.59248 31.7554 9.25602C30.0679 9.07603 27.7706 9.41772 26.1603 10.2868C23.2427 11.8601 22.8059 14.452 22.8059 14.452C22.7894 14.5154 22.7615 14.7086 22.8271 14.7911C22.8939 14.8749 22.9911 14.8734 23.1117 14.8326C24.1414 14.4845 27.2105 13.4659 29.1472 12.9515C31.9034 12.2202 34.1676 11.7752 35.6209 11.5274C35.724 11.5099 35.8167 11.476 35.8556 11.3811" fill="#FFBB36"/>
<path d="M39.0029 23.5961C37.3532 27.304 34.1883 29.8844 30.0404 29.9432C27.0199 29.9861 24.3543 28.9504 22.4292 27.144L21.2649 27.6426L21.2668 25.8384C19.9983 24.126 19.2628 21.9599 19.2628 19.4992C19.2628 13.1967 24.0861 8.22861 30.813 8.22861C31.911 8.22861 32.9034 8.39962 33.6516 8.56924C32.4988 8.20005 31.3534 8 30.0783 8C22.8588 8 18.0003 13.8588 18 19.9007C18 26.485 23.161 32 29.9353 32C36.4055 32 39.8964 27.4345 41.0127 24.6889L39.0029 23.5961Z" fill="#0066B3"/>
<path d="M37.3284 22.2932C38.2778 22.1854 38.9346 21.8035 39.2952 21.4493C39.6237 21.1262 39.7004 20.6814 39.7009 20.3509C39.7141 19.8654 39.7009 18.3332 39.7009 18.3332L37.1885 18.8772C37.1885 18.8772 37.1882 19.0667 37.1875 19.4646C37.1921 19.8532 37.3793 20.0647 37.7862 19.9898C37.9137 19.9688 38.11 19.9062 38.11 19.9062L38.1135 20.3864C38.1113 20.3726 38.1506 20.6541 37.5174 20.7794C36.6888 20.9096 36.3123 20.3993 36.3025 19.4976C36.3188 18.5313 36.8648 17.974 37.527 17.8214C38.2722 17.6504 38.6939 17.8281 38.9417 17.8659C39.7739 17.9906 40.0099 16.7419 39.2529 16.4491C38.6933 16.2235 37.9673 16.1827 37.2752 16.321C36.3511 16.5054 34.5338 17.2796 34.5287 19.7948C34.5337 21.7935 36.006 22.4448 37.3285 22.2932H37.3284ZM29.1614 24.4354C29.1614 24.4354 29.9322 24.1707 29.9989 24.1473C30.6185 23.9333 30.8442 23.5646 30.8415 22.9265C30.8336 22.2335 30.8325 20.8824 30.8325 20.8824L32.625 22.9494C32.9162 23.2503 33.2811 23.276 33.6152 23.1779C33.9606 23.0767 34.2482 22.7607 34.2569 22.3149C34.2597 20.8222 34.2561 17.1793 34.2561 17.1793C34.2561 17.1793 33.7929 17.2776 33.4085 17.3868C32.9661 17.5122 32.6257 17.7945 32.6257 18.5397C32.6257 18.8036 32.6247 20.3176 32.6247 20.3176C32.6247 20.3176 31.6159 19.0514 30.9563 18.3909C30.6035 18.0383 30.02 18.2488 30.02 18.2488L29.1599 18.5093L29.1614 24.4354ZM28.6187 18.6428C28.6187 18.6428 28.0788 18.8013 27.6395 18.96C27.0691 19.1664 26.7403 19.4967 26.7403 20.3609C26.7403 21.1546 26.7389 25.2856 26.7389 25.2856C26.7389 25.2856 27.2386 25.1146 27.7045 24.9387C28.3668 24.6888 28.6167 24.3478 28.6167 23.6517C28.6167 23.0535 28.6187 18.6428 28.6187 18.6428ZM25.9398 19.8147C25.4443 19.5894 25.019 19.8406 24.8384 20.1183L23.3154 22.7107L23.3127 20.6207L21.5173 21.3651L21.5117 27.2752L22.7764 26.7446C22.7764 26.7446 23.0247 26.6742 23.1745 26.4386C23.3122 26.2215 23.3071 25.8575 23.3071 25.8575L23.3086 23.9833L24.7221 25.4844C25.0325 25.807 25.6027 25.9727 26.1059 25.5659C26.5609 25.1982 26.4904 24.5712 26.2366 24.2905L24.949 22.9933C24.949 22.9933 26.0822 21.2059 26.2674 20.9072C26.5134 20.5105 26.3896 20.0192 25.9398 19.8147Z" fill="#EC1D23"/>
<path d="M25.2367 26.7619C25.1698 26.916 25.3223 27.0688 25.3223 27.0688C25.9757 27.8894 28.8772 28.93 32.0266 28.1682C36.8361 27.0041 37.8523 23.5988 37.9674 23.118C37.9911 23.0199 38.0098 22.8623 37.9189 22.7676C37.8426 22.6886 37.7343 22.6878 37.5839 22.7226C34.2434 23.5085 28.6847 25.2067 25.48 26.5809C25.342 26.6401 25.2796 26.6618 25.2367 26.7619Z" fill="#FFBB36"/>
<path d="M22.3844 19.0162C22.38 18.6904 22.127 18.5127 21.6897 18.7323L21.6888 19.7796C21.6888 19.7796 21.8302 19.7169 21.9339 19.6686C22.1896 19.5499 22.3904 19.3364 22.3844 19.0162ZM21.6811 18.0696C21.7492 18.0432 21.816 18.0139 21.8815 17.9817C22.1184 17.8662 22.287 17.6521 22.289 17.3748C22.2914 17.0591 22.0316 16.9775 21.6816 17.1586L21.6811 18.0696ZM23.5322 18.8666C23.5464 19.6931 22.9515 20.1328 22.1765 20.4541L20.5891 21.1291L20.5854 16.8249C20.5854 16.8249 21.5856 16.4169 21.9119 16.2981C22.8394 15.9603 23.3848 16.3675 23.3848 16.9876C23.3848 17.4013 23.2078 17.7531 22.8237 18.0621C23.202 18.1252 23.5249 18.4362 23.5322 18.8666ZM26.5456 15.2337C26.5456 14.8712 26.2964 14.7748 25.9951 14.8616C25.7514 14.9314 25.4677 15.0423 25.4677 15.0423L25.4657 17.7181C25.4628 17.9847 25.4216 18.3183 25.0935 18.401C24.8417 18.4645 24.7226 18.2963 24.7223 18.0303L24.7187 15.8401C24.7187 15.4757 24.4654 15.3666 24.1651 15.4664C23.8274 15.5792 23.6245 15.6605 23.6245 15.6605C23.6245 15.6605 23.6284 17.5554 23.6238 18.3131C23.6194 19.2013 24.2314 19.6448 25.1641 19.3691C25.987 19.1256 26.5364 18.6648 26.5468 17.4818L26.5456 15.2337ZM35.3678 16.3396C35.6048 16.2884 35.7527 16.1206 35.7527 15.8308C35.7527 15.5696 35.7537 15.371 35.7537 15.371L34.4661 15.6526L34.4684 14.8945C34.4684 14.8945 35.0996 14.7605 35.2748 14.7223C35.4951 14.674 35.6104 14.5538 35.6104 14.3019C35.6104 14.067 35.6089 13.8637 35.6089 13.8637L34.468 14.1059L34.4678 13.5048C34.4678 13.5048 35.0609 13.3809 35.3805 13.3137C35.6295 13.2613 35.7117 13.0906 35.7117 12.8558C35.7117 12.7028 35.7141 12.4001 35.7141 12.4001C35.145 12.5006 34.0632 12.7169 33.3886 12.8716L33.3794 16.7952C33.3794 16.7952 34.6622 16.4928 35.3678 16.3396ZM27.9271 16.1811C27.928 16.1804 28.5641 15.8515 28.5571 15.3299C28.5508 14.8838 28.1403 14.9814 27.9273 15.0596L27.9271 16.1811ZM27.9287 16.7864C27.9287 16.7864 27.9266 17.5378 27.9255 17.841C27.9229 18.1252 27.729 18.3305 27.4835 18.4244C27.2782 18.4949 26.842 18.6451 26.842 18.6451L26.8437 14.6047C26.8437 14.6047 27.7445 14.2907 28.2741 14.1675C29.0972 13.9759 29.6826 14.3507 29.672 15.0161C29.6669 15.6497 29.3137 16.0341 28.9966 16.2973L29.6936 16.9671C29.9078 17.1748 29.9228 17.5502 29.6818 17.7771C29.539 17.9114 29.1569 18.0506 28.8578 17.746L27.9287 16.7864ZM37.0422 14.008C37.0435 14.008 37.6705 13.769 37.6634 13.2658C37.6569 12.8402 37.2382 12.9173 37.0405 12.9614L37.0422 14.008V14.008ZM35.9899 16.2219L35.9916 12.3478C35.9916 12.3478 37.1218 12.1478 37.4137 12.1102C38.224 12.0061 38.7677 12.4561 38.7566 13.0955C38.7523 13.6578 38.3993 13.9961 38.0993 14.1991C38.0993 14.1991 38.6505 14.8206 38.7982 14.985C38.9966 15.2066 38.9877 15.5855 38.6942 15.771C38.4057 15.9531 38.1199 15.8579 37.954 15.6745L37.0441 14.6065C37.0441 14.6065 37.047 15.2634 37.0463 15.5502C37.0436 15.8357 36.8786 16.0438 36.5827 16.105L35.9899 16.2219Z" fill="#EC1D23"/>
<path d="M33.1255 14.5958L31.5222 14.9602C31.5222 14.9602 31.5202 15.1298 31.52 15.4065C31.5222 15.6141 31.6676 15.7488 31.8768 15.7057C32.0088 15.6783 32.1144 15.6538 32.1144 15.6538L32.1168 16.0994C32.1185 16.2757 31.8542 16.3912 31.5797 16.3848C31.195 16.3748 30.9817 16.0757 30.9762 15.5064C30.9881 14.758 31.3399 14.3186 31.8191 14.1959C32.0585 14.1342 32.2762 14.1642 32.4454 14.1862C32.8585 14.253 33.0964 14.0537 33.1048 13.712C33.1134 13.346 32.7891 13.1197 32.0929 13.1439C30.5834 13.196 29.8115 14.2815 29.8115 15.5769C29.8115 16.9036 30.6775 17.4896 31.7345 17.2984C32.3318 17.1778 32.6289 16.9837 32.8348 16.803C33.0407 16.6223 33.1255 16.352 33.1255 16.1213V14.5958Z" fill="#EC1D23"/>
<path d="M26.8086 10.2567C25.0404 11.0379 23.8466 12.8974 23.7809 13.6845C23.7551 13.9974 24.1696 14.0423 24.2086 13.71C24.5817 12.2743 25.7237 10.9206 26.8086 10.2567ZM32.668 11.5909C33.6217 11.3567 34.1454 11.3214 34.1549 10.895C34.1714 10.1811 32.1361 9.35317 30.2724 9.50313C32.1713 9.63012 33.3104 10.3617 33.3166 10.8716C33.3202 11.1941 33.0409 11.4787 32.668 11.5909ZM33.259 27.372C34.69 26.8087 36.0652 25.7326 36.826 24.1209C37.0455 23.6551 36.4107 23.4172 36.2314 23.9641C35.7861 25.11 34.8709 26.4555 33.259 27.372Z" fill="white"/>
</svg>
