<svg width="80" height="40" viewBox="0 0 80 40" fill="none" xmlns="http://www.w3.org/2000/svg">
<path d="M12.5633 23.4862L13.1143 24.0371L16.5143 20.637L15.9634 20.0861L12.5633 23.4862Z" fill="black"/>
<path d="M16.1585 19.8978L16.7095 20.4487L20.1095 17.0487L19.5586 16.4977L16.1585 19.8978Z" fill="black"/>
<path d="M16.862 20.3001L16.311 20.8511L19.4907 24.0308L20.0417 23.4798L16.862 20.3001Z" fill="black"/>
<path d="M13.2326 16.6722L12.6816 17.2231L15.8613 20.4028L16.4123 19.8519L13.2326 16.6722Z" fill="black"/>
<path d="M16.2988 19.9074V20.6865H21.1964V19.9074H16.2988Z" fill="black"/>
<path d="M11.5508 19.924V20.7031H16.4483V19.924H11.5508Z" fill="black"/>
<path d="M16.701 15.4023H15.9219V20.2999H16.701V15.4023Z" fill="black"/>
<path d="M16.701 20.2998H15.9219V25.1973H16.701V20.2998Z" fill="black"/>
<path d="M16.2996 21.7911C17.1234 21.7911 17.7911 21.1234 17.7911 20.2996C17.7911 19.4759 17.1234 18.8081 16.2996 18.8081C15.4759 18.8081 14.8081 19.4759 14.8081 20.2996C14.8081 21.1234 15.4759 21.7911 16.2996 21.7911Z" fill="black"/>
<path d="M21.1087 21.7911C21.9325 21.7911 22.6002 21.1234 22.6002 20.2996C22.6002 19.4759 21.9325 18.8081 21.1087 18.8081C20.285 18.8081 19.6172 19.4759 19.6172 20.2996C19.6172 21.1234 20.285 21.7911 21.1087 21.7911Z" fill="black"/>
<path d="M11.4915 21.7911C12.3153 21.7911 12.983 21.1234 12.983 20.2996C12.983 19.4759 12.3153 18.8081 11.4915 18.8081C10.6678 18.8081 10 19.4759 10 20.2996C10 21.1234 10.6678 21.7911 11.4915 21.7911Z" fill="black"/>
<path d="M16.2996 26.6002C17.1234 26.6002 17.7911 25.9325 17.7911 25.1087C17.7911 24.285 17.1234 23.6172 16.2996 23.6172C15.4759 23.6172 14.8081 24.285 14.8081 25.1087C14.8081 25.9325 15.4759 26.6002 16.2996 26.6002Z" fill="black"/>
<path d="M16.2996 16.983C17.1234 16.983 17.7911 16.3153 17.7911 15.4915C17.7911 14.6678 17.1234 14 16.2996 14C15.4759 14 14.8081 14.6678 14.8081 15.4915C14.8081 16.3153 15.4759 16.983 16.2996 16.983Z" fill="black"/>
<path d="M11.7808 15.7808C11.202 16.3596 11.202 17.3168 11.7808 17.8956C12.3596 18.4744 13.3168 18.4744 13.8956 17.8956C14.4744 17.3168 14.4744 16.3596 13.8956 15.7808C13.3168 15.202 12.3818 15.202 11.7808 15.7808Z" fill="black"/>
<path d="M18.7046 22.7046C18.1258 23.2834 18.1258 24.2406 18.7046 24.8194C19.2834 25.3982 20.2406 25.3982 20.8194 24.8194C21.3982 24.2406 21.3982 23.2834 20.8194 22.7046C20.2406 22.1258 19.2834 22.1258 18.7046 22.7046Z" fill="black"/>
<path d="M18.7046 15.7808C18.1258 16.3596 18.1258 17.3168 18.7046 17.8956C19.2834 18.4744 20.2406 18.4744 20.8194 17.8956C21.3982 17.3168 21.3982 16.3596 20.8194 15.7808C20.2406 15.202 19.2834 15.202 18.7046 15.7808Z" fill="black"/>
<path d="M12.8494 25.2643C13.6732 25.2643 14.3409 24.5965 14.3409 23.7728C14.3409 22.949 13.6732 22.2812 12.8494 22.2812C12.0257 22.2812 11.3579 22.949 11.3579 23.7728C11.3579 24.5965 12.0257 25.2643 12.8494 25.2643Z" fill="black"/>
<path d="M29.2115 22.2823V20.5459H27.3638V22.2823H26.3843V17.9858H27.3638V19.6332H29.2115V17.9858H30.191V22.2823H29.2115Z" fill="black"/>
<path d="M31.8828 22.2818V17.9854H34.8881V18.8535H32.8178V19.6772H34.71V20.5009H32.8178V21.3914H34.9549V22.2596H31.8828V22.2818Z" fill="black"/>
<path d="M36.1792 18.8535V17.9854H39.741V18.8535H38.4499V22.2818H37.4704V18.8535H36.1792Z" fill="black"/>
<path d="M41.1433 18.5416C41.5663 18.1186 42.1228 17.896 42.7907 17.896C43.4585 17.896 44.0151 18.0963 44.438 18.4971C44.861 18.8978 45.0836 19.432 45.0836 20.1221C45.0836 20.7677 44.861 21.302 44.438 21.725C44.0151 22.1479 43.4585 22.3483 42.8129 22.3483C42.1451 22.3483 41.5886 22.1479 41.1656 21.7472C40.7426 21.3465 40.52 20.8123 40.52 20.1221C40.52 19.4988 40.7204 18.9645 41.1433 18.5416ZM41.9225 21.0571C42.1674 21.302 42.4568 21.4356 42.7907 21.4356C43.1914 21.4356 43.4808 21.302 43.7034 21.0794C43.926 20.8345 44.0373 20.5229 44.0373 20.1444C44.0373 19.766 43.926 19.4543 43.6811 19.2094C43.4363 18.9645 43.1469 18.8532 42.7907 18.8532C42.4345 18.8532 42.1228 18.9868 41.9002 19.2094C41.6776 19.4543 41.544 19.766 41.544 20.1444C41.5663 20.5006 41.6776 20.79 41.9225 21.0571Z" fill="black"/>
<path d="M48.8903 22.2811V18.8974H48.0221L47.9331 19.6988C47.6659 21.9695 47.1539 22.437 46.1299 22.2589L46.1521 21.2794C46.308 21.3016 46.4193 21.3016 46.5751 21.1235C46.6419 21.0345 46.7087 20.9009 46.7755 20.7451C46.8868 20.4112 46.9981 19.7433 47.0649 18.8306L47.1316 17.9624H49.9366V22.2589H48.8903V22.2811Z" fill="black"/>
<path d="M51.8514 18.5416C52.2744 18.1186 52.8309 17.896 53.4988 17.896C54.1666 17.896 54.7231 18.0963 55.1461 18.4971C55.5691 18.8978 55.7917 19.432 55.7917 20.1221C55.7917 20.7677 55.5691 21.302 55.1461 21.725C54.7231 22.1479 54.1666 22.3483 53.521 22.3483C52.8532 22.3483 52.2966 22.1479 51.8737 21.7472C51.4507 21.3465 51.2281 20.8123 51.2281 20.1221C51.2058 19.4988 51.4284 18.9645 51.8514 18.5416ZM52.6083 21.0571C52.8532 21.302 53.1426 21.4356 53.4765 21.4356C53.8772 21.4356 54.1666 21.302 54.3892 21.0794C54.6118 20.8345 54.7231 20.5229 54.7231 20.1444C54.7231 19.766 54.6118 19.4543 54.367 19.2094C54.1221 18.9645 53.8327 18.8532 53.4765 18.8532C53.1203 18.8532 52.8087 18.9868 52.586 19.2094C52.3634 19.4543 52.2299 19.766 52.2299 20.1444C52.2521 20.5006 52.3857 20.79 52.6083 21.0571Z" fill="black"/>
<path d="M57.105 22.2818V17.9854H59.8209V18.8981H58.0845V22.2818H57.105Z" fill="black"/>
<path d="M61.9356 22.2818H61.0674V17.9854H62.0469V20.6567L63.9614 17.9854H64.8296V22.2818H63.8501V19.6104L61.9356 22.2818Z" fill="black"/>
<path d="M68.7259 22.2819V20.9017H67.9467L67.123 22.2819H66.0322L67.034 20.6791C66.5888 20.4119 66.3661 20.0335 66.3661 19.4992C66.3661 19.054 66.522 18.6755 66.8114 18.3861C67.123 18.0967 67.5905 17.9409 68.2139 17.9409C68.3029 17.9409 68.8372 17.9409 69.1266 17.9632C69.416 17.9632 69.5495 17.9854 69.6163 17.9854V22.2819H68.7259ZM68.7259 19.9667V18.8982C68.6368 18.8759 68.1916 18.8759 68.0358 18.8759C67.7018 18.8759 67.4347 19.0985 67.4347 19.4324C67.4347 19.7441 67.6351 19.9222 67.8799 19.9667H68.7259Z" fill="black"/>
</svg>
