<svg width="50" height="46" viewBox="0 0 50 46" fill="none" xmlns="http://www.w3.org/2000/svg">
<g filter="url(#filter0_d)">
<path fill-rule="evenodd" clip-rule="evenodd" d="M21.9407 0L5.63135 6.06516L23.42 13.5644L40.0972 5.47755L21.9407 0V0ZM4.00205 24.8585L7.95098 26.6316L7.95304 8.34987L4.00411 6.5747L4 24.8606L4.00205 24.8585ZM38.0015 7.59583C31.8582 10.3552 30.7077 14.4726 30.7056 16.4881C30.7056 19.2577 32.2486 20.1001 34.9422 19.5227L38.7596 18.7153C40.7731 18.29 42.2093 17.9962 42.2093 19.4323C42.2072 21.3472 40.1177 22.7402 38.2336 23.5847C34.784 25.1338 34.2087 23.4511 34.2087 22.4218L30.418 24.123C30.418 24.9859 30.5926 25.9988 31.1905 26.7549L28.9489 27.7617L28.951 12.6255L25.0041 14.3965L25 32.6804L38.4124 26.6604V26.6501C38.4473 26.6337 38.4843 26.6193 38.5192 26.6049C40.1937 25.8529 45.9979 22.767 46 17.2524C46 13.9795 43.6208 14.039 41.032 14.5732L36.4071 15.5677C35.6222 15.7423 34.3936 15.993 34.3936 14.5568C34.3936 12.9213 36.1975 11.5571 37.7159 10.875C41.1655 9.32374 41.4799 11.1236 41.5847 11.9084L45.3754 10.2052C45.3754 8.58409 44.5556 6.58086 41.9072 6.58086C40.8923 6.58086 39.6102 6.87467 38.0035 7.59583H38.0015ZM9.35427 27.359L13.3011 29.1321L13.3032 22.5327L17.8521 24.577C22.9495 26.8679 23.8905 23.0854 23.8926 21.4479C23.8926 17.8462 21.6983 14.6184 18.037 12.9727L9.35838 9.07103L9.35427 27.3549V27.359ZM16.9891 21.0431L13.3032 19.3871L13.3053 13.9959L16.4673 15.4177C18.9246 16.521 19.9436 17.7353 19.9436 19.5248C19.9436 20.3713 19.7526 21.4602 18.5609 21.4602C18.1603 21.4602 17.6466 21.337 16.9912 21.0431H16.9891ZM23.2721 34.9014L4.00411 26.4118V28.7109L23.418 37.2847L42.5442 28.563V26.2125L23.2721 34.9014Z" fill="url(#paint0_linear)"/>
<path d="M14.3389 26.3685C14.3491 26.1713 14.3861 26.009 14.4498 25.8775C14.5115 25.748 14.5936 25.6515 14.6923 25.5878C14.7929 25.5241 14.9059 25.4912 15.0374 25.4912C15.1669 25.4912 15.3045 25.52 15.4463 25.5796C15.7976 25.7254 16.0688 25.9371 16.264 26.2185C16.4572 26.498 16.5537 26.8267 16.5537 27.2047C16.5537 27.3835 16.5311 27.5396 16.49 27.6691C16.4469 27.7965 16.3811 27.9197 16.2948 28.0348L15.3805 29.1155L16.527 29.5922V30.4407L14.3635 29.5429V28.7745L15.6353 27.2993C15.6764 27.2458 15.7052 27.1863 15.7196 27.1205C15.7339 27.0548 15.7422 26.9828 15.7422 26.9027C15.7422 26.8144 15.7175 26.7219 15.6723 26.6233C15.625 26.5267 15.5511 26.4569 15.4545 26.4178C15.3785 26.387 15.3086 26.3952 15.2388 26.4425C15.171 26.4897 15.1319 26.6151 15.1217 26.8164L14.3409 26.3665L14.3389 26.3685Z" fill="#676766"/>
<path d="M18.2918 27.9265C18.2918 27.8176 18.263 27.7231 18.2096 27.6471C18.1541 27.571 18.0863 27.5135 18.0042 27.4786C17.9179 27.4437 17.848 27.4416 17.7925 27.4724C17.7371 27.5053 17.7104 27.5752 17.7104 27.684V29.8003C17.7104 29.9092 17.7391 30.0016 17.7925 30.0797C17.848 30.1578 17.9179 30.2132 18.0042 30.2502C18.0884 30.2852 18.1562 30.2852 18.2096 30.2543C18.2651 30.2235 18.2918 30.1516 18.2918 30.0427V27.9265ZM19.0828 30.3756C19.0828 30.5605 19.0541 30.7125 18.9945 30.8317C18.9349 30.9488 18.8568 31.0371 18.7602 31.0967C18.6637 31.1543 18.5486 31.183 18.4192 31.181C18.2897 31.181 18.15 31.1481 18.0042 31.0885C17.8562 31.0289 17.7186 30.9447 17.5871 30.8358C17.4556 30.729 17.3405 30.6057 17.2419 30.466C17.1433 30.3262 17.0652 30.1742 17.0077 30.0078C16.9481 29.8393 16.9214 29.6647 16.9214 29.4798V27.3594C16.9214 27.1745 16.9502 27.0225 17.0077 26.9012C17.0673 26.78 17.1453 26.6917 17.246 26.6341C17.3446 26.5766 17.4597 26.5479 17.5912 26.5499C17.7206 26.552 17.8583 26.5828 18.0062 26.6444C18.1521 26.704 18.2939 26.7882 18.4253 26.8951C18.5568 27.004 18.6719 27.1272 18.7705 27.2649C18.8691 27.4046 18.9472 27.5587 19.0027 27.7272C19.0582 27.8957 19.0869 28.0724 19.0869 28.2552V30.3756H19.0828Z" fill="#676766"/>
<path d="M20.1612 31.9466V28.5853L19.6064 28.8093V27.8518L20.2393 27.5991L20.9522 27.8929V32.2754L20.1612 31.9466Z" fill="#676766"/>
<path d="M22.5774 30.4753C22.6822 30.5185 22.7602 30.5082 22.8095 30.4466C22.8589 30.3829 22.8856 30.2514 22.8938 30.0542C22.8938 29.8651 22.8732 29.7172 22.8321 29.6124C22.7911 29.5076 22.7191 29.4337 22.6185 29.3905C22.4973 29.3412 22.4171 29.3597 22.376 29.4439C22.3349 29.5302 22.3123 29.6884 22.3123 29.9185C22.3123 30.0788 22.3349 30.2021 22.3781 30.2884C22.4212 30.3747 22.489 30.4384 22.5794 30.4753H22.5774ZM22.4541 31.0897C22.4233 31.0897 22.3925 31.0856 22.3575 31.0773C22.3247 31.0712 22.2959 31.0609 22.2733 31.0527C22.035 30.9541 21.848 30.7815 21.7103 30.5329C21.5727 30.2843 21.5049 29.9453 21.5049 29.5117C21.5049 29.0536 21.5912 28.7372 21.7638 28.5646C21.9363 28.3899 22.2158 28.3838 22.5979 28.542C22.7972 28.6242 22.9657 28.7248 23.1013 28.8419C23.239 28.9591 23.3499 29.0947 23.4362 29.2446C23.5225 29.3967 23.5862 29.5631 23.6252 29.7439C23.6643 29.9268 23.6828 30.122 23.6828 30.3315C23.6828 30.4075 23.6786 30.4856 23.6725 30.5657C23.6643 30.6459 23.654 30.724 23.6396 30.7959C23.6273 30.8678 23.6108 30.9356 23.5923 30.9972C23.5739 31.0588 23.5554 31.1061 23.5369 31.141L22.6513 32.9778L21.772 32.6142L22.4685 31.1143L22.4521 31.0876L22.4541 31.0897Z" fill="#676766"/>
</g>
<defs>
<filter id="filter0_d" x="0" y="0" width="50" height="45.2847" filterUnits="userSpaceOnUse" color-interpolation-filters="sRGB">
<feFlood flood-opacity="0" result="BackgroundImageFix"/>
<feColorMatrix in="SourceAlpha" type="matrix" values="0 0 0 0 0 0 0 0 0 0 0 0 0 0 0 0 0 0 127 0"/>
<feOffset dy="4"/>
<feGaussianBlur stdDeviation="2"/>
<feColorMatrix type="matrix" values="0 0 0 0 0 0 0 0 0 0 0 0 0 0 0 0 0 0 0.25 0"/>
<feBlend mode="normal" in2="BackgroundImageFix" result="effect1_dropShadow"/>
<feBlend mode="normal" in="SourceGraphic" in2="effect1_dropShadow" result="shape"/>
</filter>
<linearGradient id="paint0_linear" x1="2.89257" y1="24.5647" x2="46.2733" y2="12.9419" gradientUnits="userSpaceOnUse">
<stop stop-color="#FBBA00"/>
<stop offset="1" stop-color="#E85222"/>
</linearGradient>
</defs>
</svg>
