<svg width="60" height="40" viewBox="0 0 60 40" fill="none" xmlns="http://www.w3.org/2000/svg">
<path fill-rule="evenodd" clip-rule="evenodd" d="M27.679 9L17.971 12.6102L28.5595 17.0741L38.4864 12.2604L27.679 9V9ZM17.0012 23.7967L19.3518 24.8522L19.353 13.9702L17.0024 12.9135L17 23.798L17.0012 23.7967ZM37.239 13.5213C33.5823 15.1638 32.8974 17.6146 32.8962 18.8144C32.8962 20.4629 33.8146 20.9643 35.418 20.6207L37.6902 20.1401C38.8888 19.8869 39.7436 19.712 39.7436 20.5669C39.7424 21.7067 38.4986 22.5359 37.3772 23.0385C35.3238 23.9606 34.9814 22.959 34.9814 22.3463L32.725 23.3589C32.725 23.8726 32.8289 24.4755 33.1848 24.9255L31.8506 25.5248L31.8518 16.5152L29.5024 17.5694L29.5 28.4526L37.4836 24.8693V24.8632C37.5044 24.8534 37.5264 24.8448 37.5472 24.8363C38.5439 24.3887 41.9988 22.5518 42 19.2693C42 17.3211 40.5838 17.3566 39.0429 17.6745L36.2899 18.2665C35.8228 18.3704 35.0914 18.5196 35.0914 17.6648C35.0914 16.6913 36.1652 15.8792 37.069 15.4732C39.1223 14.5498 39.3095 15.6212 39.3718 16.0883L41.6282 15.0745C41.6282 14.1096 41.1403 12.9172 39.5638 12.9172C38.9597 12.9172 38.1966 13.0921 37.2402 13.5213H37.239ZM20.1871 25.2851L22.5364 26.3405L22.5376 22.4123L25.2453 23.6292C28.2795 24.9928 28.8396 22.7413 28.8408 21.7666C28.8408 19.6227 27.5347 17.7014 25.3553 16.7218L20.1895 14.3994L20.1871 25.2827V25.2851ZM24.7316 21.5257L22.5376 20.54L22.5388 17.3309L24.421 18.1772C25.8837 18.8339 26.4903 19.5567 26.4903 20.6219C26.4903 21.1258 26.3765 21.7739 25.6672 21.7739C25.4287 21.7739 25.123 21.7006 24.7329 21.5257H24.7316ZM28.4715 29.7746L17.0024 24.7213V26.0898L28.5583 31.1933L39.943 26.0018V24.6027L28.4715 29.7746Z" fill="url(#paint0_linear)"/>
<path d="M23.1538 24.696C23.1599 24.5786 23.1819 24.482 23.2198 24.4037C23.2565 24.3267 23.3055 24.2692 23.3642 24.2313C23.4241 24.1934 23.4913 24.1738 23.5696 24.1738C23.6467 24.1738 23.7286 24.1909 23.813 24.2264C24.0221 24.3132 24.1836 24.4392 24.2997 24.6068C24.4147 24.7731 24.4722 24.9688 24.4722 25.1938C24.4722 25.3002 24.4587 25.3931 24.4343 25.4702C24.4086 25.546 24.3694 25.6194 24.3181 25.6879L23.7739 26.3312L24.4563 26.6149V27.12L23.1685 26.5855V26.1281L23.9255 25.25C23.95 25.2182 23.9671 25.1828 23.9756 25.1436C23.9842 25.1045 23.9891 25.0617 23.9891 25.014C23.9891 24.9614 23.9744 24.9064 23.9475 24.8477C23.9194 24.7902 23.8754 24.7486 23.8179 24.7254C23.7726 24.707 23.7311 24.7119 23.6895 24.7401C23.6491 24.7682 23.6259 24.8428 23.6198 24.9626L23.155 24.6948L23.1538 24.696Z" fill="#676766"/>
<path d="M25.5066 25.6232C25.5066 25.5583 25.4895 25.5021 25.4577 25.4568C25.4247 25.4116 25.3843 25.3773 25.3354 25.3566C25.2841 25.3358 25.2425 25.3345 25.2095 25.3529C25.1764 25.3725 25.1605 25.414 25.1605 25.4789V26.7385C25.1605 26.8033 25.1777 26.8584 25.2095 26.9048C25.2425 26.9513 25.2841 26.9843 25.3354 27.0063C25.3856 27.0271 25.4259 27.0271 25.4577 27.0088C25.4907 26.9904 25.5066 26.9476 25.5066 26.8828V25.6232ZM25.9775 27.0809C25.9775 27.191 25.9604 27.2815 25.9249 27.3524C25.8894 27.4222 25.843 27.4747 25.7855 27.5102C25.728 27.5445 25.6595 27.5616 25.5825 27.5604C25.5054 27.5604 25.4223 27.5408 25.3354 27.5053C25.2474 27.4699 25.1654 27.4197 25.0872 27.3549C25.0089 27.2913 24.9404 27.2179 24.8817 27.1348C24.823 27.0516 24.7765 26.9611 24.7423 26.862C24.7068 26.7618 24.6909 26.6578 24.6909 26.5477V25.2856C24.6909 25.1756 24.708 25.0851 24.7423 25.0129C24.7777 24.9407 24.8242 24.8882 24.8841 24.8539C24.9428 24.8197 25.0113 24.8025 25.0896 24.8038C25.1667 24.805 25.2486 24.8233 25.3366 24.86C25.4235 24.8955 25.5079 24.9456 25.5861 25.0092C25.6644 25.074 25.7329 25.1474 25.7916 25.2294C25.8503 25.3125 25.8968 25.4043 25.9298 25.5045C25.9628 25.6048 25.9799 25.71 25.9799 25.8188V27.0809H25.9775Z" fill="#676766"/>
<path d="M26.6198 28.016V26.0152L26.2896 26.1486V25.5786L26.6662 25.4282L27.0906 25.6031V28.2117L26.6198 28.016Z" fill="#676766"/>
<path d="M28.0583 27.1399C28.1207 27.1656 28.1672 27.1595 28.1965 27.1228C28.2259 27.0849 28.2418 27.0066 28.2467 26.8892C28.2467 26.7767 28.2344 26.6886 28.21 26.6263C28.1855 26.5639 28.1427 26.5199 28.0828 26.4942C28.0106 26.4648 27.9629 26.4758 27.9385 26.526C27.914 26.5773 27.9006 26.6715 27.9006 26.8085C27.9006 26.9039 27.914 26.9773 27.9397 27.0286C27.9654 27.08 28.0057 27.1179 28.0595 27.1399H28.0583ZM27.9849 27.5056C27.9666 27.5056 27.9482 27.5031 27.9275 27.4982C27.9079 27.4946 27.8908 27.4885 27.8773 27.4836C27.7354 27.4249 27.6242 27.3221 27.5422 27.1742C27.4603 27.0262 27.4199 26.8244 27.4199 26.5663C27.4199 26.2936 27.4713 26.1053 27.574 26.0025C27.6767 25.8986 27.8431 25.8949 28.0705 25.9891C28.1892 26.038 28.2895 26.0979 28.3702 26.1676C28.4521 26.2374 28.5182 26.3181 28.5695 26.4074C28.6209 26.4979 28.6588 26.5969 28.682 26.7045C28.7053 26.8134 28.7163 26.9296 28.7163 27.0543C28.7163 27.0996 28.7138 27.146 28.7102 27.1937C28.7053 27.2414 28.6992 27.2879 28.6906 27.3307C28.6833 27.3735 28.6735 27.4139 28.6625 27.4505C28.6515 27.4872 28.6404 27.5154 28.6294 27.5362L28.1023 28.6295L27.5789 28.413L27.9935 27.5203L27.9837 27.5044L27.9849 27.5056Z" fill="#676766"/>
<defs>
<linearGradient id="paint0_linear" x1="16.3408" y1="23.6219" x2="42.1627" y2="16.7035" gradientUnits="userSpaceOnUse">
<stop stop-color="#FBBA00"/>
<stop offset="1" stop-color="#E85222"/>
</linearGradient>
</defs>
</svg>
