<svg width="42" height="38" viewBox="0 0 42 38" fill="none" xmlns="http://www.w3.org/2000/svg">
<path fill-rule="evenodd" clip-rule="evenodd" d="M17.9407 0L1.63135 6.06516L19.42 13.5644L36.0972 5.47755L17.9407 0V0ZM0.00205459 24.8585L3.95098 26.6316L3.95304 8.34987L0.00410919 6.5747L0 24.8606L0.00205459 24.8585ZM34.0015 7.59583C27.8582 10.3552 26.7077 14.4726 26.7056 16.4881C26.7056 19.2577 28.2486 20.1001 30.9422 19.5227L34.7596 18.7153C36.7731 18.29 38.2093 17.9962 38.2093 19.4323C38.2072 21.3472 36.1177 22.7402 34.2336 23.5847C30.784 25.1338 30.2087 23.4511 30.2087 22.4218L26.418 24.123C26.418 24.9859 26.5926 25.9988 27.1905 26.7549L24.9489 27.7617L24.951 12.6255L21.0041 14.3965L21 32.6804L34.4124 26.6604V26.6501C34.4473 26.6337 34.4843 26.6193 34.5192 26.6049C36.1937 25.8529 41.9979 22.767 42 17.2524C42 13.9795 39.6208 14.039 37.032 14.5732L32.4071 15.5677C31.6222 15.7423 30.3936 15.993 30.3936 14.5568C30.3936 12.9213 32.1975 11.5571 33.7159 10.875C37.1655 9.32374 37.4799 11.1236 37.5847 11.9084L41.3754 10.2052C41.3754 8.58409 40.5556 6.58086 37.9072 6.58086C36.8923 6.58086 35.6102 6.87467 34.0035 7.59583H34.0015ZM5.35427 27.359L9.30114 29.1321L9.3032 22.5327L13.8521 24.577C18.9495 26.8679 19.8905 23.0854 19.8926 21.4479C19.8926 17.8462 17.6983 14.6184 14.037 12.9727L5.35838 9.07103L5.35427 27.3549V27.359ZM12.9891 21.0431L9.3032 19.3871L9.30525 13.9959L12.4673 15.4177C14.9246 16.521 15.9436 17.7353 15.9436 19.5248C15.9436 20.3713 15.7526 21.4602 14.5609 21.4602C14.1603 21.4602 13.6466 21.337 12.9912 21.0431H12.9891ZM19.2721 34.9014L0.00410919 26.4118V28.7109L19.418 37.2847L38.5442 28.563V26.2125L19.2721 34.9014Z" fill="url(#paint0_linear)"/>
<path d="M10.3389 26.3685C10.3491 26.1713 10.3861 26.009 10.4498 25.8775C10.5115 25.748 10.5936 25.6515 10.6923 25.5878C10.7929 25.5241 10.9059 25.4912 11.0374 25.4912C11.1669 25.4912 11.3045 25.52 11.4463 25.5796C11.7976 25.7254 12.0688 25.9371 12.264 26.2185C12.4572 26.498 12.5537 26.8267 12.5537 27.2047C12.5537 27.3835 12.5311 27.5396 12.49 27.6691C12.4469 27.7965 12.3811 27.9197 12.2948 28.0348L11.3805 29.1155L12.527 29.5922V30.4407L10.3635 29.5429V28.7745L11.6353 27.2993C11.6764 27.2458 11.7052 27.1863 11.7196 27.1205C11.7339 27.0548 11.7422 26.9828 11.7422 26.9027C11.7422 26.8144 11.7175 26.7219 11.6723 26.6233C11.625 26.5267 11.5511 26.4569 11.4545 26.4178C11.3785 26.387 11.3086 26.3952 11.2388 26.4425C11.171 26.4897 11.1319 26.6151 11.1217 26.8164L10.3409 26.3665L10.3389 26.3685Z" fill="#676766"/>
<path d="M14.2918 27.9265C14.2918 27.8176 14.263 27.7231 14.2096 27.6471C14.1541 27.571 14.0863 27.5135 14.0042 27.4786C13.9179 27.4437 13.848 27.4416 13.7925 27.4724C13.7371 27.5053 13.7104 27.5752 13.7104 27.684V29.8003C13.7104 29.9092 13.7391 30.0016 13.7925 30.0797C13.848 30.1578 13.9179 30.2132 14.0042 30.2502C14.0884 30.2852 14.1562 30.2852 14.2096 30.2543C14.2651 30.2235 14.2918 30.1516 14.2918 30.0427V27.9265ZM15.0828 30.3756C15.0828 30.5605 15.0541 30.7125 14.9945 30.8317C14.9349 30.9488 14.8568 31.0371 14.7602 31.0967C14.6637 31.1543 14.5486 31.183 14.4192 31.181C14.2897 31.181 14.15 31.1481 14.0042 31.0885C13.8562 31.0289 13.7186 30.9447 13.5871 30.8358C13.4556 30.729 13.3405 30.6057 13.2419 30.466C13.1433 30.3262 13.0652 30.1742 13.0077 30.0078C12.9481 29.8393 12.9214 29.6647 12.9214 29.4798V27.3594C12.9214 27.1745 12.9502 27.0225 13.0077 26.9012C13.0673 26.78 13.1453 26.6917 13.246 26.6341C13.3446 26.5766 13.4597 26.5479 13.5912 26.5499C13.7206 26.552 13.8583 26.5828 14.0062 26.6444C14.1521 26.704 14.2939 26.7882 14.4253 26.8951C14.5568 27.004 14.6719 27.1272 14.7705 27.2649C14.8691 27.4046 14.9472 27.5587 15.0027 27.7272C15.0582 27.8957 15.0869 28.0724 15.0869 28.2552V30.3756H15.0828Z" fill="#676766"/>
<path d="M16.1612 31.9466V28.5853L15.6064 28.8093V27.8518L16.2393 27.5991L16.9522 27.8929V32.2754L16.1612 31.9466Z" fill="#676766"/>
<path d="M18.5774 30.4753C18.6822 30.5185 18.7602 30.5082 18.8095 30.4466C18.8589 30.3829 18.8856 30.2514 18.8938 30.0542C18.8938 29.8651 18.8732 29.7172 18.8321 29.6124C18.7911 29.5076 18.7191 29.4337 18.6185 29.3905C18.4973 29.3412 18.4171 29.3597 18.376 29.4439C18.3349 29.5302 18.3123 29.6884 18.3123 29.9185C18.3123 30.0788 18.3349 30.2021 18.3781 30.2884C18.4212 30.3747 18.489 30.4384 18.5794 30.4753H18.5774ZM18.4541 31.0897C18.4233 31.0897 18.3925 31.0856 18.3575 31.0773C18.3247 31.0712 18.2959 31.0609 18.2733 31.0527C18.035 30.9541 17.848 30.7815 17.7103 30.5329C17.5727 30.2843 17.5049 29.9453 17.5049 29.5117C17.5049 29.0536 17.5912 28.7372 17.7638 28.5646C17.9363 28.3899 18.2158 28.3838 18.5979 28.542C18.7972 28.6242 18.9657 28.7248 19.1013 28.8419C19.239 28.9591 19.3499 29.0947 19.4362 29.2446C19.5225 29.3967 19.5862 29.5631 19.6252 29.7439C19.6643 29.9268 19.6828 30.122 19.6828 30.3315C19.6828 30.4075 19.6786 30.4856 19.6725 30.5657C19.6643 30.6459 19.654 30.724 19.6396 30.7959C19.6273 30.8678 19.6108 30.9356 19.5923 30.9972C19.5739 31.0588 19.5554 31.1061 19.5369 31.141L18.6513 32.9778L17.772 32.6142L18.4685 31.1143L18.4521 31.0876L18.4541 31.0897Z" fill="#676766"/>
<defs>
<linearGradient id="paint0_linear" x1="-1.10743" y1="24.5647" x2="42.2733" y2="12.9419" gradientUnits="userSpaceOnUse">
<stop stop-color="#FBBA00"/>
<stop offset="1" stop-color="#E85222"/>
</linearGradient>
</defs>
</svg>
