<svg width="110" height="49" viewBox="0 0 110 49" fill="none" xmlns="http://www.w3.org/2000/svg">
<g filter="url(#filter0_d)">
<path d="M20.8208 25.8544H24.2115V17.1963H20.8208V25.8544Z" fill="#2B2A29"/>
<path d="M24.8254 14.133C24.8254 15.3631 23.8152 16.3762 22.5891 16.3762C21.3627 16.3762 20.377 15.3631 20.377 14.133C20.377 12.8796 21.3627 11.9146 22.5891 11.9146C23.8151 11.9146 24.8254 12.8796 24.8254 14.133Z" fill="#E72485"/>
<path d="M7.46455 0.000117973C7.46455 0.000117973 3.90577 2.53277 4.00191 7.95943C4.05028 13.4578 9.65296 15.6048 9.65296 15.6048C9.65296 15.6048 5.13233 13.8196 4.69973 7.62132C4.62717 2.31546 7.46455 0 7.46455 0V0.000117973Z" fill="#2B2A29"/>
<path d="M4.98779 40.9998C4.98779 40.9998 13.1152 37.9615 15.7841 27.4222C18.4534 16.7135 8.78689 9.71973 8.78689 9.71973C8.78689 9.71973 16.6017 15.5556 14.2693 27.6389C11.6722 38.0336 4.98779 40.9997 4.98779 40.9997V40.9998Z" fill="#E72485"/>
<path d="M25.4131 17.2202H28.8281V18.3053C29.7414 17.4122 30.5349 17.0752 31.617 17.0752C33.4685 17.0752 34.5507 18.2083 34.5507 20.1137V25.8538H31.1604V21.1268C31.1604 20.2346 30.8478 19.8243 30.174 19.8243C29.6451 19.8243 29.2124 20.1137 28.8281 20.7653V25.8538H25.4131V17.2202Z" fill="#2B2A29"/>
<path d="M41.9324 25.0581C41.067 25.7095 40.1048 25.9989 38.951 25.9989C37.9411 25.9989 36.9068 25.7095 36.282 25.0823C35.8008 24.5753 35.6567 23.9727 35.6567 22.7912V19.3422H34.0938V18.2807L38.2772 14.5913H39.0228V17.196H41.74V19.3421H39.0228V21.9464C39.0228 22.7421 39.3117 23.0796 40.033 23.0796C40.61 23.0796 41.2353 22.8871 41.9323 22.429V25.058L41.9324 25.0581Z" fill="#2B2A29"/>
<path d="M46.3332 18.9325C47.2955 18.9561 47.8001 19.6079 47.824 20.9098H46.3332V22.164H50.5895C50.9499 19.1737 48.9062 17.0508 46.3332 17.0508V18.9325ZM46.3332 25.9989V23.7315C46.6458 23.8521 46.9823 23.9008 47.3674 23.9008C48.2327 23.9008 49.0749 23.587 50.0845 22.8873L50.6856 24.3349C49.7476 25.42 48.401 25.9989 46.718 25.9989H46.3332ZM44.8424 20.9098C44.7703 19.5357 45.4437 18.9325 46.3093 18.9325H46.3332V17.0508H46.3093C43.7604 17.0508 41.8608 18.9325 41.8608 21.4646C41.8608 23.9244 43.592 25.8301 46.3332 25.9989V23.7315C45.54 23.4182 44.9868 22.7912 44.9631 22.164H46.3332V20.9098H44.8424Z" fill="#2B2A29"/>
<path d="M53.9322 17.2202V19.5354H53.9558C54.5572 17.8951 55.4948 17.0752 56.6966 17.0752C57.3702 17.0752 58.0197 17.2923 58.813 17.7261L57.2983 21.1988C56.769 20.6441 56.3364 20.4511 55.8554 20.4511C54.99 20.4511 54.4366 21.2714 54.2443 22.2601V25.8538H50.8296V17.2202H53.9323H53.9322Z" fill="#2B2A29"/>
<path d="M67.1331 16.3996C65.7385 15.6762 64.4636 15.2903 63.1652 15.2903C60.4 15.2903 58.308 17.4123 58.308 20.2589C58.308 23.1755 60.3762 25.2028 63.2613 25.2028C64.5358 25.2028 65.7384 24.865 67.253 24.0685V24.9614C65.9545 25.6608 64.6081 25.9985 63.2613 25.9985C59.8951 25.9985 57.394 23.5621 57.394 20.2589C57.394 16.8578 60.1354 14.5425 63.2133 14.5425C64.4396 14.5425 65.7618 14.8316 67.133 15.4594V16.3997L67.1331 16.3996Z" fill="#2B2A29"/>
<path d="M77.2314 25.8537H76.3658V20.5476H68.9598V25.8537H68.0703V14.687H68.9598V19.8242H76.3658V14.687H77.2314V25.8537Z" fill="#2B2A29"/>
<path d="M84.9019 21.2469H82.5218V21.9709H85.2393L87.0178 25.854H87.9312L82.7867 14.5913H82.5218V16.0621L84.9019 21.2469ZM82.5218 21.2469H80.1656L82.497 16.038L82.5218 16.0621V14.5913H82.2816L77.1831 25.854H78.0727L79.8517 21.9709H82.5216V21.2469H82.5218Z" fill="#2B2A29"/>
<path d="M91.0336 15.411C92.6685 15.5795 93.3902 16.4237 93.3902 17.5815C93.3902 18.7872 92.6446 19.6073 91.0336 19.752V20.5477C91.7789 20.7163 92.2595 21.2229 93.2691 22.7664L95.1932 25.8537H96.203L93.7025 21.9706C93.1972 21.1986 92.7407 20.5477 92.2352 20.2589C93.6548 19.7521 94.3516 18.8355 94.3516 17.5574C94.3516 16.1585 93.4863 14.8316 91.0334 14.7114V15.411H91.0336ZM88.7006 15.3871H90.4801C90.6737 15.3871 90.8659 15.411 91.0336 15.411V14.7114C90.9135 14.7114 90.7932 14.687 90.6491 14.687H87.8589V25.8537H88.7007V20.4992H90.1685C90.5044 20.4992 90.7934 20.4992 91.0337 20.5477V19.752H88.7007V15.3869L88.7006 15.3871Z" fill="#2B2A29"/>
<path d="M105.1 14.687H105.966V25.8537H105.1V15.9412H105.077L100.869 21.1986L96.6363 15.9412H96.612V25.8537H95.7705V14.687H96.612L100.869 19.8967L105.1 14.687Z" fill="#2B2A29"/>
<path fill-rule="evenodd" clip-rule="evenodd" d="M22.8516 39.9633C23.7696 39.9633 24.3529 39.4471 24.3529 38.6965V38.3949C24.3529 37.6445 23.7696 37.1285 22.8516 37.1285H22.0538V35.8953H23.9372V35.2718H21.2632V39.9634H22.8515L22.8516 39.9633ZM22.8381 37.7517C23.3005 37.7517 23.5686 37.986 23.5686 38.3481V38.7434C23.5686 39.1054 23.3003 39.3399 22.8381 39.3399H22.0537V37.7517H22.8381ZM25.036 39.9633H26.5374C27.4555 39.9633 28.0989 39.4471 28.0989 38.6965V38.4015C28.0989 37.6511 27.4555 37.1347 26.5374 37.1347H25.8269V35.2717H25.036V39.9633ZM26.5239 37.7581C26.993 37.7581 27.308 37.9928 27.308 38.3613V38.7434C27.308 39.0985 26.993 39.3399 26.5239 39.3399H25.8269V37.7581H26.5239ZM29.5869 39.9633V37.9056H30.3909V38.7566C30.3909 39.5074 31.0276 40.0234 31.919 40.0234C32.8037 40.0234 33.447 39.5074 33.447 38.7566V36.4781C33.447 35.7277 32.8037 35.2115 31.919 35.2115C31.0276 35.2115 30.3909 35.7277 30.3909 36.4781V37.2826H29.5869V35.2717H28.796V39.9633H29.5869ZM32.6562 38.7971C32.6562 39.1657 32.3414 39.4001 31.919 39.4001C31.4833 39.4001 31.1818 39.1723 31.1818 38.8037V36.4312C31.1818 36.0759 31.4833 35.8344 31.919 35.8344C32.3414 35.8344 32.6562 36.0758 32.6562 36.4312V38.797V38.7971ZM36.9992 35.2717H33.8089V35.8952H35.0086V39.9633H35.7927V35.8952H36.9992V35.2717ZM38.2056 39.9633L39.9477 36.7798V39.9633H40.7389V35.2717H40.0553L38.3128 38.4487V35.2717H37.5219V39.9633H38.2056ZM41.5163 38.2074H42.8965V37.6376H41.5163V38.2074ZM44.4651 39.9633V35.8952H46.0401V39.9633H46.831V35.2717H43.6742V39.9633H44.4651ZM49.1496 38.1002C50.0678 38.1002 50.7109 37.5841 50.7109 36.8334V36.5385C50.7109 35.7878 50.0678 35.2717 49.1496 35.2717H47.6751V39.9633H48.466V38.1002H49.1496ZM49.1364 35.8953C49.5987 35.8953 49.9201 36.1366 49.9201 36.4917V36.8805C49.9201 37.2423 49.5987 37.4837 49.1364 37.4837H48.466V35.8954H49.1364V35.8953ZM54.4841 38.7568V36.4782C54.4841 35.7278 53.8209 35.2117 52.9027 35.2117C51.9846 35.2117 51.3278 35.7278 51.3278 36.4782V38.7568C51.3278 39.5075 51.9846 40.0236 52.9027 40.0236C53.8209 40.0236 54.4841 39.5075 54.4841 38.7568ZM53.6934 38.7972C53.6934 39.1591 53.3515 39.4002 52.9026 39.4002C52.4401 39.4002 52.1118 39.1657 52.1118 38.8038V36.4313C52.1118 36.0761 52.4401 35.8346 52.9026 35.8346C53.3515 35.8346 53.6934 36.0759 53.6934 36.4313V38.7971V38.7972ZM57.9023 39.34H56.0659V37.9057H57.701V37.2827H56.0659V35.8953H57.9023V35.2718H55.2751V39.9634H57.9023V39.34ZM60.9984 39.9634H61.8628L60.2344 37.5372L61.7489 35.2718H60.8778L59.4033 37.4836V35.2718H58.6127V39.9634H59.4033V37.5842L60.9985 39.9634H60.9984ZM65.2273 35.2718H62.037V35.8953H63.2367V39.9634H64.0207V35.8953H65.2273V35.2718ZM67.9547 39.9634V36.8536L69.6773 39.9634H70.3474V35.2718H69.5833V38.3816L67.8675 35.2718H67.1907V39.9634H67.9546H67.9547ZM72.9275 36.4447C72.9275 35.4797 72.4652 35.2117 71.8287 35.2117C71.192 35.2117 70.7359 35.4797 70.7359 36.4447C70.7359 37.4099 71.192 37.6779 71.8287 37.6779C72.4653 37.6779 72.9275 37.4099 72.9275 36.4447ZM72.3111 36.4447C72.3111 37.1484 72.1032 37.2491 71.8287 37.2491C71.5539 37.2491 71.3527 37.1484 71.3527 36.4447C71.3527 35.7412 71.5539 35.6475 71.8287 35.6475C72.1033 35.6475 72.3111 35.7412 72.3111 36.4447ZM73.4102 35.882L73.685 36.398L74.6099 36.0024V39.9634H75.3468V35.2718H74.8442L73.4102 35.8819V35.882ZM77.9471 39.9634H79.5023C80.4538 39.9634 81.0705 39.474 81.0705 38.7972V38.5626C81.0705 38.1137 80.789 37.7383 80.313 37.5439C80.7019 37.3497 80.9297 37.0213 80.9297 36.6257V36.3912C80.9297 35.7411 80.313 35.2718 79.3683 35.2718H77.9471V39.9634ZM79.4821 37.8858C79.9847 37.8858 80.2795 38.1471 80.2795 38.5024V38.7906C80.2795 39.1123 79.9845 39.3401 79.4821 39.3401H78.738V37.8859H79.4821V37.8858ZM79.3412 35.8953C79.8506 35.8953 80.139 36.1165 80.139 36.4179V36.6728C80.139 37.0144 79.8506 37.2624 79.3412 37.2624H78.738V35.8953H79.3412ZM84.6492 38.1002C85.5674 38.1002 86.2108 37.5841 86.2108 36.8334V36.5385C86.2108 35.7878 85.5674 35.2717 84.6492 35.2717H83.1747V39.9633H83.9656V38.1002H84.6492ZM84.6356 35.8953C85.0982 35.8953 85.4201 36.1366 85.4201 36.4917V36.8805C85.4201 37.2423 85.0983 37.4837 84.6356 37.4837H83.9656V35.8954H84.6356V35.8953ZM89.9841 38.7568V36.4782C89.9841 35.7278 89.3205 35.2117 88.4022 35.2117C87.484 35.2117 86.8275 35.7278 86.8275 36.4782V38.7568C86.8275 39.5075 87.484 40.0236 88.4022 40.0236C89.3206 40.0236 89.9841 39.5075 89.9841 38.7568ZM89.1932 38.7972C89.1932 39.1591 88.8513 39.4002 88.4022 39.4002C87.9401 39.4002 87.6114 39.1657 87.6114 38.8038V36.4313C87.6114 36.0761 87.94 35.8346 88.4022 35.8346C88.8514 35.8346 89.1932 36.0759 89.1932 36.4313V38.7971V38.7972ZM93.0936 38.5023V38.7972C93.0936 39.1658 92.7517 39.4002 92.3028 39.4002C91.8404 39.4002 91.5118 39.1724 91.5118 38.8038V36.4313C91.5118 36.0761 91.8404 35.8346 92.3028 35.8346C92.7517 35.8346 93.0936 36.0759 93.0936 36.4313V36.7328H93.8845V36.478C93.8845 35.7276 93.2209 35.2114 92.3028 35.2114C91.3847 35.2114 90.7278 35.7276 90.7278 36.478V38.7565C90.7278 39.5073 91.3847 40.0233 92.3028 40.0233C93.2209 40.0233 93.8845 39.5073 93.8845 38.7565V38.5021H93.0936V38.5023ZM96.9136 38.5023V38.7972C96.9136 39.1658 96.572 39.4002 96.1228 39.4002C95.6605 39.4002 95.3321 39.1724 95.3321 38.8038V36.4313C95.3321 36.0761 95.6605 35.8346 96.1228 35.8346C96.5718 35.8346 96.9136 36.0759 96.9136 36.4313V36.7328H97.7046V36.478C97.7046 35.7276 97.0409 35.2114 96.1228 35.2114C95.2046 35.2114 94.5479 35.7276 94.5479 36.478V38.7565C94.5479 39.5073 95.2045 40.0233 96.1228 40.0233C97.0409 40.0233 97.7046 39.5073 97.7046 38.7565V38.5021H96.9136V38.5023ZM99.0985 39.9633L100.841 36.7798V39.9633H101.632V35.2717H100.948L99.2057 38.4487V35.2717H98.4145V39.9633H99.0985ZM103.16 39.9633L104.902 36.7798V39.9633H105.693V35.2717H105.01L103.267 38.4487V35.2717H102.476V39.9633H103.16Z" fill="#2B2A29"/>
<path fill-rule="evenodd" clip-rule="evenodd" d="M20.5391 31.4004H105.846V30.5615H20.5391V31.4004Z" fill="url(#paint0_linear)"/>
</g>
<defs>
<filter id="filter0_d" x="0" y="0" width="109.966" height="48.9998" filterUnits="userSpaceOnUse" color-interpolation-filters="sRGB">
<feFlood flood-opacity="0" result="BackgroundImageFix"/>
<feColorMatrix in="SourceAlpha" type="matrix" values="0 0 0 0 0 0 0 0 0 0 0 0 0 0 0 0 0 0 127 0"/>
<feOffset dy="4"/>
<feGaussianBlur stdDeviation="2"/>
<feColorMatrix type="matrix" values="0 0 0 0 0 0 0 0 0 0 0 0 0 0 0 0 0 0 0.25 0"/>
<feBlend mode="normal" in2="BackgroundImageFix" result="effect1_dropShadow"/>
<feBlend mode="normal" in="SourceGraphic" in2="effect1_dropShadow" result="shape"/>
</filter>
<linearGradient id="paint0_linear" x1="20.5241" y1="30.981" x2="105.861" y2="30.981" gradientUnits="userSpaceOnUse">
<stop stop-color="#E72485"/>
<stop offset="0.309804" stop-color="#E72485"/>
<stop offset="0.470588" stop-color="#E1C7DE"/>
<stop offset="0.501961" stop-color="#E1C7DE"/>
<stop offset="0.560784" stop-color="#BBE2F1"/>
<stop offset="0.8" stop-color="#068F92"/>
<stop offset="1" stop-color="#068F92"/>
</linearGradient>
</defs>
</svg>
