<svg width="102" height="41" viewBox="0 0 102 41" fill="none" xmlns="http://www.w3.org/2000/svg">
<path d="M16.8208 25.8544H20.2115V17.1963H16.8208V25.8544Z" fill="#2B2A29"/>
<path d="M20.8254 14.133C20.8254 15.3631 19.8152 16.3762 18.5891 16.3762C17.3627 16.3762 16.377 15.3631 16.377 14.133C16.377 12.8796 17.3627 11.9146 18.5891 11.9146C19.8151 11.9146 20.8254 12.8796 20.8254 14.133Z" fill="#E72485"/>
<path d="M3.46455 0.000117973C3.46455 0.000117973 -0.0942346 2.53277 0.00191373 7.95943C0.0502828 13.4578 5.65296 15.6048 5.65296 15.6048C5.65296 15.6048 1.13233 13.8196 0.699726 7.62132C0.627173 2.31546 3.46455 0 3.46455 0V0.000117973Z" fill="#2B2A29"/>
<path d="M0.987793 40.9998C0.987793 40.9998 9.11522 37.9615 11.7841 27.4222C14.4534 16.7135 4.78689 9.71973 4.78689 9.71973C4.78689 9.71973 12.6017 15.5556 10.2693 27.6389C7.67216 38.0336 0.987793 40.9997 0.987793 40.9997V40.9998Z" fill="#E72485"/>
<path d="M21.4131 17.2202H24.8281V18.3053C25.7414 17.4122 26.5349 17.0752 27.617 17.0752C29.4685 17.0752 30.5507 18.2083 30.5507 20.1137V25.8538H27.1604V21.1268C27.1604 20.2346 26.8478 19.8243 26.174 19.8243C25.6451 19.8243 25.2124 20.1137 24.8281 20.7653V25.8538H21.4131V17.2202Z" fill="#2B2A29"/>
<path d="M37.9324 25.0581C37.067 25.7095 36.1048 25.9989 34.951 25.9989C33.9411 25.9989 32.9068 25.7095 32.282 25.0823C31.8008 24.5753 31.6567 23.9727 31.6567 22.7912V19.3422H30.0938V18.2807L34.2772 14.5913H35.0228V17.196H37.74V19.3421H35.0228V21.9464C35.0228 22.7421 35.3117 23.0796 36.033 23.0796C36.61 23.0796 37.2353 22.8871 37.9323 22.429V25.058L37.9324 25.0581Z" fill="#2B2A29"/>
<path d="M42.3332 18.9325C43.2955 18.9561 43.8001 19.6079 43.824 20.9098H42.3332V22.164H46.5895C46.9499 19.1737 44.9062 17.0508 42.3332 17.0508V18.9325ZM42.3332 25.9989V23.7315C42.6458 23.8521 42.9823 23.9008 43.3674 23.9008C44.2327 23.9008 45.0749 23.587 46.0845 22.8873L46.6856 24.3349C45.7476 25.42 44.401 25.9989 42.718 25.9989H42.3332ZM40.8424 20.9098C40.7703 19.5357 41.4437 18.9325 42.3093 18.9325H42.3332V17.0508H42.3093C39.7604 17.0508 37.8608 18.9325 37.8608 21.4646C37.8608 23.9244 39.592 25.8301 42.3332 25.9989V23.7315C41.54 23.4182 40.9868 22.7912 40.9631 22.164H42.3332V20.9098H40.8424Z" fill="#2B2A29"/>
<path d="M49.9322 17.2202V19.5354H49.9558C50.5572 17.8951 51.4948 17.0752 52.6966 17.0752C53.3702 17.0752 54.0197 17.2923 54.813 17.7261L53.2983 21.1988C52.769 20.6441 52.3364 20.4511 51.8554 20.4511C50.99 20.4511 50.4366 21.2714 50.2443 22.2601V25.8538H46.8296V17.2202H49.9323H49.9322Z" fill="#2B2A29"/>
<path d="M63.1331 16.3996C61.7385 15.6762 60.4636 15.2903 59.1652 15.2903C56.4 15.2903 54.308 17.4123 54.308 20.2589C54.308 23.1755 56.3762 25.2028 59.2613 25.2028C60.5358 25.2028 61.7384 24.865 63.253 24.0685V24.9614C61.9545 25.6608 60.6081 25.9985 59.2613 25.9985C55.8951 25.9985 53.394 23.5621 53.394 20.2589C53.394 16.8578 56.1354 14.5425 59.2133 14.5425C60.4396 14.5425 61.7618 14.8316 63.133 15.4594V16.3997L63.1331 16.3996Z" fill="#2B2A29"/>
<path d="M73.2314 25.8537H72.3658V20.5476H64.9598V25.8537H64.0703V14.687H64.9598V19.8242H72.3658V14.687H73.2314V25.8537Z" fill="#2B2A29"/>
<path d="M80.9019 21.2469H78.5218V21.9709H81.2393L83.0178 25.854H83.9312L78.7867 14.5913H78.5218V16.0621L80.9019 21.2469ZM78.5218 21.2469H76.1656L78.497 16.038L78.5218 16.0621V14.5913H78.2816L73.1831 25.854H74.0727L75.8517 21.9709H78.5216V21.2469H78.5218Z" fill="#2B2A29"/>
<path d="M87.0336 15.411C88.6685 15.5795 89.3902 16.4237 89.3902 17.5815C89.3902 18.7872 88.6446 19.6073 87.0336 19.752V20.5477C87.7789 20.7163 88.2595 21.2229 89.2691 22.7664L91.1932 25.8537H92.203L89.7025 21.9706C89.1972 21.1986 88.7407 20.5477 88.2352 20.2589C89.6548 19.7521 90.3516 18.8355 90.3516 17.5574C90.3516 16.1585 89.4863 14.8316 87.0334 14.7114V15.411H87.0336ZM84.7006 15.3871H86.4801C86.6737 15.3871 86.8659 15.411 87.0336 15.411V14.7114C86.9135 14.7114 86.7932 14.687 86.6491 14.687H83.8589V25.8537H84.7007V20.4992H86.1685C86.5044 20.4992 86.7934 20.4992 87.0337 20.5477V19.752H84.7007V15.3869L84.7006 15.3871Z" fill="#2B2A29"/>
<path d="M101.1 14.687H101.966V25.8537H101.1V15.9412H101.077L96.8691 21.1986L92.6363 15.9412H92.612V25.8537H91.7705V14.687H92.612L96.8691 19.8967L101.1 14.687Z" fill="#2B2A29"/>
<path fill-rule="evenodd" clip-rule="evenodd" d="M18.8516 39.9633C19.7696 39.9633 20.3529 39.4471 20.3529 38.6965V38.3949C20.3529 37.6445 19.7696 37.1285 18.8516 37.1285H18.0538V35.8953H19.9372V35.2718H17.2632V39.9634H18.8515L18.8516 39.9633ZM18.8381 37.7517C19.3005 37.7517 19.5686 37.986 19.5686 38.3481V38.7434C19.5686 39.1054 19.3003 39.3399 18.8381 39.3399H18.0537V37.7517H18.8381ZM21.036 39.9633H22.5374C23.4555 39.9633 24.0989 39.4471 24.0989 38.6965V38.4015C24.0989 37.6511 23.4555 37.1347 22.5374 37.1347H21.8269V35.2717H21.036V39.9633ZM22.5239 37.7581C22.993 37.7581 23.308 37.9928 23.308 38.3613V38.7434C23.308 39.0985 22.993 39.3399 22.5239 39.3399H21.8269V37.7581H22.5239ZM25.5869 39.9633V37.9056H26.3909V38.7566C26.3909 39.5074 27.0276 40.0234 27.919 40.0234C28.8037 40.0234 29.447 39.5074 29.447 38.7566V36.4781C29.447 35.7277 28.8037 35.2115 27.919 35.2115C27.0276 35.2115 26.3909 35.7277 26.3909 36.4781V37.2826H25.5869V35.2717H24.796V39.9633H25.5869ZM28.6562 38.7971C28.6562 39.1657 28.3414 39.4001 27.919 39.4001C27.4833 39.4001 27.1818 39.1723 27.1818 38.8037V36.4312C27.1818 36.0759 27.4833 35.8344 27.919 35.8344C28.3414 35.8344 28.6562 36.0758 28.6562 36.4312V38.797V38.7971ZM32.9992 35.2717H29.8089V35.8952H31.0086V39.9633H31.7927V35.8952H32.9992V35.2717ZM34.2056 39.9633L35.9477 36.7798V39.9633H36.7389V35.2717H36.0553L34.3128 38.4487V35.2717H33.5219V39.9633H34.2056ZM37.5163 38.2074H38.8965V37.6376H37.5163V38.2074ZM40.4651 39.9633V35.8952H42.0401V39.9633H42.831V35.2717H39.6742V39.9633H40.4651ZM45.1496 38.1002C46.0678 38.1002 46.7109 37.5841 46.7109 36.8334V36.5385C46.7109 35.7878 46.0678 35.2717 45.1496 35.2717H43.6751V39.9633H44.466V38.1002H45.1496ZM45.1364 35.8953C45.5987 35.8953 45.9201 36.1366 45.9201 36.4917V36.8805C45.9201 37.2423 45.5987 37.4837 45.1364 37.4837H44.466V35.8954H45.1364V35.8953ZM50.4841 38.7568V36.4782C50.4841 35.7278 49.8209 35.2117 48.9027 35.2117C47.9846 35.2117 47.3278 35.7278 47.3278 36.4782V38.7568C47.3278 39.5075 47.9846 40.0236 48.9027 40.0236C49.8209 40.0236 50.4841 39.5075 50.4841 38.7568ZM49.6934 38.7972C49.6934 39.1591 49.3515 39.4002 48.9026 39.4002C48.4401 39.4002 48.1118 39.1657 48.1118 38.8038V36.4313C48.1118 36.0761 48.4401 35.8346 48.9026 35.8346C49.3515 35.8346 49.6934 36.0759 49.6934 36.4313V38.7971V38.7972ZM53.9023 39.34H52.0659V37.9057H53.701V37.2827H52.0659V35.8953H53.9023V35.2718H51.2751V39.9634H53.9023V39.34ZM56.9984 39.9634H57.8628L56.2344 37.5372L57.7489 35.2718H56.8778L55.4033 37.4836V35.2718H54.6127V39.9634H55.4033V37.5842L56.9985 39.9634H56.9984ZM61.2273 35.2718H58.037V35.8953H59.2367V39.9634H60.0207V35.8953H61.2273V35.2718ZM63.9547 39.9634V36.8536L65.6773 39.9634H66.3474V35.2718H65.5833V38.3816L63.8675 35.2718H63.1907V39.9634H63.9546H63.9547ZM68.9275 36.4447C68.9275 35.4797 68.4652 35.2117 67.8287 35.2117C67.192 35.2117 66.7359 35.4797 66.7359 36.4447C66.7359 37.4099 67.192 37.6779 67.8287 37.6779C68.4653 37.6779 68.9275 37.4099 68.9275 36.4447ZM68.3111 36.4447C68.3111 37.1484 68.1032 37.2491 67.8287 37.2491C67.5539 37.2491 67.3527 37.1484 67.3527 36.4447C67.3527 35.7412 67.5539 35.6475 67.8287 35.6475C68.1033 35.6475 68.3111 35.7412 68.3111 36.4447ZM69.4102 35.882L69.685 36.398L70.6099 36.0024V39.9634H71.3468V35.2718H70.8442L69.4102 35.8819V35.882ZM73.9471 39.9634H75.5023C76.4538 39.9634 77.0705 39.474 77.0705 38.7972V38.5626C77.0705 38.1137 76.789 37.7383 76.313 37.5439C76.7019 37.3497 76.9297 37.0213 76.9297 36.6257V36.3912C76.9297 35.7411 76.313 35.2718 75.3683 35.2718H73.9471V39.9634ZM75.4821 37.8858C75.9847 37.8858 76.2795 38.1471 76.2795 38.5024V38.7906C76.2795 39.1123 75.9845 39.3401 75.4821 39.3401H74.738V37.8859H75.4821V37.8858ZM75.3412 35.8953C75.8506 35.8953 76.139 36.1165 76.139 36.4179V36.6728C76.139 37.0144 75.8506 37.2624 75.3412 37.2624H74.738V35.8953H75.3412ZM80.6492 38.1002C81.5674 38.1002 82.2108 37.5841 82.2108 36.8334V36.5385C82.2108 35.7878 81.5674 35.2717 80.6492 35.2717H79.1747V39.9633H79.9656V38.1002H80.6492ZM80.6356 35.8953C81.0982 35.8953 81.4201 36.1366 81.4201 36.4917V36.8805C81.4201 37.2423 81.0983 37.4837 80.6356 37.4837H79.9656V35.8954H80.6356V35.8953ZM85.9841 38.7568V36.4782C85.9841 35.7278 85.3205 35.2117 84.4022 35.2117C83.484 35.2117 82.8275 35.7278 82.8275 36.4782V38.7568C82.8275 39.5075 83.484 40.0236 84.4022 40.0236C85.3206 40.0236 85.9841 39.5075 85.9841 38.7568ZM85.1932 38.7972C85.1932 39.1591 84.8513 39.4002 84.4022 39.4002C83.9401 39.4002 83.6114 39.1657 83.6114 38.8038V36.4313C83.6114 36.0761 83.94 35.8346 84.4022 35.8346C84.8514 35.8346 85.1932 36.0759 85.1932 36.4313V38.7971V38.7972ZM89.0936 38.5023V38.7972C89.0936 39.1658 88.7517 39.4002 88.3028 39.4002C87.8404 39.4002 87.5118 39.1724 87.5118 38.8038V36.4313C87.5118 36.0761 87.8404 35.8346 88.3028 35.8346C88.7517 35.8346 89.0936 36.0759 89.0936 36.4313V36.7328H89.8845V36.478C89.8845 35.7276 89.2209 35.2114 88.3028 35.2114C87.3847 35.2114 86.7278 35.7276 86.7278 36.478V38.7565C86.7278 39.5073 87.3847 40.0233 88.3028 40.0233C89.2209 40.0233 89.8845 39.5073 89.8845 38.7565V38.5021H89.0936V38.5023ZM92.9136 38.5023V38.7972C92.9136 39.1658 92.572 39.4002 92.1228 39.4002C91.6605 39.4002 91.3321 39.1724 91.3321 38.8038V36.4313C91.3321 36.0761 91.6605 35.8346 92.1228 35.8346C92.5718 35.8346 92.9136 36.0759 92.9136 36.4313V36.7328H93.7046V36.478C93.7046 35.7276 93.0409 35.2114 92.1228 35.2114C91.2046 35.2114 90.5479 35.7276 90.5479 36.478V38.7565C90.5479 39.5073 91.2045 40.0233 92.1228 40.0233C93.0409 40.0233 93.7046 39.5073 93.7046 38.7565V38.5021H92.9136V38.5023ZM95.0985 39.9633L96.8409 36.7798V39.9633H97.6318V35.2717H96.9482L95.2057 38.4487V35.2717H94.4145V39.9633H95.0985ZM99.1599 39.9633L100.902 36.7798V39.9633H101.693V35.2717H101.01L99.2672 38.4487V35.2717H98.4763V39.9633H99.1599Z" fill="#2B2A29"/>
<path fill-rule="evenodd" clip-rule="evenodd" d="M16.5391 31.4004H101.846V30.5615H16.5391V31.4004Z" fill="url(#paint0_linear)"/>
<defs>
<linearGradient id="paint0_linear" x1="16.5241" y1="30.981" x2="101.861" y2="30.981" gradientUnits="userSpaceOnUse">
<stop stop-color="#E72485"/>
<stop offset="0.309804" stop-color="#E72485"/>
<stop offset="0.470588" stop-color="#E1C7DE"/>
<stop offset="0.501961" stop-color="#E1C7DE"/>
<stop offset="0.560784" stop-color="#BBE2F1"/>
<stop offset="0.8" stop-color="#068F92"/>
<stop offset="1" stop-color="#068F92"/>
</linearGradient>
</defs>
</svg>
