<svg width="120" height="47" viewBox="0 0 120 47" fill="none" xmlns="http://www.w3.org/2000/svg">
<path d="M53.8776 28.9311C54.5575 28.9311 55.1674 28.6904 55.4378 28.5776C55.5227 29.0731 55.6063 29.571 55.7073 30.0672C55.4652 30.1383 54.7134 30.5062 53.5373 30.5062C51.0258 30.5062 49.7358 28.9194 49.7358 25.641C49.7358 22.3648 51.0258 20.7754 53.5373 20.7754C54.7134 20.7754 55.4652 21.1441 55.7073 21.2148C55.6063 21.7114 55.5227 22.2074 55.4378 22.7053C55.1674 22.5909 54.5575 22.3501 53.8776 22.3501C52.2594 22.3501 51.7927 23.4281 51.7927 25.6412C51.7927 27.8544 52.2594 28.9314 53.8776 28.9314V28.9311Z" fill="#E53A24"/>
<path d="M63.7568 30.2955H61.885V25.5849C61.885 25.1455 61.9551 24.6348 61.9551 24.4217H61.9415L58.9764 30.2955H57.3027V20.9604H59.175V25.7124C59.175 26.1104 59.1179 26.6498 59.1179 26.8618C60.1113 24.9181 61.0908 22.9184 62.0826 20.9604H63.7568V30.2955Z" fill="#E53A24"/>
<path d="M67.8927 25.8833V28.8911C68.1351 28.9058 68.3768 28.9058 68.6018 28.9058C69.4838 28.9058 70.0507 28.3509 70.0507 27.3447C70.0507 26.2223 69.5103 25.8401 68.6588 25.8401C68.3473 25.8401 67.9802 25.8687 67.8927 25.8833ZM71.4537 22.5783H67.8927V24.4646C68.1055 24.4359 68.5453 24.4217 68.9997 24.4217C70.7874 24.4217 72.009 25.1456 72.009 27.2456C72.009 29.457 70.5473 30.3935 68.4458 30.3935C67.3415 30.3935 66.4186 30.2955 65.9229 30.2955V20.9604H71.4537V22.5785V22.5783Z" fill="#E53A24"/>
<path d="M80.1435 30.2955H78.2717V25.5849C78.2717 25.1455 78.3425 24.6348 78.3425 24.4217H78.3285L75.3626 30.2955H73.6875V20.9604H75.5616V25.7124C75.5616 26.1104 75.5045 26.6498 75.5045 26.8618C76.4972 24.9181 77.477 22.9184 78.4696 20.9604H80.1434V30.2955H80.1435Z" fill="#E53A24"/>
<path d="M84.2222 22.3934V25.7693H84.7484C85.5691 25.7693 86.1245 25.3435 86.1245 24.0663C86.1245 22.9178 85.6409 22.3795 84.8185 22.3795C84.6344 22.3795 84.4351 22.3795 84.2222 22.3936V22.3934ZM82.3076 20.9599C82.8038 20.9599 83.8387 20.8755 84.7484 20.8755C87.1719 20.8755 88.1107 21.9676 88.1107 24.0663C88.1107 26.4219 86.6912 27.2452 84.8888 27.2452C84.6479 27.2452 84.4221 27.2305 84.2222 27.2164V30.2951H82.3076V20.96V20.9599Z" fill="#E53A24"/>
<path d="M93.4654 28.9311C94.1458 28.9311 94.7562 28.6904 95.0269 28.5776C95.1101 29.0731 95.1949 29.571 95.2943 30.0672C95.053 30.1383 94.3016 30.5062 93.1245 30.5062C90.6143 30.5062 89.3232 28.9194 89.3232 25.641C89.3232 22.3648 90.6142 20.7754 93.1245 20.7754C94.3015 20.7754 95.0529 21.1441 95.2943 21.2148C95.1949 21.7114 95.1101 22.2074 95.0269 22.7053C94.7562 22.5909 94.146 22.3501 93.4654 22.3501C91.8478 22.3501 91.3797 23.4281 91.3797 25.6412C91.3797 27.8544 91.8479 28.9314 93.4654 28.9314V28.9311Z" fill="#E53A24"/>
<path d="M96.8901 20.9604H98.8626V25.0459L101.147 20.9604H103.344L100.706 25.1871C101.671 26.89 102.664 28.5926 103.63 30.2956H101.29L98.8626 25.7411V30.2956H96.8901V20.9606V20.9604Z" fill="#E53A24"/>
<path d="M111.382 30.2955H109.509V25.5849C109.509 25.1455 109.581 24.6348 109.581 24.4217H109.566L106.601 30.2955H104.927V20.9604H106.801V25.7124C106.801 26.1104 106.742 26.6498 106.742 26.8618C107.737 24.9181 108.715 22.9184 109.71 20.9604H111.382V30.2955H111.382Z" fill="#E53A24"/>
<path d="M118.015 18.1523L118.965 18.4775C118.965 19.2581 118.282 20.1805 116.824 20.1805C115.376 20.1805 114.681 19.2856 114.681 18.5067C114.992 18.3931 115.305 18.2651 115.632 18.1523C115.632 18.435 116.014 18.9598 116.824 18.9598C117.631 18.9598 118.015 18.4071 118.015 18.1523ZM120 30.2954H118.13V25.5848C118.13 25.1454 118.2 24.6348 118.2 24.4216H118.185L115.221 30.2954H113.546V20.9604H115.42V25.7123C115.42 26.1103 115.362 26.6497 115.362 26.8617C116.354 24.918 117.334 22.9183 118.328 20.9604H120V30.2954Z" fill="#E53A24"/>
<path d="M59.0818 42.8407H57.0944C57.0252 41.8875 56.7541 38.1027 56.6837 36.8981C56.428 37.8179 55.3921 41.3497 55.1658 42.047H53.8185C53.5903 41.3496 52.5261 37.8754 52.2853 36.8981L51.8882 42.8407H49.9736L50.8669 33.5068H52.7811C53.0666 34.2874 54.2428 38.285 54.527 39.3934C54.8114 38.2994 56.0311 34.2874 56.3001 33.5068H58.2294L59.0815 42.8407H59.0818Z" fill="#E53A24"/>
<path d="M63.8541 34.9109C62.7754 34.9109 62.3234 36.1016 62.3234 38.1737C62.3234 40.2458 62.7622 41.4494 63.8541 41.4494C64.9607 41.4494 65.4157 40.2457 65.4157 38.1737C65.4157 36.1018 64.9467 34.9109 63.8541 34.9109ZM63.8541 43.0247C61.5697 43.0247 60.2935 41.4786 60.2935 38.1737C60.2935 34.8671 61.5697 33.3359 63.8541 33.3359C66.1522 33.3359 67.4306 34.8671 67.4306 38.1737C67.4306 41.4786 66.1522 43.0247 63.8541 43.0247Z" fill="#E53A24"/>
<path d="M75.2746 33.5068V42.8407H73.3164V35.1656H71.6142C71.5162 37.1666 71.3743 38.9098 71.2047 40.4412C70.9761 42.3871 70.0699 42.9252 68.6663 42.9252C68.5364 42.9252 68.4237 42.91 68.3115 42.8986L68.3385 41.4489C68.8912 41.4068 69.2179 41.1512 69.3457 40.4274C69.5869 38.6846 69.7292 36.4693 69.8424 33.5068H75.2746Z" fill="#E53A24"/>
<path d="M83.7989 33.5068V42.8407H81.8406V35.1656H80.138C80.0392 37.1666 79.8981 38.9098 79.7262 40.4412C79.501 42.3871 78.593 42.9252 77.1874 42.9252C77.0602 42.9252 76.9471 42.91 76.8335 42.8986L76.8614 41.4489C77.415 41.4068 77.7408 41.1512 77.8687 40.4274C78.1103 38.6846 78.2522 36.4693 78.3653 33.5068H83.7989Z" fill="#E53A24"/>
<path d="M27.8831 0C27.8831 0 33.7915 6.73302 32.4952 14.904C31.1981 23.1043 23.4731 27.6797 23.4731 27.6797C23.4731 27.6797 17.5651 20.946 18.8913 12.747C20.1591 4.57435 27.8829 0 27.8829 0L27.8831 0Z" fill="#FBBA00"/>
<path d="M45.031 21.3776C45.031 21.3776 42.0044 27.363 35.6064 29.2325C29.2362 31.1032 23.4727 27.6793 23.4727 27.6793C23.4727 27.6793 26.4992 21.6657 32.8681 19.8243C39.2377 17.9544 45.031 21.3776 45.031 21.3776Z" fill="#E53A24"/>
<path d="M39.2476 42.6488C39.2476 42.6488 33.4284 44.2099 28.8848 40.9965C24.3244 37.7755 23.8628 31.7556 23.8628 31.7556C23.8628 31.7556 29.6821 30.1943 34.2331 33.4329C38.7854 36.629 39.2476 42.6489 39.2476 42.6489V42.6488Z" fill="#CF1981"/>
<path d="M21.2506 46.6341C21.2506 46.6341 18.5405 43.0284 19.3164 38.6135C20.0824 34.2141 23.8625 31.7563 23.8625 31.7563C23.8625 31.7563 26.5894 35.3703 25.8058 39.7602C25.0388 44.1575 21.2508 46.6341 21.2508 46.6341H21.2506Z" fill="#009DD0"/>
<path d="M5.22803 40.1867C5.22803 40.1867 10.8476 41.3356 15.498 38.0383C20.1334 34.7614 20.8981 29.079 20.8981 29.079C20.8981 29.079 15.2592 27.9154 10.644 31.2075C6.00858 34.4855 5.22803 40.1867 5.22803 40.1867Z" fill="#E53A24"/>
<path d="M0 17.3396C0 17.3396 1.37701 24.8752 7.54482 28.3443C13.73 31.8279 20.8983 29.0782 20.8983 29.0782C20.8983 29.0782 19.521 21.5418 13.3198 18.0778C7.16773 14.5889 0 17.3396 0 17.3396Z" fill="#CF1981"/>
</svg>
