<svg width="117" height="35" viewBox="0 0 117 35" fill="none" xmlns="http://www.w3.org/2000/svg">
<g filter="url(#filter0_d)">
<path fill-rule="evenodd" clip-rule="evenodd" d="M37.473 15.6626C39.566 15.6626 41.2634 17.3601 41.2634 19.453V22.6496C41.2634 22.9005 41.0551 23.1047 40.6435 23.1047C40.2319 23.1047 40.0236 22.9009 40.0236 22.6496V21.9096C39.5241 22.6864 38.3862 23.2434 37.4039 23.2434C35.2418 23.2434 33.6826 21.546 33.6826 19.453C33.6826 17.3601 35.3801 15.6626 37.473 15.6626ZM72.2928 23.1047C72.7135 23.1047 73.0461 22.9026 73.0883 22.6496L73.8905 17.8102L73.8793 17.2015C73.8785 17.1542 73.9095 17.1141 73.9567 17.112C74.0048 17.1095 74.0433 17.1484 74.0511 17.1932L74.1306 17.6321L76.2609 22.6496C76.4004 22.978 76.6365 23.1039 76.9943 23.1039C77.3521 23.1039 77.5877 22.978 77.7268 22.6496L79.8571 17.6321L79.9366 17.1932C79.9448 17.1468 79.9834 17.1095 80.031 17.112C80.0786 17.1145 80.1092 17.1563 80.1084 17.2015L80.0977 17.8102L80.8998 22.6496C80.9416 22.9022 81.2746 23.1047 81.6953 23.1047C82.1161 23.1047 82.3293 22.9009 82.2796 22.6496L81.0431 16.4121C80.9656 16.0212 80.7308 15.8026 80.166 15.7997C79.6011 15.7972 79.3216 16.0477 79.1589 16.4121L77.1164 20.9894L77.0804 21.4325C77.0767 21.4797 77.0419 21.5182 76.9947 21.5182C76.9462 21.5182 76.9123 21.478 76.909 21.4325L76.8729 20.9894L74.8305 16.4121C74.6678 16.0477 74.3882 15.7972 73.8234 15.7997C73.2585 15.8022 73.0237 16.0212 72.9463 16.4121L71.7101 22.6496C71.6604 22.9009 71.8733 23.1047 72.294 23.1047H72.2928ZM69.8773 18.7573H64.9431C65.1563 17.6491 66.1755 16.8345 67.4066 16.8345C68.7583 16.8345 69.6201 17.6491 69.8773 18.7573ZM70.5734 19.9292C70.9535 19.9292 71.2074 19.6563 71.1929 19.2845C71.1146 17.2694 69.5812 15.6626 67.4062 15.6626C65.3133 15.6626 63.6158 17.3601 63.6158 19.453C63.6158 21.546 65.3626 23.2434 67.4062 23.2434C68.9678 23.2434 70.2574 22.5307 70.9092 21.411C71.0173 21.1948 70.9212 20.8892 70.4313 20.8892C69.9936 20.8892 69.7837 20.9277 69.483 21.2586C69.0151 21.7737 68.3603 22.0719 67.4062 22.0719C66.1539 22.0719 65.047 21.148 64.8983 19.9301H70.573L70.5734 19.9292ZM61.344 21.9327H57.4885C58.6029 20.9186 58.9686 19.0898 59.0303 16.9733H61.344V21.9327ZM56.3095 24.8779C56.6988 24.8779 56.8955 24.6742 56.8955 24.4228V23.1051H62.0007V24.4228C62.0007 24.6738 62.1975 24.8779 62.5867 24.8779C62.976 24.8779 63.1727 24.6742 63.1727 24.4228V22.5191C63.1727 22.1299 62.9089 21.9332 62.5838 21.9332V16.408C62.5838 16.0734 62.3755 15.8017 61.9639 15.8017H58.5946C58.0894 15.8017 57.8057 16.1749 57.795 16.6639C57.79 18.9225 57.4923 20.6303 56.2946 21.7232C55.9443 22.0429 55.724 22.2723 55.724 22.7626V24.4232C55.724 24.6742 55.9211 24.8784 56.31 24.8784L56.3095 24.8779ZM84.3585 16.9733V22.6496C84.3585 22.9005 84.1502 23.1047 83.7386 23.1047C83.3269 23.1047 83.1186 22.9009 83.1186 22.6496V16.4076C83.1186 16.073 83.3269 15.8013 83.7386 15.8013H88.5974C89.009 15.8013 89.2173 16.073 89.2173 16.4076V22.6496C89.2173 22.9005 89.009 23.1047 88.5974 23.1047C88.1858 23.1047 87.9775 22.9009 87.9775 22.6496V16.9733H84.3585ZM100.118 21.9791V26.5448C100.118 26.7957 99.9098 26.9999 99.4982 26.9999C99.0866 26.9999 98.8783 26.7961 98.8783 26.5448V19.453C98.8783 17.4292 100.506 15.6626 102.669 15.6626C104.831 15.6626 106.39 17.2905 106.39 19.453C106.39 21.546 104.97 23.2434 102.669 23.2434C101.794 23.2434 100.772 22.8985 100.119 21.9791H100.118ZM102.668 16.835C101.191 16.835 100.118 18.0073 100.118 19.4534C100.118 20.9687 101.122 22.0719 102.599 22.0719C104.285 22.0719 105.15 20.8299 105.15 19.4534C105.15 18.0077 104.215 16.835 102.668 16.835ZM107.7 23.1051C108.111 23.1051 108.32 22.9014 108.32 22.65V16.2569C108.32 16.0055 108.111 15.8017 107.7 15.8017C107.288 15.8017 107.08 16.0055 107.08 16.2569V22.65C107.08 22.9009 107.288 23.1051 107.7 23.1051ZM109.984 19.1085L112.27 16.6378C112.44 16.4531 112.408 16.1566 112.096 15.8887C111.783 15.6208 111.491 15.6386 111.329 15.8303L108.525 19.142L111.744 23.0612C111.904 23.2554 112.199 23.2712 112.511 23.0028C112.824 22.7349 112.921 22.4421 112.754 22.2537L109.984 19.1085ZM42.7261 23.1051C43.1377 23.1051 43.346 22.9014 43.346 22.65V16.2569C43.346 16.0055 43.1377 15.8017 42.7261 15.8017C42.3145 15.8017 42.1062 16.0055 42.1062 16.2569V22.65C42.1062 22.9009 42.3145 23.1051 42.7261 23.1051ZM45.0108 19.1085L47.2959 16.6378C47.4665 16.4531 47.4346 16.1566 47.122 15.8887C46.8097 15.6208 46.5173 15.6386 46.3554 15.8303L43.5514 19.142L46.7712 23.0612C46.9306 23.2554 47.2259 23.2712 47.5381 23.0028C47.8504 22.7349 47.9473 22.4421 47.7812 22.2537L45.0108 19.1085ZM94.1296 15.6626C96.2225 15.6626 97.92 17.3601 97.92 19.453V22.6496C97.92 22.9005 97.7117 23.1047 97.3001 23.1047C96.8884 23.1047 96.6801 22.9009 96.6801 22.6496V21.9096C96.1807 22.6864 95.0427 23.2434 94.0604 23.2434C91.8983 23.2434 90.3396 21.546 90.3396 19.453C90.3396 17.3601 92.0371 15.6626 94.1296 15.6626ZM94.1296 16.8345C95.6072 16.8345 96.6801 17.9378 96.6801 19.453C96.6801 20.9683 95.6072 22.0715 94.0604 22.0715C92.5137 22.0715 91.5795 20.8991 91.5795 19.453C91.5795 18.0073 92.6524 16.8345 94.1296 16.8345ZM51.5286 15.6626C53.6215 15.6626 55.319 17.3601 55.319 19.453V22.6496C55.319 22.9005 55.1107 23.1047 54.699 23.1047C54.2874 23.1047 54.0791 22.9009 54.0791 22.6496V21.9096C53.5797 22.6864 52.4417 23.2434 51.4594 23.2434C49.2973 23.2434 47.7386 21.546 47.7386 19.453C47.7386 17.3601 49.436 15.6626 51.529 15.6626H51.5286ZM51.5286 16.8345C53.0061 16.8345 54.0791 17.9378 54.0791 19.453C54.0791 20.9683 53.0061 22.0715 51.4594 22.0715C49.9127 22.0715 48.9784 20.8991 48.9784 19.453C48.9784 18.0073 50.0514 16.8345 51.529 16.8345H51.5286ZM37.4722 16.8345C38.9498 16.8345 40.0227 17.9378 40.0227 19.453C40.0227 20.9683 38.9498 22.0715 37.403 22.0715C35.8563 22.0715 34.9217 20.8991 34.9217 19.453C34.9217 18.0073 35.9946 16.8345 37.4722 16.8345Z" fill="#54AF3B"/>
<path fill-rule="evenodd" clip-rule="evenodd" d="M21.1573 19.3591V21.7697C21.1573 22.4919 21.7511 23.0655 22.4729 23.0655C23.1947 23.0655 23.7886 22.4899 23.7886 21.7697V13.4037C23.7886 9.91271 21.8998 6.3393 18.6552 4.79009C17.5122 4.24428 16.4869 4.6613 16.3013 5.2833C16.0827 6.01836 16.5349 6.68674 17.1801 7.0375C19.4619 8.23678 21.0976 10.6457 21.0976 13.4037C21.0976 17.4178 17.9081 20.553 13.8941 20.553C9.79018 20.553 6.69052 17.3817 6.69052 13.4037C6.69052 10.6457 8.236 8.2372 10.5182 7.0375C11.1634 6.68633 11.6156 6.01836 11.397 5.2833C11.2118 4.6613 10.1865 4.2447 9.04311 4.79009C6.03414 6.22666 4 9.71021 4 13.4037C4 18.8672 8.04965 23.2435 13.7839 23.2435C16.8347 23.2435 19.4565 21.6753 21.1569 19.3591H21.1573ZM13.8589 0C13.1205 0 12.5316 0.590531 12.5316 1.32517V10.6395C12.5316 11.3774 13.1205 11.9647 13.8589 11.9647C14.5968 11.9647 15.1861 11.3762 15.1861 10.6395V1.32517C15.1861 0.585561 14.5972 0 13.8589 0V0Z" fill="#54AF3B"/>
</g>
<defs>
<filter id="filter0_d" x="0" y="0" width="116.835" height="34.9999" filterUnits="userSpaceOnUse" color-interpolation-filters="sRGB">
<feFlood flood-opacity="0" result="BackgroundImageFix"/>
<feColorMatrix in="SourceAlpha" type="matrix" values="0 0 0 0 0 0 0 0 0 0 0 0 0 0 0 0 0 0 127 0"/>
<feOffset dy="4"/>
<feGaussianBlur stdDeviation="2"/>
<feColorMatrix type="matrix" values="0 0 0 0 0 0 0 0 0 0 0 0 0 0 0 0 0 0 0.25 0"/>
<feBlend mode="normal" in2="BackgroundImageFix" result="effect1_dropShadow"/>
<feBlend mode="normal" in="SourceGraphic" in2="effect1_dropShadow" result="shape"/>
</filter>
</defs>
</svg>
