<svg width="33" height="30" viewBox="0 0 33 30" fill="none" xmlns="http://www.w3.org/2000/svg">
<path fill-rule="evenodd" clip-rule="evenodd" d="M28.0178 10.7891C27.0433 12.564 25.5816 14.0257 23.8066 15.0002C25.5816 15.9747 27.0433 17.4364 28.0178 19.2113C28.9923 17.4364 30.454 15.9747 32.2289 15.0002C30.454 14.0257 28.9923 12.564 28.0178 10.7891Z" fill="#8523CD"/>
<path d="M23.3527 20.9513C21.5081 23.3875 18.5499 24.9536 15.3828 24.9536C13.7819 24.9536 12.2158 24.5012 10.6148 23.6311C7.4478 21.891 5.53364 18.3411 5.53364 15C5.53364 13.2947 5.98608 11.6589 6.92575 10.058C7.79582 8.45708 9.04872 7.20418 10.6497 6.33411C12.2506 5.46404 13.8167 5.0464 15.4176 5.0464C18.5847 5.0464 21.4733 6.61253 23.3179 9.22274L27.7378 5.91647C24.6056 2.01856 20.1508 0 15.4524 0C11.2761 0 7.37819 1.60093 4.52436 4.35035C1.67053 7.09977 0 10.8933 0 15C0 19.0719 1.70534 22.9002 4.52436 25.6497C7.37819 28.3991 11.2761 30 15.4524 30C20.1856 30 24.6404 27.9814 27.7378 24.0835L23.4223 20.9513H23.3527Z" fill="#FCFBF7"/>
</svg>
