<svg width="117" height="20" viewBox="0 0 117 20" fill="none" xmlns="http://www.w3.org/2000/svg">
<path d="M15.6258 13.9675C14.4013 15.5897 12.413 16.629 10.3073 16.629C9.23633 16.629 8.19702 16.3217 7.12607 15.7433C5.01582 14.582 3.73249 12.2277 3.73249 9.99548C3.73249 8.86579 4.03977 7.76322 4.6498 6.69227C5.23272 5.62133 6.05513 4.7944 7.12607 4.216C8.19702 3.63308 9.23633 3.36195 10.3073 3.36195C12.4175 3.36195 14.3425 4.40127 15.5671 6.1455L18.5043 3.94487C16.4257 1.34659 13.4568 0 10.3073 0C7.52372 0 4.92544 1.07094 3.02756 2.90556C1.12969 4.74017 0 7.27971 0 10C0 12.7203 1.12969 15.2598 3.02756 17.0944C4.92544 18.9291 7.52372 20 10.3073 20C13.4568 20 16.4211 18.6534 18.5043 16.0551L15.6304 13.9765L15.6258 13.9675ZM26.9995 10.3299C28.2241 10.3299 29.2318 9.32219 29.2318 8.09761C29.2318 6.87302 28.2241 5.86534 26.9995 5.86534C25.775 5.86534 24.7673 6.87302 24.7673 8.09761C24.7673 9.32219 25.775 10.3299 26.9995 10.3299ZM24.094 19.5933V6.13647H20.5468V19.5933H24.094ZM40.7908 15.5897C39.9322 16.4754 38.8929 16.9047 37.7045 16.9047C35.8382 16.9047 34.094 15.6213 33.606 13.8771H44.338L44.3696 12.8694C44.3696 10.9444 43.6376 8.86579 42.1057 7.55084C40.5784 6.23588 38.8929 5.86986 37.3972 5.86986C33.2399 5.86986 30.0904 8.9878 30.0904 12.8739C30.0904 16.7555 33.5472 19.878 37.7045 19.878C39.6295 19.878 41.5273 19.2047 42.8739 18.075L40.7953 15.5987L40.7908 15.5897ZM33.9087 11.0032C34.5504 9.68821 35.897 8.82964 37.3927 8.82964C38.8929 8.82964 40.1446 9.74695 40.6643 11.0032H33.9042H33.9087ZM46.1094 15.1017C46.1094 18.1292 48.2512 19.9006 51.3059 19.9006C52.6209 19.9006 53.7235 19.5662 54.6408 18.8929V19.5978H57.944V6.14099H48.066V9.13692H54.6408V14.704C54.6408 16.141 53.1134 17.2436 51.7668 17.2436C50.2079 17.2436 49.3222 16.019 49.3222 14.9797C49.3222 13.6647 50.4519 12.7158 51.7668 12.7158V10.0226C47.7903 10.0226 46.1094 12.8378 46.1094 15.0972V15.1017ZM62.9869 9.25892V19.5933H66.5025V9.22729L70.5694 9.25892V6.14099H66.5025V1.00316L62.9869 3.44781V6.14099H59.9277V9.25892H62.9869ZM72.16 6.14099V12.8694C72.2232 17.3339 75.5536 19.8735 79.2544 19.8735C83.4117 19.8735 86.3172 16.7872 86.3172 12.8694V6.14099H82.9553V12.8694C82.9236 15.1649 81.3647 16.9047 79.2544 16.9047C77.0538 16.9047 75.5536 15.1604 75.5536 12.8694V6.14099H72.16ZM88.5811 6.17262V19.5978H92.1283V9.16855H96.9273V19.5978H100.474V9.16855H105.305V19.5978H108.852V6.17262H88.5766H88.5811Z" fill="#272727"/>
<path fill-rule="evenodd" clip-rule="evenodd" d="M114.176 3.3575C113.521 4.53689 112.545 5.51746 111.365 6.16816C112.545 6.82338 113.521 7.79943 114.176 8.97883C114.831 7.79943 115.807 6.82338 116.987 6.16816C115.807 5.51294 114.827 4.53689 114.176 3.3575Z" fill="#2FFF97"/>
</svg>
